<svg width="20" height="20" viewBox="0 0 20 20" fill="none" xmlns="http://www.w3.org/2000/svg">
<path d="M1.66663 9.99998C1.66663 6.85728 1.66663 5.28593 2.64294 4.30962C3.61925 3.33331 5.1906 3.33331 8.33329 3.33331H11.6666C14.8093 3.33331 16.3807 3.33331 17.357 4.30962C18.3333 5.28593 18.3333 6.85728 18.3333 9.99998V11.6666C18.3333 14.8093 18.3333 16.3807 17.357 17.357C16.3807 18.3333 14.8093 18.3333 11.6666 18.3333H8.33329C5.1906 18.3333 3.61925 18.3333 2.64294 17.357C1.66663 16.3807 1.66663 14.8093 1.66663 11.6666V9.99998Z" stroke="#2296B7" stroke-width="1.5"/>
<path d="M5.83337 3.33331V2.08331" stroke="#2296B7" stroke-width="1.5" stroke-linecap="round"/>
<path d="M14.1666 3.33331V2.08331" stroke="#2296B7" stroke-width="1.5" stroke-linecap="round"/>
<path d="M2.08337 7.5H17.9167" stroke="#2296B7" stroke-width="1.5" stroke-linecap="round"/>
<path d="M15 14.1667C15 14.6269 14.6269 15 14.1667 15C13.7065 15 13.3334 14.6269 13.3334 14.1667C13.3334 13.7064 13.7065 13.3333 14.1667 13.3333C14.6269 13.3333 15 13.7064 15 14.1667Z" fill="#2296B7"/>
<path d="M15 10.8333C15 11.2936 14.6269 11.6667 14.1667 11.6667C13.7065 11.6667 13.3334 11.2936 13.3334 10.8333C13.3334 10.3731 13.7065 10 14.1667 10C14.6269 10 15 10.3731 15 10.8333Z" fill="#2296B7"/>
<path d="M10.8333 14.1667C10.8333 14.6269 10.4602 15 9.99996 15C9.53972 15 9.16663 14.6269 9.16663 14.1667C9.16663 13.7064 9.53972 13.3333 9.99996 13.3333C10.4602 13.3333 10.8333 13.7064 10.8333 14.1667Z" fill="#2296B7"/>
<path d="M10.8333 10.8333C10.8333 11.2936 10.4602 11.6667 9.99996 11.6667C9.53972 11.6667 9.16663 11.2936 9.16663 10.8333C9.16663 10.3731 9.53972 10 9.99996 10C10.4602 10 10.8333 10.3731 10.8333 10.8333Z" fill="#2296B7"/>
<path d="M6.66667 14.1667C6.66667 14.6269 6.29357 15 5.83333 15C5.3731 15 5 14.6269 5 14.1667C5 13.7064 5.3731 13.3333 5.83333 13.3333C6.29357 13.3333 6.66667 13.7064 6.66667 14.1667Z" fill="#2296B7"/>
<path d="M6.66667 10.8333C6.66667 11.2936 6.29357 11.6667 5.83333 11.6667C5.3731 11.6667 5 11.2936 5 10.8333C5 10.3731 5.3731 10 5.83333 10C6.29357 10 6.66667 10.3731 6.66667 10.8333Z" fill="#2296B7"/>
</svg>
