<svg width="20" height="20" viewBox="0 0 20 20" fill="none" xmlns="http://www.w3.org/2000/svg">
<path fill-rule="evenodd" clip-rule="evenodd" d="M10.0002 3.33331C8.27427 3.33331 6.87516 4.73242 6.87516 6.45831C6.87516 8.1842 8.27427 9.58331 10.0002 9.58331C11.7261 9.58331 13.1252 8.1842 13.1252 6.45831C13.1252 4.73242 11.7261 3.33331 10.0002 3.33331ZM8.12516 6.45831C8.12516 5.42278 8.96463 4.58331 10.0002 4.58331C11.0357 4.58331 11.8752 5.42278 11.8752 6.45831C11.8752 7.49385 11.0357 8.33331 10.0002 8.33331C8.96463 8.33331 8.12516 7.49385 8.12516 6.45831Z" fill="#808080"/>
<path fill-rule="evenodd" clip-rule="evenodd" d="M7.50016 10.8333C5.77427 10.8333 4.37516 12.2324 4.37516 13.9583C4.37516 15.6842 5.77427 17.0833 7.50016 17.0833H12.5002C14.2261 17.0833 15.6252 15.6842 15.6252 13.9583C15.6252 12.2324 14.2261 10.8333 12.5002 10.8333H7.50016ZM5.62516 13.9583C5.62516 12.9228 6.46463 12.0833 7.50016 12.0833H12.5002C13.5357 12.0833 14.3752 12.9228 14.3752 13.9583C14.3752 14.9938 13.5357 15.8333 12.5002 15.8333H7.50016C6.46463 15.8333 5.62516 14.9938 5.62516 13.9583Z" fill="#808080"/>
<path d="M6.46028 8.65719C6.32884 8.44604 6.08221 8.33331 5.8335 8.33331C4.79796 8.33331 3.9585 7.49385 3.9585 6.45831C3.9585 5.42278 4.79796 4.58331 5.8335 4.58331C6.08221 4.58331 6.32884 4.47059 6.46028 4.25944C6.46609 4.2501 6.47194 4.24078 6.47783 4.23149C6.69666 3.88607 6.58578 3.39698 6.17933 3.35223C6.06577 3.33973 5.95038 3.33331 5.8335 3.33331C4.10761 3.33331 2.7085 4.73242 2.7085 6.45831C2.7085 8.1842 4.10761 9.58331 5.8335 9.58331C5.95038 9.58331 6.06577 9.5769 6.17933 9.56439C6.58578 9.51965 6.69666 9.03056 6.47783 8.68513C6.47194 8.67584 6.46609 8.66653 6.46028 8.65719Z" fill="#808080"/>
<path d="M3.92374 15.264C3.82914 15.1062 3.66216 15 3.47815 15H3.3335C2.29796 15 1.4585 14.1605 1.4585 13.125C1.4585 12.0894 2.29796 11.25 3.3335 11.25H3.47815C3.66216 11.25 3.82914 11.1437 3.92374 10.9859C4.15465 10.6007 3.90407 9.99998 3.45491 9.99998H3.3335C1.60761 9.99998 0.208496 11.3991 0.208496 13.125C0.208496 14.8509 1.60761 16.25 3.3335 16.25H3.45491C3.90407 16.25 4.15465 15.6493 3.92374 15.264Z" fill="#808080"/>
<path d="M13.5225 8.68513C13.3037 9.03056 13.4145 9.51965 13.821 9.56439C13.9346 9.5769 14.0499 9.58331 14.1668 9.58331C15.8927 9.58331 17.2918 8.1842 17.2918 6.45831C17.2918 4.73242 15.8927 3.33331 14.1668 3.33331C14.0499 3.33331 13.9346 3.33973 13.821 3.35223C13.4145 3.39698 13.3037 3.88607 13.5225 4.23149C13.5284 4.24078 13.5342 4.25009 13.54 4.25943C13.6715 4.47058 13.9181 4.58331 14.1668 4.58331C15.2024 4.58331 16.0418 5.42278 16.0418 6.45831C16.0418 7.49385 15.2024 8.33331 14.1668 8.33331C13.9181 8.33331 13.6715 8.44604 13.54 8.65719C13.5342 8.66653 13.5284 8.67584 13.5225 8.68513Z" fill="#808080"/>
<path d="M16.0766 15.264C15.8457 15.6493 16.0963 16.25 16.5454 16.25H16.6668C18.3927 16.25 19.7918 14.8509 19.7918 13.125C19.7918 11.3991 18.3927 9.99998 16.6668 9.99998H16.5454C16.0963 9.99998 15.8457 10.6007 16.0766 10.9859C16.1712 11.1437 16.3382 11.25 16.5222 11.25H16.6668C17.7024 11.25 18.5418 12.0894 18.5418 13.125C18.5418 14.1605 17.7024 15 16.6668 15H16.5222C16.3382 15 16.1712 15.1062 16.0766 15.264Z" fill="#808080"/>
</svg>
