<svg width="24" height="24" viewBox="0 0 24 24" fill="none" xmlns="http://www.w3.org/2000/svg">
<path d="M7.7887 6.70111C8.1759 6.55397 8.3705 6.1208 8.22336 5.73361C8.07622 5.34641 7.64306 5.1518 7.25586 5.29894C6.68511 5.51583 6.1333 5.86846 5.61708 6.38027C4.96274 7.02902 4.5268 7.7657 4.28318 8.55575C4.16112 8.95157 4.38305 9.37139 4.77887 9.49345C5.17469 9.61551 5.59451 9.39358 5.71657 8.99776C5.88653 8.4466 6.19143 7.9231 6.67318 7.44547C7.05146 7.07042 7.428 6.83818 7.7887 6.70111Z" fill="white"/>
<path fill-rule="evenodd" clip-rule="evenodd" d="M20.8468 3.93563C19.5193 2.58179 18.0414 2.16297 16.6535 2.26457C15.3031 2.36343 14.087 2.9492 13.1988 3.51263C12.4984 3.95695 11.5014 3.95695 10.8009 3.51263C9.9127 2.94921 8.6966 2.36344 7.34624 2.26459C5.95834 2.16299 4.48046 2.58181 3.1529 3.93563C1.58562 5.53392 1.0939 7.50695 1.29136 9.50271C1.48653 11.4755 2.35186 13.4809 3.50598 15.2579C4.66317 17.0396 6.14136 18.6393 7.62433 19.8008C9.07467 20.9368 10.6527 21.75 11.9999 21.75C13.3471 21.75 14.9251 20.9368 16.3754 19.8008C17.8584 18.6393 19.3366 17.0396 20.4938 15.2579C21.6479 13.4809 22.5132 11.4755 22.7084 9.50271C22.9058 7.50694 22.4141 5.53392 20.8468 3.93563ZM14.0023 4.77928C14.7877 4.28103 15.7599 3.834 16.763 3.76057C17.7285 3.68989 18.7692 3.95929 19.7758 4.98585C20.9791 6.21289 21.3774 7.71993 21.2157 9.35503C21.0516 11.0131 20.3084 12.7894 19.2358 14.4409C18.1663 16.0876 16.7996 17.5633 15.4505 18.6199C14.0688 19.7021 12.8278 20.25 11.9999 20.25C11.172 20.25 9.93093 19.7021 8.54926 18.6199C7.20021 17.5633 5.83348 16.0876 4.76394 14.4409C3.69132 12.7894 2.94812 11.0131 2.78407 9.35503C2.6223 7.71993 3.02067 6.21289 4.2239 4.98585C5.23053 3.95931 6.27119 3.6899 7.23672 3.76059C8.23978 3.83402 9.21197 4.28104 9.99742 4.77928C11.1883 5.53473 12.8114 5.53473 14.0023 4.77928Z" fill="white"/>
</svg>
