<svg width="20" height="20" viewBox="0 0 20 20" fill="none" xmlns="http://www.w3.org/2000/svg">
<path fill-rule="evenodd" clip-rule="evenodd" d="M10.125 17C8.9061 17 7.81589 16.4491 7.08977 15.5826C6.63114 16.4269 5.73667 17 4.70833 17C3.21256 17 2 15.7874 2 14.2917V7.625C2 6.12923 3.21256 4.91667 4.70833 4.91667C5.7436 4.91667 6.6432 5.49754 7.09899 6.35114C7.17344 6.22868 7.25367 6.09834 7.34012 5.9579L9.23889 2.8724C9.57252 2.33025 10.1635 2 10.8001 2C11.9236 2 12.7828 3.00145 12.6119 4.11189L12.4094 5.42837C12.2486 6.47383 13.0574 7.41667 14.1152 7.41667H14.69C17.2688 7.41667 18.946 10.1305 17.7928 12.437L16.8357 14.3512C16.024 15.9746 14.3648 17 12.5499 17H10.125ZM10.3035 3.52752C10.4096 3.35506 10.5976 3.25 10.8001 3.25C11.1575 3.25 11.4308 3.56857 11.3765 3.92182L11.1739 5.2383C10.8966 7.04096 12.2913 8.66667 14.1152 8.66667H14.69C16.3395 8.66667 17.4124 10.4026 16.6747 11.878L15.7176 13.7922C15.1177 14.9921 13.8913 15.75 12.5499 15.75H10.125C8.62923 15.75 7.41667 14.5374 7.41667 13.0417V10.1801C7.41667 9.20045 7.42026 8.80637 7.50539 8.43323C7.53246 8.31461 7.56561 8.19746 7.60473 8.08225C7.72779 7.71984 7.93127 7.38234 8.44469 6.54804L10.3035 3.52752ZM4.70833 6.16667C5.51375 6.16667 6.16667 6.81958 6.16667 7.625V14.2917C6.16667 15.0971 5.51375 15.75 4.70833 15.75C3.90292 15.75 3.25 15.0971 3.25 14.2917V7.625C3.25 6.81958 3.90292 6.16667 4.70833 6.16667Z" fill="#808080"/>
</svg>
