<svg width="16" height="19" viewBox="0 0 16 19" fill="none" xmlns="http://www.w3.org/2000/svg">
<path fill-rule="evenodd" clip-rule="evenodd" d="M8.00004 5.20834C6.27415 5.20834 4.87504 6.60745 4.87504 8.33334C4.87504 10.0592 6.27415 11.4583 8.00004 11.4583C9.72593 11.4583 11.125 10.0592 11.125 8.33334C11.125 6.60745 9.72593 5.20834 8.00004 5.20834ZM6.12504 8.33334C6.12504 7.29781 6.96451 6.45834 8.00004 6.45834C9.03557 6.45834 9.87504 7.29781 9.87504 8.33334C9.87504 9.36888 9.03557 10.2083 8.00004 10.2083C6.96451 10.2083 6.12504 9.36888 6.12504 8.33334Z" fill="#808080"/>
<path fill-rule="evenodd" clip-rule="evenodd" d="M8.00004 0.208344C3.93059 0.208344 0.708374 3.74399 0.708374 8.00726C0.708374 9.37453 1.38763 10.9845 2.24224 12.4954C3.11069 14.0308 4.21911 15.5635 5.1909 16.8028L5.22332 16.8441C5.69765 17.449 6.10174 17.9644 6.49358 18.3203C6.92107 18.7087 7.39249 18.9629 8.00004 18.9629C8.60759 18.9629 9.07901 18.7087 9.50651 18.3203C9.89835 17.9644 10.3024 17.449 10.7768 16.8441L10.8092 16.8028C11.781 15.5635 12.8894 14.0308 13.7578 12.4954C14.6125 10.9845 15.2917 9.37453 15.2917 8.00726C15.2917 3.74399 12.0695 0.208344 8.00004 0.208344ZM1.95837 8.00726C1.95837 4.34644 4.70569 1.45834 8.00004 1.45834C11.2944 1.45834 14.0417 4.34644 14.0417 8.00726C14.0417 9.02934 13.5087 10.397 12.6698 11.88C11.8448 13.3386 10.7786 14.8161 9.82555 16.0314C9.30975 16.6892 8.97015 17.1188 8.66603 17.3951C8.38867 17.647 8.20352 17.7129 8.00004 17.7129C7.79656 17.7129 7.61141 17.647 7.33406 17.3951C7.02994 17.1188 6.69033 16.6892 6.17453 16.0314C5.22153 14.8161 4.15528 13.3386 3.33025 11.88C2.49139 10.397 1.95837 9.02934 1.95837 8.00726Z" fill="#808080"/>
</svg>
