<svg width="12" height="15" viewBox="0 0 12 15" fill="none" xmlns="http://www.w3.org/2000/svg">
<path fill-rule="evenodd" clip-rule="evenodd" d="M6.00016 0.833333C4.25126 0.833333 2.8335 2.2511 2.8335 4C2.8335 5.7489 4.25126 7.16667 6.00016 7.16667C7.74906 7.16667 9.16683 5.7489 9.16683 4C9.16683 2.2511 7.74906 0.833333 6.00016 0.833333ZM3.8335 4C3.8335 2.80338 4.80355 1.83333 6.00016 1.83333C7.19678 1.83333 8.16683 2.80338 8.16683 4C8.16683 5.19662 7.19678 6.16667 6.00016 6.16667C4.80355 6.16667 3.8335 5.19662 3.8335 4Z" fill="#808080"/>
<path fill-rule="evenodd" clip-rule="evenodd" d="M4.00016 8.16667C2.25126 8.16667 0.833496 9.58443 0.833496 11.3333C0.833496 13.0822 2.25126 14.5 4.00016 14.5H8.00016C9.74906 14.5 11.1668 13.0822 11.1668 11.3333C11.1668 9.58443 9.74906 8.16667 8.00016 8.16667H4.00016ZM1.8335 11.3333C1.8335 10.1367 2.80355 9.16667 4.00016 9.16667H8.00016C9.19678 9.16667 10.1668 10.1367 10.1668 11.3333C10.1668 12.53 9.19678 13.5 8.00016 13.5H4.00016C2.80355 13.5 1.8335 12.53 1.8335 11.3333Z" fill="#808080"/>
</svg>
