<svg width="20" height="20" viewBox="0 0 20 20" fill="none" xmlns="http://www.w3.org/2000/svg">
<path fill-rule="evenodd" clip-rule="evenodd" d="M13.3774 3.8398C13.3774 2.57415 14.4035 1.54814 15.6691 1.54814C16.9348 1.54814 17.9608 2.57415 17.9608 3.8398C17.9608 5.10546 16.9348 6.13147 15.6691 6.13147C14.4035 6.13147 13.3774 5.10546 13.3774 3.8398ZM15.6691 2.79814C15.0938 2.79814 14.6274 3.26451 14.6274 3.8398C14.6274 4.4151 15.0938 4.88147 15.6691 4.88147C16.2444 4.88147 16.7108 4.4151 16.7108 3.8398C16.7108 3.26451 16.2444 2.79814 15.6691 2.79814Z" fill="#808080"/>
<path fill-rule="evenodd" clip-rule="evenodd" d="M18.2977 6.91666C18.1797 6.56725 17.7366 6.48043 17.4232 6.67479C17.1801 6.82553 17.0511 7.12478 17.1397 7.39674C18.0102 10.0676 17.3842 13.1198 15.2618 15.2423C14.3967 16.1073 13.0225 16.9322 11.4874 17.2994C9.96106 17.6646 8.32216 17.5683 6.86661 16.6688L6.82666 16.644C6.6875 16.5578 6.55006 16.4726 6.42764 16.4241C6.20822 16.3372 6.01365 16.3078 5.77836 16.326C5.64743 16.3361 5.51128 16.3716 5.38068 16.4057L5.34633 16.4146C4.81365 16.5527 4.4446 16.648 4.16095 16.7015C3.87439 16.7555 3.74567 16.7516 3.67797 16.7378C3.26841 16.6545 2.94832 16.3344 2.86497 15.9248C2.85119 15.8571 2.8473 15.7284 2.90134 15.4419C2.95483 15.1582 3.05013 14.7892 3.1882 14.2565L3.19713 14.2221C3.23119 14.0915 3.26672 13.9551 3.2768 13.8238C3.29487 13.5882 3.265 13.3922 3.17758 13.1727C3.12871 13.05 3.0434 12.9131 2.95723 12.7748L2.93257 12.7352C2.02766 11.2791 1.91537 9.6585 2.27082 8.14607C2.62843 6.62445 3.45328 5.2483 4.36054 4.34103C6.45207 2.2495 9.44649 1.61115 12.0892 2.42599C12.3625 2.51026 12.6597 2.37631 12.8065 2.13088C12.9959 1.81437 12.9019 1.37296 12.5506 1.26048C9.4571 0.269909 5.93168 1.00213 3.47666 3.45715C2.41027 4.52354 1.46648 6.10487 1.05397 7.86009C0.639299 9.6245 0.755402 11.6001 1.87088 13.395C1.92863 13.488 1.96545 13.5473 1.99172 13.5921C2.0091 13.6218 2.01599 13.6354 2.01762 13.6386C2.02904 13.6678 2.03074 13.6787 2.031 13.6804C2.03127 13.6822 2.03304 13.6936 2.03056 13.7268C2.0302 13.7294 2.0285 13.7403 2.02287 13.7652C2.01402 13.8043 2.00074 13.8558 1.97818 13.9429L1.97246 13.9649C1.84149 14.4702 1.73522 14.8802 1.67299 15.2102C1.6104 15.5421 1.57701 15.8642 1.64008 16.1741C1.82345 17.0752 2.52764 17.7794 3.42869 17.9627C3.73856 18.0258 4.06067 17.9924 4.39258 17.9298C4.72257 17.8676 5.13248 17.7613 5.63775 17.6304L5.65995 17.6246C5.74695 17.6021 5.79851 17.5888 5.83768 17.5799C5.86255 17.5743 5.87346 17.5726 5.87606 17.5722C5.91063 17.5696 5.9222 17.5716 5.9222 17.5716C5.9222 17.5716 5.93417 17.5734 5.9637 17.5849C5.96699 17.5865 5.98096 17.5936 6.01084 17.611C6.05608 17.6374 6.11596 17.6743 6.20949 17.7321C8.01212 18.8461 10.0095 18.9382 11.7782 18.5151C13.5382 18.0941 15.1176 17.1542 16.1457 16.1261C18.6366 13.6352 19.354 10.0423 18.2977 6.91666Z" fill="#808080"/>
<path d="M7.3357 9.67315C7.3357 10.1334 6.9626 10.5065 6.50237 10.5065C6.04213 10.5065 5.66903 10.1334 5.66903 9.67315C5.66903 9.21291 6.04213 8.83982 6.50237 8.83982C6.9626 8.83982 7.3357 9.21291 7.3357 9.67315Z" fill="#808080"/>
<path d="M10.669 9.67315C10.669 10.1334 10.2959 10.5065 9.8357 10.5065C9.37546 10.5065 9.00237 10.1334 9.00237 9.67315C9.00237 9.21291 9.37546 8.83982 9.8357 8.83982C10.2959 8.83982 10.669 9.21291 10.669 9.67315Z" fill="#808080"/>
<path d="M14.0024 9.67315C14.0024 10.1334 13.6293 10.5065 13.169 10.5065C12.7088 10.5065 12.3357 10.1334 12.3357 9.67315C12.3357 9.21291 12.7088 8.83982 13.169 8.83982C13.6293 8.83982 14.0024 9.21291 14.0024 9.67315Z" fill="#808080"/>
</svg>
