<svg width="20" height="20" viewBox="0 0 20 20" fill="none" xmlns="http://www.w3.org/2000/svg">
<g clip-path="url(#clip0_2038_404)">
<path d="M11.9667 3.3989L12.7391 2.6265C14.0188 1.34675 16.0937 1.34675 17.3735 2.6265C18.6532 3.90626 18.6532 5.98115 17.3735 7.2609L16.6011 8.0333M11.9667 3.3989C11.9667 3.3989 12.0632 5.04025 13.5115 6.4885C14.9597 7.93675 16.6011 8.0333 16.6011 8.0333M11.9667 3.3989L4.86565 10.4999C4.38468 10.9809 4.14419 11.2214 3.93737 11.4865C3.6934 11.7993 3.48424 12.1378 3.31358 12.4959C3.1689 12.7994 3.06136 13.1221 2.84626 13.7674L1.9348 16.5018M16.6011 8.0333L9.50004 15.1343C9.01907 15.6153 8.77859 15.8558 8.51343 16.0626C8.20064 16.3066 7.8622 16.5157 7.50411 16.6864C7.20054 16.8311 6.87789 16.9386 6.23261 17.1537L3.49823 18.0652M3.49823 18.0652L2.82983 18.288C2.51228 18.3938 2.16217 18.3112 1.92549 18.0745C1.6888 17.8378 1.60615 17.4877 1.712 17.1702L1.9348 16.5018M3.49823 18.0652L1.9348 16.5018" stroke="#2296B7" stroke-width="1.5"/>
</g>
<defs>
<clipPath id="clip0_2038_404">
<rect width="20" height="20" fill="white"/>
</clipPath>
</defs>
</svg>
