<svg width="12" height="15" viewBox="0 0 12 15" fill="none" xmlns="http://www.w3.org/2000/svg">
<path fill-rule="evenodd" clip-rule="evenodd" d="M6.00016 0.833328C4.25126 0.833328 2.8335 2.25109 2.8335 3.99999C2.8335 5.7489 4.25126 7.16666 6.00016 7.16666C7.74906 7.16666 9.16683 5.7489 9.16683 3.99999C9.16683 2.25109 7.74906 0.833328 6.00016 0.833328ZM3.8335 3.99999C3.8335 2.80338 4.80355 1.83333 6.00016 1.83333C7.19678 1.83333 8.16683 2.80338 8.16683 3.99999C8.16683 5.19661 7.19678 6.16666 6.00016 6.16666C4.80355 6.16666 3.8335 5.19661 3.8335 3.99999Z" fill="#808080"/>
<path fill-rule="evenodd" clip-rule="evenodd" d="M4.00016 8.16666C2.25126 8.16666 0.833496 9.58443 0.833496 11.3333C0.833496 13.0822 2.25126 14.5 4.00016 14.5H8.00016C9.74906 14.5 11.1668 13.0822 11.1668 11.3333C11.1668 9.58443 9.74906 8.16666 8.00016 8.16666H4.00016ZM1.8335 11.3333C1.8335 10.1367 2.80355 9.16666 4.00016 9.16666H8.00016C9.19678 9.16666 10.1668 10.1367 10.1668 11.3333C10.1668 12.5299 9.19678 13.5 8.00016 13.5H4.00016C2.80355 13.5 1.8335 12.5299 1.8335 11.3333Z" fill="#808080"/>
</svg>
