<svg width="320" height="202" viewBox="0 0 320 202" fill="none" xmlns="http://www.w3.org/2000/svg">
<path d="M217.419 24.352C215.47 23.5402 213.323 23.3268 211.253 23.739C209.182 24.1512 207.281 25.1704 205.792 26.6667L192 40.4587L167.541 16C165.541 14.0003 162.828 12.877 160 12.877C157.172 12.877 154.459 14.0003 152.459 16L128 40.4587L114.208 26.6667C112.716 25.1754 110.816 24.1598 108.747 23.7485C106.678 23.3371 104.534 23.5483 102.585 24.3554C100.636 25.1626 98.9705 26.5294 97.7984 28.2831C96.6263 30.0368 96.0005 32.0987 96 34.208V90.6667C96.0085 97.7365 98.8207 104.514 103.82 109.514C108.819 114.513 115.597 117.325 122.667 117.333H197.333C204.403 117.325 211.181 114.513 216.18 109.514C221.179 104.514 223.992 97.7365 224 90.6667V34.208C224.001 32.0985 223.376 30.0362 222.204 28.2819C221.033 26.5275 219.367 25.1599 217.419 24.352ZM213.333 90.6667C213.333 94.9101 211.648 98.9798 208.647 101.98C205.646 104.981 201.577 106.667 197.333 106.667H122.667C118.423 106.667 114.354 104.981 111.353 101.98C108.352 98.9798 106.667 94.9101 106.667 90.6667V34.208L124.229 51.7707C125.229 52.7705 126.586 53.3322 128 53.3322C129.414 53.3322 130.771 52.7705 131.771 51.7707L160 23.5413L188.229 51.7707C189.229 52.7705 190.586 53.3322 192 53.3322C193.414 53.3322 194.771 52.7705 195.771 51.7707L213.333 34.208V90.6667Z" fill="url(#paint0_linear_692_8563)"/>
<path d="M106.377 143H109.617V154.36H116.637V157H106.377V143ZM123.269 157.16C122.136 157.16 121.116 156.927 120.209 156.46C119.316 155.98 118.616 155.32 118.109 154.48C117.602 153.64 117.349 152.687 117.349 151.62C117.349 150.553 117.602 149.6 118.109 148.76C118.616 147.92 119.316 147.267 120.209 146.8C121.116 146.32 122.136 146.08 123.269 146.08C124.402 146.08 125.416 146.32 126.309 146.8C127.202 147.267 127.902 147.92 128.409 148.76C128.916 149.6 129.169 150.553 129.169 151.62C129.169 152.687 128.916 153.64 128.409 154.48C127.902 155.32 127.202 155.98 126.309 156.46C125.416 156.927 124.402 157.16 123.269 157.16ZM123.269 154.6C124.069 154.6 124.722 154.333 125.229 153.8C125.749 153.253 126.009 152.527 126.009 151.62C126.009 150.713 125.749 149.993 125.229 149.46C124.722 148.913 124.069 148.64 123.269 148.64C122.469 148.64 121.809 148.913 121.289 149.46C120.769 149.993 120.509 150.713 120.509 151.62C120.509 152.527 120.769 153.253 121.289 153.8C121.809 154.333 122.469 154.6 123.269 154.6ZM136.374 157.16C135.241 157.16 134.221 156.927 133.314 156.46C132.421 155.98 131.721 155.32 131.214 154.48C130.708 153.64 130.454 152.687 130.454 151.62C130.454 150.553 130.708 149.6 131.214 148.76C131.721 147.92 132.421 147.267 133.314 146.8C134.221 146.32 135.241 146.08 136.374 146.08C137.508 146.08 138.521 146.32 139.414 146.8C140.308 147.267 141.008 147.92 141.514 148.76C142.021 149.6 142.274 150.553 142.274 151.62C142.274 152.687 142.021 153.64 141.514 154.48C141.008 155.32 140.308 155.98 139.414 156.46C138.521 156.927 137.508 157.16 136.374 157.16ZM136.374 154.6C137.174 154.6 137.828 154.333 138.334 153.8C138.854 153.253 139.114 152.527 139.114 151.62C139.114 150.713 138.854 149.993 138.334 149.46C137.828 148.913 137.174 148.64 136.374 148.64C135.574 148.64 134.914 148.913 134.394 149.46C133.874 149.993 133.614 150.713 133.614 151.62C133.614 152.527 133.874 153.253 134.394 153.8C134.914 154.333 135.574 154.6 136.374 154.6ZM154.747 146.24L150.207 157H146.987L142.467 146.24H145.687L148.667 153.56L151.747 146.24H154.747ZM159 147.66C159.373 147.14 159.873 146.747 160.5 146.48C161.14 146.213 161.873 146.08 162.7 146.08V148.96C162.353 148.933 162.12 148.92 162 148.92C161.107 148.92 160.407 149.173 159.9 149.68C159.393 150.173 159.14 150.92 159.14 151.92V157H156.02V146.24H159V147.66ZM181.357 154.4V157H170.517V143H181.097V145.6H173.737V148.64H180.237V151.16H173.737V154.4H181.357ZM183.715 142.16H186.835V157H183.715V142.16ZM189.731 146.24H192.851V157H189.731V146.24ZM191.291 144.74C190.718 144.74 190.251 144.573 189.891 144.24C189.531 143.907 189.351 143.493 189.351 143C189.351 142.507 189.531 142.093 189.891 141.76C190.251 141.427 190.718 141.26 191.291 141.26C191.864 141.26 192.331 141.42 192.691 141.74C193.051 142.06 193.231 142.46 193.231 142.94C193.231 143.46 193.051 143.893 192.691 144.24C192.331 144.573 191.864 144.74 191.291 144.74ZM202.687 156.48C202.38 156.707 202 156.88 201.547 157C201.107 157.107 200.64 157.16 200.147 157.16C198.867 157.16 197.873 156.833 197.167 156.18C196.473 155.527 196.127 154.567 196.127 153.3V148.88H194.467V146.48H196.127V143.86H199.247V146.48H201.927V148.88H199.247V153.26C199.247 153.713 199.36 154.067 199.587 154.32C199.827 154.56 200.16 154.68 200.587 154.68C201.08 154.68 201.5 154.547 201.847 154.28L202.687 156.48ZM214.646 151.66C214.646 151.7 214.626 151.98 214.586 152.5H206.446C206.593 153.167 206.939 153.693 207.486 154.08C208.033 154.467 208.713 154.66 209.526 154.66C210.086 154.66 210.579 154.58 211.006 154.42C211.446 154.247 211.853 153.98 212.226 153.62L213.886 155.42C212.873 156.58 211.393 157.16 209.446 157.16C208.233 157.16 207.159 156.927 206.226 156.46C205.293 155.98 204.573 155.32 204.066 154.48C203.559 153.64 203.306 152.687 203.306 151.62C203.306 150.567 203.553 149.62 204.046 148.78C204.553 147.927 205.239 147.267 206.106 146.8C206.986 146.32 207.966 146.08 209.046 146.08C210.099 146.08 211.053 146.307 211.906 146.76C212.759 147.213 213.426 147.867 213.906 148.72C214.399 149.56 214.646 150.54 214.646 151.66ZM209.066 148.44C208.359 148.44 207.766 148.64 207.286 149.04C206.806 149.44 206.513 149.987 206.406 150.68H211.706C211.599 150 211.306 149.46 210.826 149.06C210.346 148.647 209.759 148.44 209.066 148.44Z" fill="white"/>
<path d="M35.0797 175.25L31.1047 182.612C30.8214 183.137 30.4881 183.529 30.1047 183.787C29.7297 184.037 29.3172 184.163 28.8672 184.163C28.5339 184.163 28.1756 184.083 27.7922 183.925L28.0547 183.175C28.3547 183.292 28.6297 183.35 28.8797 183.35C29.4547 183.35 29.9256 183.037 30.2922 182.412L30.5422 181.987L26.9922 175.25H27.9797L31.0297 181.175L34.1547 175.25H35.0797ZM40.2364 180.6C41.128 180.808 41.5739 181.346 41.5739 182.212C41.5739 182.787 41.3614 183.229 40.9364 183.537C40.5114 183.846 39.878 184 39.0364 184H36.0489V177.425H38.9489C39.6989 177.425 40.2864 177.571 40.7114 177.862C41.1364 178.154 41.3489 178.571 41.3489 179.112C41.3489 179.471 41.2489 179.779 41.0489 180.037C40.8572 180.287 40.5864 180.475 40.2364 180.6ZM36.9114 180.35H38.8864C39.3947 180.35 39.7822 180.254 40.0489 180.062C40.3239 179.871 40.4614 179.592 40.4614 179.225C40.4614 178.858 40.3239 178.583 40.0489 178.4C39.7822 178.217 39.3947 178.125 38.8864 178.125H36.9114V180.35ZM38.9989 183.3C39.5655 183.3 39.9905 183.208 40.2739 183.025C40.5572 182.842 40.6989 182.554 40.6989 182.163C40.6989 181.771 40.5697 181.483 40.3114 181.3C40.053 181.108 39.6447 181.012 39.0864 181.012H36.9114V183.3H38.9989ZM49.4039 180.987H43.9039C43.9539 181.671 44.2164 182.225 44.6914 182.65C45.1664 183.067 45.7664 183.275 46.4914 183.275C46.8997 183.275 47.2747 183.204 47.6164 183.062C47.958 182.912 48.2539 182.696 48.5039 182.412L49.0039 182.987C48.7122 183.337 48.3455 183.604 47.9039 183.787C47.4705 183.971 46.9914 184.063 46.4664 184.063C45.7914 184.063 45.1914 183.921 44.6664 183.637C44.1497 183.346 43.7455 182.946 43.4539 182.438C43.1622 181.929 43.0164 181.354 43.0164 180.712C43.0164 180.071 43.1539 179.496 43.4289 178.987C43.7122 178.479 44.0955 178.083 44.5789 177.8C45.0705 177.517 45.6205 177.375 46.2289 177.375C46.8372 177.375 47.383 177.517 47.8664 177.8C48.3497 178.083 48.7289 178.479 49.0039 178.987C49.2789 179.487 49.4164 180.062 49.4164 180.712L49.4039 180.987ZM46.2289 178.137C45.5955 178.137 45.0622 178.342 44.6289 178.75C44.2039 179.15 43.9622 179.675 43.9039 180.325H48.5664C48.508 179.675 48.2622 179.15 47.8289 178.75C47.4039 178.342 46.8705 178.137 46.2289 178.137ZM56.6216 177.425V184H55.7341V178.212H52.5841L52.4966 179.837C52.43 181.204 52.2716 182.254 52.0216 182.987C51.7716 183.721 51.3258 184.088 50.6841 184.088C50.5091 184.088 50.2966 184.054 50.0466 183.987L50.1091 183.225C50.2591 183.258 50.3633 183.275 50.4216 183.275C50.7633 183.275 51.0216 183.117 51.1966 182.8C51.3716 182.483 51.4883 182.092 51.5466 181.625C51.605 181.158 51.655 180.542 51.6966 179.775L51.8091 177.425H56.6216ZM59.1446 177.425H60.0321V182.65L64.4196 177.425H65.2071V184H64.3196V178.775L59.9446 184H59.1446V177.425ZM72.713 177.425V184H71.8255V181.262C71.0672 181.596 70.3214 181.762 69.588 181.762C68.7964 181.762 68.1797 181.583 67.738 181.225C67.2964 180.858 67.0755 180.312 67.0755 179.587V177.425H67.963V179.537C67.963 180.029 68.1214 180.404 68.438 180.662C68.7547 180.912 69.1922 181.037 69.7505 181.037C70.3672 181.037 71.0589 180.875 71.8255 180.55V177.425H72.713ZM78.0584 179.75C78.8834 179.758 79.5084 179.942 79.9334 180.3C80.3668 180.658 80.5834 181.175 80.5834 181.85C80.5834 182.55 80.3501 183.087 79.8834 183.462C79.4251 183.837 78.7584 184.021 77.8834 184.013L75.2334 184V177.425H76.1209V179.725L78.0584 179.75ZM77.8334 183.337C78.4418 183.346 78.9001 183.225 79.2084 182.975C79.5251 182.717 79.6834 182.342 79.6834 181.85C79.6834 181.367 79.5293 181.008 79.2209 180.775C78.9126 180.542 78.4501 180.421 77.8334 180.412L76.1209 180.387V183.312L77.8334 183.337ZM86.2427 178.212H83.7552V184H82.8677V178.212H80.3802V177.425H86.2427V178.212ZM92.9708 180.987H87.4708C87.5208 181.671 87.7833 182.225 88.2583 182.65C88.7333 183.067 89.3333 183.275 90.0583 183.275C90.4666 183.275 90.8416 183.204 91.1833 183.062C91.5249 182.912 91.8208 182.696 92.0708 182.412L92.5708 182.987C92.2791 183.337 91.9124 183.604 91.4708 183.787C91.0374 183.971 90.5583 184.063 90.0333 184.063C89.3583 184.063 88.7583 183.921 88.2333 183.637C87.7166 183.346 87.3124 182.946 87.0208 182.438C86.7291 181.929 86.5833 181.354 86.5833 180.712C86.5833 180.071 86.7208 179.496 86.9958 178.987C87.2791 178.479 87.6624 178.083 88.1458 177.8C88.6374 177.517 89.1874 177.375 89.7958 177.375C90.4041 177.375 90.9499 177.517 91.4333 177.8C91.9166 178.083 92.2958 178.479 92.5708 178.987C92.8458 179.487 92.9833 180.062 92.9833 180.712L92.9708 180.987ZM89.7958 178.137C89.1624 178.137 88.6291 178.342 88.1958 178.75C87.7708 179.15 87.5291 179.675 87.4708 180.325H92.1333C92.0749 179.675 91.8291 179.15 91.3958 178.75C90.9708 178.342 90.4374 178.137 89.7958 178.137ZM103.594 177.425V184H102.707V178.212H99.5568L99.4693 179.837C99.4026 181.204 99.2443 182.254 98.9943 182.987C98.7443 183.721 98.2985 184.088 97.6568 184.088C97.4818 184.088 97.2693 184.054 97.0193 183.987L97.0818 183.225C97.2318 183.258 97.336 183.275 97.3943 183.275C97.736 183.275 97.9943 183.117 98.1693 182.8C98.3443 182.483 98.461 182.092 98.5193 181.625C98.5776 181.158 98.6276 180.542 98.6693 179.775L98.7818 177.425H103.594ZM106.117 177.425H107.005V182.65L111.392 177.425H112.18V184H111.292V178.775L106.917 184H106.117V177.425ZM122.073 177.425V184H121.261V178.8L118.598 183.2H118.198L115.536 178.787V184H114.723V177.425H115.623L118.411 182.163L121.248 177.425H122.073ZM124.599 177.425H125.486V182.65L129.874 177.425H130.661V184H129.774V178.775L125.399 184H124.599V177.425ZM137.83 178.212H135.342V184H134.455V178.212H131.967V177.425H137.83V178.212ZM141.875 179.75C142.7 179.758 143.33 179.942 143.763 180.3C144.196 180.658 144.413 181.175 144.413 181.85C144.413 182.55 144.18 183.087 143.713 183.462C143.246 183.837 142.58 184.021 141.713 184.013L139.113 184V177.425H140V179.725L141.875 179.75ZM145.513 177.425H146.4V184H145.513V177.425ZM141.663 183.337C142.271 183.346 142.73 183.225 143.038 182.975C143.355 182.717 143.513 182.342 143.513 181.85C143.513 181.367 143.359 181.008 143.05 180.775C142.742 180.542 142.28 180.421 141.663 180.412L140 180.387V183.312L141.663 183.337ZM152.199 177.425H153.086V182.65L157.474 177.425H158.261V184H157.374V178.775L152.999 184H152.199V177.425ZM169.976 177.425V184H169.089V178.212H164.964V184H164.076V177.425H169.976ZM175.212 184.063C174.578 184.063 174.007 183.921 173.499 183.637C172.991 183.346 172.591 182.946 172.299 182.438C172.007 181.929 171.862 181.354 171.862 180.712C171.862 180.071 172.007 179.496 172.299 178.987C172.591 178.479 172.991 178.083 173.499 177.8C174.007 177.517 174.578 177.375 175.212 177.375C175.845 177.375 176.416 177.517 176.924 177.8C177.432 178.083 177.828 178.479 178.112 178.987C178.403 179.496 178.549 180.071 178.549 180.712C178.549 181.354 178.403 181.929 178.112 182.438C177.828 182.946 177.432 183.346 176.924 183.637C176.416 183.921 175.845 184.063 175.212 184.063ZM175.212 183.275C175.678 183.275 176.095 183.171 176.462 182.962C176.837 182.746 177.128 182.442 177.337 182.05C177.545 181.658 177.649 181.212 177.649 180.712C177.649 180.212 177.545 179.767 177.337 179.375C177.128 178.983 176.837 178.683 176.462 178.475C176.095 178.258 175.678 178.15 175.212 178.15C174.745 178.15 174.324 178.258 173.949 178.475C173.582 178.683 173.291 178.983 173.074 179.375C172.866 179.767 172.762 180.212 172.762 180.712C172.762 181.212 172.866 181.658 173.074 182.05C173.291 182.442 173.582 182.746 173.949 182.962C174.324 183.171 174.745 183.275 175.212 183.275ZM185.784 177.425V184H184.897V178.212H181.747L181.659 179.837C181.593 181.204 181.434 182.254 181.184 182.987C180.934 183.721 180.488 184.088 179.847 184.088C179.672 184.088 179.459 184.054 179.209 183.987L179.272 183.225C179.422 183.258 179.526 183.275 179.584 183.275C179.926 183.275 180.184 183.117 180.359 182.8C180.534 182.483 180.651 182.092 180.709 181.625C180.768 181.158 180.818 180.542 180.859 179.775L180.972 177.425H185.784ZM193.895 177.425L190.607 184.788C190.341 185.404 190.032 185.842 189.682 186.1C189.332 186.358 188.911 186.488 188.42 186.488C188.103 186.488 187.807 186.438 187.532 186.338C187.257 186.238 187.02 186.088 186.82 185.888L187.232 185.225C187.566 185.558 187.966 185.725 188.432 185.725C188.732 185.725 188.986 185.642 189.195 185.475C189.411 185.308 189.611 185.025 189.795 184.625L190.082 183.987L187.145 177.425H188.07L190.545 183.012L193.02 177.425H193.895ZM200.24 177.425V184H199.352V181.262C198.594 181.596 197.848 181.762 197.115 181.762C196.323 181.762 195.707 181.583 195.265 181.225C194.823 180.858 194.602 180.312 194.602 179.587V177.425H195.49V179.537C195.49 180.029 195.648 180.404 195.965 180.662C196.282 180.912 196.719 181.037 197.277 181.037C197.894 181.037 198.586 180.875 199.352 180.55V177.425H200.24ZM202.76 177.425H203.648V182.65L208.035 177.425H208.823V184H207.935V178.775L203.56 184H202.76V177.425ZM215.991 178.212H213.504V184H212.616V178.212H210.129V177.425H215.991V178.212ZM222.719 180.987H217.219C217.269 181.671 217.532 182.225 218.007 182.65C218.482 183.067 219.082 183.275 219.807 183.275C220.215 183.275 220.59 183.204 220.932 183.062C221.273 182.912 221.569 182.696 221.819 182.412L222.319 182.987C222.028 183.337 221.661 183.604 221.219 183.787C220.786 183.971 220.307 184.063 219.782 184.063C219.107 184.063 218.507 183.921 217.982 183.637C217.465 183.346 217.061 182.946 216.769 182.438C216.478 181.929 216.332 181.354 216.332 180.712C216.332 180.071 216.469 179.496 216.744 178.987C217.028 178.479 217.411 178.083 217.894 177.8C218.386 177.517 218.936 177.375 219.544 177.375C220.153 177.375 220.698 177.517 221.182 177.8C221.665 178.083 222.044 178.479 222.319 178.987C222.594 179.487 222.732 180.062 222.732 180.712L222.719 180.987ZM219.544 178.137C218.911 178.137 218.378 178.342 217.944 178.75C217.519 179.15 217.278 179.675 217.219 180.325H221.882C221.823 179.675 221.578 179.15 221.144 178.75C220.719 178.342 220.186 178.137 219.544 178.137ZM235.318 177.425V184H234.505V178.8L231.843 183.2H231.443L228.78 178.787V184H227.968V177.425H228.868L231.655 182.163L234.493 177.425H235.318ZM240.106 177.375C240.964 177.375 241.622 177.592 242.081 178.025C242.539 178.45 242.768 179.083 242.768 179.925V184H241.918V182.975C241.718 183.317 241.422 183.583 241.031 183.775C240.647 183.967 240.189 184.063 239.656 184.063C238.922 184.063 238.339 183.888 237.906 183.537C237.472 183.187 237.256 182.725 237.256 182.15C237.256 181.592 237.456 181.142 237.856 180.8C238.264 180.458 238.91 180.287 239.793 180.287H241.881V179.887C241.881 179.321 241.722 178.892 241.406 178.6C241.089 178.3 240.627 178.15 240.018 178.15C239.602 178.15 239.202 178.221 238.818 178.362C238.435 178.496 238.106 178.683 237.831 178.925L237.431 178.262C237.764 177.979 238.164 177.762 238.631 177.612C239.097 177.454 239.589 177.375 240.106 177.375ZM239.793 183.362C240.293 183.362 240.722 183.25 241.081 183.025C241.439 182.792 241.706 182.458 241.881 182.025V180.95H239.818C238.693 180.95 238.131 181.342 238.131 182.125C238.131 182.508 238.277 182.812 238.568 183.037C238.86 183.254 239.268 183.362 239.793 183.362ZM247.518 181.075H246.018V184H245.131V177.425H246.018V180.312H247.531L249.843 177.425H250.806L248.218 180.612L250.993 184H249.943L247.518 181.075ZM254.912 184.063C254.262 184.063 253.679 183.921 253.162 183.637C252.654 183.354 252.254 182.958 251.962 182.45C251.67 181.933 251.525 181.354 251.525 180.712C251.525 180.071 251.67 179.496 251.962 178.987C252.254 178.479 252.654 178.083 253.162 177.8C253.679 177.517 254.262 177.375 254.912 177.375C255.479 177.375 255.983 177.487 256.425 177.712C256.875 177.929 257.229 178.25 257.487 178.675L256.825 179.125C256.608 178.8 256.333 178.558 256 178.4C255.666 178.233 255.304 178.15 254.912 178.15C254.437 178.15 254.008 178.258 253.625 178.475C253.25 178.683 252.954 178.983 252.737 179.375C252.529 179.767 252.425 180.212 252.425 180.712C252.425 181.221 252.529 181.671 252.737 182.062C252.954 182.446 253.25 182.746 253.625 182.962C254.008 183.171 254.437 183.275 254.912 183.275C255.304 183.275 255.666 183.196 256 183.037C256.333 182.879 256.608 182.637 256.825 182.312L257.487 182.762C257.229 183.187 256.875 183.512 256.425 183.737C255.975 183.954 255.47 184.063 254.912 184.063ZM259.206 177.425H260.093V182.65L264.481 177.425H265.268V184H264.381V178.775L260.006 184H259.206V177.425ZM275.162 177.425V184H274.349V178.8L271.687 183.2H271.287L268.624 178.787V184H267.812V177.425H268.712L271.499 182.163L274.337 177.425H275.162ZM283.275 177.425L279.987 184.788C279.72 185.404 279.412 185.842 279.062 186.1C278.712 186.358 278.291 186.488 277.8 186.488C277.483 186.488 277.187 186.438 276.912 186.338C276.637 186.238 276.4 186.088 276.2 185.888L276.612 185.225C276.945 185.558 277.345 185.725 277.812 185.725C278.112 185.725 278.366 185.642 278.575 185.475C278.791 185.308 278.991 185.025 279.175 184.625L279.462 183.987L276.525 177.425H277.45L279.925 183.012L282.4 177.425H283.275ZM292.007 177.425V184H291.195V178.8L288.532 183.2H288.132L285.47 178.787V184H284.657V177.425H285.557L288.345 182.163L291.182 177.425H292.007ZM43.432 192.425V199H42.5445V193.212H38.4195V199H37.532V192.425H43.432ZM49.3424 192.375C49.959 192.375 50.5174 192.517 51.0174 192.8C51.5174 193.075 51.909 193.467 52.1924 193.975C52.4757 194.483 52.6174 195.062 52.6174 195.712C52.6174 196.371 52.4757 196.954 52.1924 197.462C51.909 197.971 51.5174 198.367 51.0174 198.65C50.5257 198.925 49.9674 199.063 49.3424 199.063C48.809 199.063 48.3257 198.954 47.8924 198.737C47.4674 198.512 47.1174 198.187 46.8424 197.762V201.425H45.9549V192.425H46.8049V193.725C47.0715 193.292 47.4215 192.958 47.8549 192.725C48.2965 192.492 48.7924 192.375 49.3424 192.375ZM49.2799 198.275C49.7382 198.275 50.1549 198.171 50.5299 197.962C50.9049 197.746 51.1965 197.442 51.4049 197.05C51.6215 196.658 51.7299 196.212 51.7299 195.712C51.7299 195.212 51.6215 194.771 51.4049 194.387C51.1965 193.996 50.9049 193.692 50.5299 193.475C50.1549 193.258 49.7382 193.15 49.2799 193.15C48.8132 193.15 48.3924 193.258 48.0174 193.475C47.6507 193.692 47.359 193.996 47.1424 194.387C46.934 194.771 46.8299 195.212 46.8299 195.712C46.8299 196.212 46.934 196.658 47.1424 197.05C47.359 197.442 47.6507 197.746 48.0174 197.962C48.3924 198.171 48.8132 198.275 49.2799 198.275ZM60.2742 195.987H54.7742C54.8242 196.671 55.0867 197.225 55.5617 197.65C56.0367 198.067 56.6367 198.275 57.3617 198.275C57.7701 198.275 58.1451 198.204 58.4867 198.062C58.8284 197.912 59.1242 197.696 59.3742 197.412L59.8742 197.987C59.5826 198.337 59.2159 198.604 58.7742 198.787C58.3409 198.971 57.8617 199.063 57.3367 199.063C56.6617 199.063 56.0617 198.921 55.5367 198.637C55.0201 198.346 54.6159 197.946 54.3242 197.438C54.0326 196.929 53.8867 196.354 53.8867 195.712C53.8867 195.071 54.0242 194.496 54.2992 193.987C54.5826 193.479 54.9659 193.083 55.4492 192.8C55.9409 192.517 56.4909 192.375 57.0992 192.375C57.7076 192.375 58.2534 192.517 58.7367 192.8C59.2201 193.083 59.5992 193.479 59.8742 193.987C60.1492 194.487 60.2867 195.062 60.2867 195.712L60.2742 195.987ZM57.0992 193.137C56.4659 193.137 55.9326 193.342 55.4992 193.75C55.0742 194.15 54.8326 194.675 54.7742 195.325H59.4367C59.3784 194.675 59.1326 194.15 58.6992 193.75C58.2742 193.342 57.7409 193.137 57.0992 193.137ZM62.2513 192.425H63.1388V197.65L67.5263 192.425H68.3138V199H67.4263V193.775L63.0513 199H62.2513V192.425ZM78.2072 192.425V199H77.3947V193.8L74.7322 198.2H74.3322L71.6697 193.787V199H70.8572V192.425H71.7572L74.5447 197.163L77.3822 192.425H78.2072ZM86.3202 192.425L83.0327 199.788C82.766 200.404 82.4577 200.842 82.1077 201.1C81.7577 201.358 81.3369 201.488 80.8452 201.488C80.5285 201.488 80.2327 201.438 79.9577 201.338C79.6827 201.238 79.4452 201.088 79.2452 200.888L79.6577 200.225C79.991 200.558 80.391 200.725 80.8577 200.725C81.1577 200.725 81.4119 200.642 81.6202 200.475C81.8369 200.308 82.0369 200.025 82.2202 199.625L82.5077 198.987L79.5702 192.425H80.4952L82.9702 198.012L85.4452 192.425H86.3202ZM96.7779 192.425V199H87.7029V192.425H88.5904V198.225H91.8154V192.425H92.7029V198.225H95.8904V192.425H96.7779ZM97.7904 198.225V200.438H96.9529V199H95.8404V198.225H97.7904ZM105.062 195.987H99.5618C99.6118 196.671 99.8743 197.225 100.349 197.65C100.824 198.067 101.424 198.275 102.149 198.275C102.558 198.275 102.933 198.204 103.274 198.062C103.616 197.912 103.912 197.696 104.162 197.412L104.662 197.987C104.37 198.337 104.003 198.604 103.562 198.787C103.128 198.971 102.649 199.063 102.124 199.063C101.449 199.063 100.849 198.921 100.324 198.637C99.8076 198.346 99.4035 197.946 99.1118 197.438C98.8201 196.929 98.6743 196.354 98.6743 195.712C98.6743 195.071 98.8118 194.496 99.0868 193.987C99.3701 193.479 99.7535 193.083 100.237 192.8C100.728 192.517 101.278 192.375 101.887 192.375C102.495 192.375 103.041 192.517 103.524 192.8C104.008 193.083 104.387 193.479 104.662 193.987C104.937 194.487 105.074 195.062 105.074 195.712L105.062 195.987ZM101.887 193.137C101.253 193.137 100.72 193.342 100.287 193.75C99.8618 194.15 99.6201 194.675 99.5618 195.325H104.224C104.166 194.675 103.92 194.15 103.487 193.75C103.062 193.342 102.528 193.137 101.887 193.137ZM109.789 199.063C109.139 199.063 108.556 198.921 108.039 198.637C107.531 198.354 107.131 197.958 106.839 197.45C106.547 196.933 106.401 196.354 106.401 195.712C106.401 195.071 106.547 194.496 106.839 193.987C107.131 193.479 107.531 193.083 108.039 192.8C108.556 192.517 109.139 192.375 109.789 192.375C110.356 192.375 110.86 192.487 111.301 192.712C111.751 192.929 112.106 193.25 112.364 193.675L111.701 194.125C111.485 193.8 111.21 193.558 110.876 193.4C110.543 193.233 110.181 193.15 109.789 193.15C109.314 193.15 108.885 193.258 108.501 193.475C108.126 193.683 107.831 193.983 107.614 194.375C107.406 194.767 107.301 195.212 107.301 195.712C107.301 196.221 107.406 196.671 107.614 197.062C107.831 197.446 108.126 197.746 108.501 197.962C108.885 198.171 109.314 198.275 109.789 198.275C110.181 198.275 110.543 198.196 110.876 198.037C111.21 197.879 111.485 197.637 111.701 197.312L112.364 197.762C112.106 198.187 111.751 198.512 111.301 198.737C110.851 198.954 110.347 199.063 109.789 199.063ZM118.585 193.212H116.098V199H115.21V193.212H112.723V192.425H118.585V193.212ZM124.056 195.6C124.948 195.808 125.393 196.346 125.393 197.212C125.393 197.787 125.181 198.229 124.756 198.537C124.331 198.846 123.698 199 122.856 199H119.868V192.425H122.768C123.518 192.425 124.106 192.571 124.531 192.862C124.956 193.154 125.168 193.571 125.168 194.112C125.168 194.471 125.068 194.779 124.868 195.037C124.677 195.287 124.406 195.475 124.056 195.6ZM120.731 195.35H122.706C123.214 195.35 123.602 195.254 123.868 195.062C124.143 194.871 124.281 194.592 124.281 194.225C124.281 193.858 124.143 193.583 123.868 193.4C123.602 193.217 123.214 193.125 122.706 193.125H120.731V195.35ZM122.818 198.3C123.385 198.3 123.81 198.208 124.093 198.025C124.377 197.842 124.518 197.554 124.518 197.163C124.518 196.771 124.389 196.483 124.131 196.3C123.873 196.108 123.464 196.012 122.906 196.012H120.731V198.3H122.818ZM133.495 199.063C132.845 199.063 132.262 198.921 131.745 198.637C131.237 198.354 130.837 197.958 130.545 197.45C130.253 196.933 130.107 196.354 130.107 195.712C130.107 195.071 130.253 194.496 130.545 193.987C130.837 193.479 131.237 193.083 131.745 192.8C132.262 192.517 132.845 192.375 133.495 192.375C134.062 192.375 134.566 192.487 135.007 192.712C135.457 192.929 135.812 193.25 136.07 193.675L135.407 194.125C135.191 193.8 134.916 193.558 134.582 193.4C134.249 193.233 133.887 193.15 133.495 193.15C133.02 193.15 132.591 193.258 132.207 193.475C131.832 193.683 131.537 193.983 131.32 194.375C131.112 194.767 131.007 195.212 131.007 195.712C131.007 196.221 131.112 196.671 131.32 197.062C131.537 197.446 131.832 197.746 132.207 197.962C132.591 198.171 133.02 198.275 133.495 198.275C133.887 198.275 134.249 198.196 134.582 198.037C134.916 197.879 135.191 197.637 135.407 197.312L136.07 197.762C135.812 198.187 135.457 198.512 135.007 198.737C134.557 198.954 134.053 199.063 133.495 199.063ZM146.96 192.425V199H146.072V193.212H141.947V199H141.06V192.425H146.96ZM152.195 199.063C151.562 199.063 150.991 198.921 150.483 198.637C149.974 198.346 149.574 197.946 149.283 197.438C148.991 196.929 148.845 196.354 148.845 195.712C148.845 195.071 148.991 194.496 149.283 193.987C149.574 193.479 149.974 193.083 150.483 192.8C150.991 192.517 151.562 192.375 152.195 192.375C152.829 192.375 153.399 192.517 153.908 192.8C154.416 193.083 154.812 193.479 155.095 193.987C155.387 194.496 155.533 195.071 155.533 195.712C155.533 196.354 155.387 196.929 155.095 197.438C154.812 197.946 154.416 198.346 153.908 198.637C153.399 198.921 152.829 199.063 152.195 199.063ZM152.195 198.275C152.662 198.275 153.079 198.171 153.445 197.962C153.82 197.746 154.112 197.442 154.32 197.05C154.529 196.658 154.633 196.212 154.633 195.712C154.633 195.212 154.529 194.767 154.32 194.375C154.112 193.983 153.82 193.683 153.445 193.475C153.079 193.258 152.662 193.15 152.195 193.15C151.729 193.15 151.308 193.258 150.933 193.475C150.566 193.683 150.274 193.983 150.058 194.375C149.849 194.767 149.745 195.212 149.745 195.712C149.745 196.212 149.849 196.658 150.058 197.05C150.274 197.442 150.566 197.746 150.933 197.962C151.308 198.171 151.729 198.275 152.195 198.275ZM163.805 198.225V200.588H162.968V199H157.08V200.588H156.243V198.225H156.618C157.06 198.2 157.36 197.875 157.518 197.25C157.676 196.625 157.785 195.75 157.843 194.625L157.93 192.425H162.78V198.225H163.805ZM158.655 194.675C158.614 195.608 158.535 196.379 158.418 196.987C158.301 197.587 158.093 198 157.793 198.225H161.893V193.212H158.73L158.655 194.675ZM171.435 192.425V199H170.547V193.212H166.422V199H165.535V192.425H171.435ZM173.958 192.425H174.845V197.65L179.233 192.425H180.02V199H179.133V193.775L174.758 199H173.958V192.425ZM185.314 199.063C184.664 199.063 184.08 198.921 183.564 198.637C183.055 198.354 182.655 197.958 182.364 197.45C182.072 196.933 181.926 196.354 181.926 195.712C181.926 195.071 182.072 194.496 182.364 193.987C182.655 193.479 183.055 193.083 183.564 192.8C184.08 192.517 184.664 192.375 185.314 192.375C185.88 192.375 186.385 192.487 186.826 192.712C187.276 192.929 187.63 193.25 187.889 193.675L187.226 194.125C187.01 193.8 186.735 193.558 186.401 193.4C186.068 193.233 185.705 193.15 185.314 193.15C184.839 193.15 184.41 193.258 184.026 193.475C183.651 193.683 183.355 193.983 183.139 194.375C182.93 194.767 182.826 195.212 182.826 195.712C182.826 196.221 182.93 196.671 183.139 197.062C183.355 197.446 183.651 197.746 184.026 197.962C184.41 198.171 184.839 198.275 185.314 198.275C185.705 198.275 186.068 198.196 186.401 198.037C186.735 197.879 187.01 197.637 187.226 197.312L187.889 197.762C187.63 198.187 187.276 198.512 186.826 198.737C186.376 198.954 185.872 199.063 185.314 199.063ZM191.995 196.075H190.495V199H189.607V192.425H190.495V195.312H192.007L194.32 192.425H195.282L192.695 195.612L195.47 199H194.42L191.995 196.075ZM199.351 199.063C198.718 199.063 198.147 198.921 197.638 198.637C197.13 198.346 196.73 197.946 196.438 197.438C196.147 196.929 196.001 196.354 196.001 195.712C196.001 195.071 196.147 194.496 196.438 193.987C196.73 193.479 197.13 193.083 197.638 192.8C198.147 192.517 198.718 192.375 199.351 192.375C199.984 192.375 200.555 192.517 201.063 192.8C201.572 193.083 201.968 193.479 202.251 193.987C202.543 194.496 202.688 195.071 202.688 195.712C202.688 196.354 202.543 196.929 202.251 197.438C201.968 197.946 201.572 198.346 201.063 198.637C200.555 198.921 199.984 199.063 199.351 199.063ZM199.351 198.275C199.818 198.275 200.234 198.171 200.601 197.962C200.976 197.746 201.268 197.442 201.476 197.05C201.684 196.658 201.788 196.212 201.788 195.712C201.788 195.212 201.684 194.767 201.476 194.375C201.268 193.983 200.976 193.683 200.601 193.475C200.234 193.258 199.818 193.15 199.351 193.15C198.884 193.15 198.463 193.258 198.088 193.475C197.722 193.683 197.43 193.983 197.213 194.375C197.005 194.767 196.901 195.212 196.901 195.712C196.901 196.212 197.005 196.658 197.213 197.05C197.43 197.442 197.722 197.746 198.088 197.962C198.463 198.171 198.884 198.275 199.351 198.275ZM204.585 192.425H205.473V197.65L209.86 192.425H210.648V199H209.76V193.775L205.385 199H204.585V192.425ZM207.573 191.475C207.006 191.475 206.556 191.333 206.223 191.05C205.889 190.767 205.719 190.367 205.71 189.85H206.348C206.356 190.175 206.473 190.437 206.698 190.637C206.923 190.829 207.214 190.925 207.573 190.925C207.931 190.925 208.223 190.829 208.448 190.637C208.681 190.437 208.802 190.175 208.81 189.85H209.448C209.439 190.367 209.264 190.767 208.923 191.05C208.589 191.333 208.139 191.475 207.573 191.475ZM216.625 190.25H217.55V198.2H222.45V199H216.625V190.25ZM226.388 199.063C225.755 199.063 225.184 198.921 224.676 198.637C224.168 198.346 223.768 197.946 223.476 197.438C223.184 196.929 223.038 196.354 223.038 195.712C223.038 195.071 223.184 194.496 223.476 193.987C223.768 193.479 224.168 193.083 224.676 192.8C225.184 192.517 225.755 192.375 226.388 192.375C227.022 192.375 227.593 192.517 228.101 192.8C228.609 193.083 229.005 193.479 229.288 193.987C229.58 194.496 229.726 195.071 229.726 195.712C229.726 196.354 229.58 196.929 229.288 197.438C229.005 197.946 228.609 198.346 228.101 198.637C227.593 198.921 227.022 199.063 226.388 199.063ZM226.388 198.275C226.855 198.275 227.272 198.171 227.638 197.962C228.013 197.746 228.305 197.442 228.513 197.05C228.722 196.658 228.826 196.212 228.826 195.712C228.826 195.212 228.722 194.767 228.513 194.375C228.305 193.983 228.013 193.683 227.638 193.475C227.272 193.258 226.855 193.15 226.388 193.15C225.922 193.15 225.501 193.258 225.126 193.475C224.759 193.683 224.468 193.983 224.251 194.375C224.043 194.767 223.938 195.212 223.938 195.712C223.938 196.212 224.043 196.658 224.251 197.05C224.468 197.442 224.759 197.746 225.126 197.962C225.501 198.171 225.922 198.275 226.388 198.275ZM234.225 199.063C233.592 199.063 233.021 198.921 232.513 198.637C232.004 198.346 231.604 197.946 231.313 197.438C231.021 196.929 230.875 196.354 230.875 195.712C230.875 195.071 231.021 194.496 231.313 193.987C231.604 193.479 232.004 193.083 232.513 192.8C233.021 192.517 233.592 192.375 234.225 192.375C234.859 192.375 235.429 192.517 235.938 192.8C236.446 193.083 236.842 193.479 237.125 193.987C237.417 194.496 237.563 195.071 237.563 195.712C237.563 196.354 237.417 196.929 237.125 197.438C236.842 197.946 236.446 198.346 235.938 198.637C235.429 198.921 234.859 199.063 234.225 199.063ZM234.225 198.275C234.692 198.275 235.109 198.171 235.475 197.962C235.85 197.746 236.142 197.442 236.35 197.05C236.559 196.658 236.663 196.212 236.663 195.712C236.663 195.212 236.559 194.767 236.35 194.375C236.142 193.983 235.85 193.683 235.475 193.475C235.109 193.258 234.692 193.15 234.225 193.15C233.759 193.15 233.338 193.258 232.963 193.475C232.596 193.683 232.304 193.983 232.088 194.375C231.879 194.767 231.775 195.212 231.775 195.712C231.775 196.212 231.879 196.658 232.088 197.05C232.304 197.442 232.596 197.746 232.963 197.962C233.338 198.171 233.759 198.275 234.225 198.275ZM244.717 192.425L241.792 199H240.879L237.967 192.425H238.892L241.354 198.025L243.842 192.425H244.717ZM246.817 193.712C247.025 193.271 247.333 192.937 247.742 192.712C248.158 192.487 248.671 192.375 249.279 192.375V193.237L249.067 193.225C248.375 193.225 247.833 193.437 247.442 193.862C247.05 194.287 246.854 194.883 246.854 195.65V199H245.967V192.425H246.817V193.712ZM260.63 198.2V199H254.443V190.25H260.443V191.05H255.368V194.162H259.893V194.95H255.368V198.2H260.63ZM262.617 189.725H263.504V199H262.617V189.725ZM265.974 192.425H266.861V199H265.974V192.425ZM266.424 190.987C266.24 190.987 266.086 190.925 265.961 190.8C265.836 190.675 265.774 190.525 265.774 190.35C265.774 190.183 265.836 190.037 265.961 189.912C266.086 189.787 266.24 189.725 266.424 189.725C266.607 189.725 266.761 189.787 266.886 189.912C267.011 190.029 267.074 190.171 267.074 190.337C267.074 190.521 267.011 190.675 266.886 190.8C266.761 190.925 266.607 190.987 266.424 190.987ZM272.793 198.6C272.627 198.75 272.418 198.867 272.168 198.95C271.927 199.025 271.672 199.063 271.406 199.063C270.789 199.063 270.314 198.896 269.981 198.562C269.647 198.229 269.481 197.758 269.481 197.15V193.175H268.306V192.425H269.481V190.987H270.368V192.425H272.368V193.175H270.368V197.1C270.368 197.492 270.464 197.792 270.656 198C270.856 198.2 271.139 198.3 271.506 198.3C271.689 198.3 271.864 198.271 272.031 198.212C272.206 198.154 272.356 198.071 272.481 197.962L272.793 198.6ZM279.902 195.987H274.402C274.452 196.671 274.714 197.225 275.189 197.65C275.664 198.067 276.264 198.275 276.989 198.275C277.398 198.275 277.773 198.204 278.114 198.062C278.456 197.912 278.752 197.696 279.002 197.412L279.502 197.987C279.21 198.337 278.844 198.604 278.402 198.787C277.969 198.971 277.489 199.063 276.964 199.063C276.289 199.063 275.689 198.921 275.164 198.637C274.648 198.346 274.244 197.946 273.952 197.438C273.66 196.929 273.514 196.354 273.514 195.712C273.514 195.071 273.652 194.496 273.927 193.987C274.21 193.479 274.594 193.083 275.077 192.8C275.569 192.517 276.119 192.375 276.727 192.375C277.335 192.375 277.881 192.517 278.364 192.8C278.848 193.083 279.227 193.479 279.502 193.987C279.777 194.487 279.914 195.062 279.914 195.712L279.902 195.987ZM276.727 193.137C276.094 193.137 275.56 193.342 275.127 193.75C274.702 194.15 274.46 194.675 274.402 195.325H279.064C279.006 194.675 278.76 194.15 278.327 193.75C277.902 193.342 277.369 193.137 276.727 193.137ZM281.583 190.25H282.633L282.446 196.375H281.758L281.583 190.25ZM282.108 199.063C281.925 199.063 281.767 199 281.633 198.875C281.508 198.742 281.446 198.587 281.446 198.412C281.446 198.229 281.508 198.079 281.633 197.962C281.758 197.837 281.917 197.775 282.108 197.775C282.292 197.775 282.446 197.837 282.571 197.962C282.696 198.079 282.758 198.229 282.758 198.412C282.758 198.587 282.696 198.742 282.571 198.875C282.446 199 282.292 199.063 282.108 199.063Z" fill="#C3C3C3"/>
<defs>
<linearGradient id="paint0_linear_692_8563" x1="81.28" y1="106.365" x2="210.609" y2="130.198" gradientUnits="userSpaceOnUse">
<stop offset="0.0769689" stop-color="#8942BC"/>
<stop offset="0.451876" stop-color="#5831F7"/>
<stop offset="0.451976" stop-color="#5731F8"/>
<stop offset="0.863441" stop-color="#00C2C2"/>
</linearGradient>
</defs>
</svg>
