<svg width="48" height="48" viewBox="0 0 48 48" fill="none" xmlns="http://www.w3.org/2000/svg">
<circle cx="24" cy="24" r="24" fill="url(#paint0_linear_1137_11759)"/>
<g clip-path="url(#clip0_1137_11759)">
<path d="M13.965 20.9859L13.828 20.8489C12.184 19.2069 12.094 16.5339 13.627 14.8899C14.419 14.0399 15.493 13.5619 16.651 13.5409C16.677 13.5409 16.703 13.5409 16.729 13.5409C17.859 13.5409 18.918 13.9789 19.725 14.7849C20.073 15.1339 20.535 15.3269 21.026 15.3269C21.519 15.3269 21.984 15.1339 22.335 14.7829L22.354 14.7639C24.005 13.1319 26.677 13.1359 28.322 14.7799C28.575 15.0329 28.778 15.3199 28.957 15.6189C29.886 15.4629 30.831 15.4659 31.753 15.6269C31.425 14.6429 30.876 13.7389 30.12 12.9839C27.636 10.5019 23.687 10.3549 21.029 12.5409C19.787 11.5139 18.244 10.9739 16.606 10.9999C14.752 11.0329 13.033 11.7989 11.767 13.1579C9.31201 15.7909 9.43001 20.0469 12.031 22.6459L13.522 24.1359C13.47 23.0689 13.616 21.9989 13.966 20.9859H13.965Z" fill="white"/>
<path d="M17.031 28.6471L24.733 36.3421C25.422 37.0311 26.631 37.0311 27.321 36.3421L35.12 28.5531C36.399 27.2741 37.104 25.5741 37.104 23.7681C37.104 21.9621 36.399 20.2611 35.12 18.9821C32.797 16.6611 29.155 16.3381 26.459 18.2131L26.029 18.5131L25.599 18.2121C24.465 17.4181 23.127 17.0001 21.723 17.0001C21.684 17.0001 21.645 17.0001 21.607 17.0001C19.752 17.0321 18.033 17.7991 16.767 19.1571C14.311 21.7911 14.429 26.0471 17.031 28.6451V28.6471ZM18.627 20.8901C19.417 20.0421 20.49 19.5631 21.648 19.5401C22.858 19.5401 23.921 19.9811 24.725 20.7841C25.425 21.4841 26.638 21.4791 27.334 20.7811C29.004 19.1351 31.68 19.1371 33.322 20.7781C34.121 21.5771 34.561 22.6381 34.561 23.7671C34.561 24.8961 34.121 25.9571 33.322 26.7551L26.027 34.0411L18.829 26.8481C17.185 25.2061 17.095 22.5341 18.627 20.8891V20.8901Z" fill="white"/>
</g>
<defs>
<linearGradient id="paint0_linear_1137_11759" x1="-0.166504" y1="48" x2="47.8335" y2="-6.19635e-07" gradientUnits="userSpaceOnUse">
<stop stop-color="#9744D8"/>
<stop offset="0.481119" stop-color="#714BD8"/>
<stop offset="1" stop-color="#4453D8"/>
</linearGradient>
<clipPath id="clip0_1137_11759">
<rect width="27.104" height="25.859" fill="white" transform="translate(10 11)"/>
</clipPath>
</defs>
</svg>
