<svg width="48" height="48" viewBox="0 0 48 48" fill="none" xmlns="http://www.w3.org/2000/svg">
<circle cx="24" cy="24" r="24" fill="#696868"/>
<path d="M33.1196 15.9819C30.6354 13.5002 26.6869 13.3528 24.0287 15.5386C22.787 14.5139 21.2436 13.9745 19.606 14.0009C17.7516 14.0337 16.0328 14.8002 14.7664 16.1587C12.3117 18.7922 12.4299 23.0481 15.0304 25.6462L22.7331 33.342C23.0898 33.6984 23.5585 33.8765 24.0272 33.8765C24.4958 33.8765 24.9645 33.6982 25.321 33.342L33.1196 25.553C34.399 24.2747 35.1036 22.5753 35.1036 20.7676C35.1036 18.9599 34.399 17.2601 33.1196 15.9819ZM31.3214 23.7564L24.0269 31.0419L16.8283 23.8494C15.1847 22.2074 15.0945 19.534 16.6269 17.89C17.4187 17.0404 18.4926 16.5614 19.651 16.5406C19.6769 16.5403 19.7028 16.5401 19.7288 16.5401C20.8584 16.5401 21.9175 16.9781 22.7244 17.7843C23.0723 18.1334 23.5343 18.3257 24.0254 18.3259H24.0264C24.5195 18.3259 24.9841 18.1326 25.3348 17.7817L25.3538 17.7627C27.0047 16.1303 29.6769 16.1351 31.3214 17.7784C32.1207 18.577 32.5606 19.6382 32.5606 20.7676C32.5606 21.8969 32.1207 22.9581 31.3214 23.7564Z" fill="white"/>
</svg>
