<svg width="48" height="48" viewBox="0 0 48 48" fill="none" xmlns="http://www.w3.org/2000/svg">
<circle cx="24" cy="24" r="24" fill="#696868"/>
<path d="M29 12H19C16.243 12 14 14.243 14 17V31C14 33.757 16.243 36 19 36H29C31.757 36 34 33.757 34 31V17C34 14.243 31.757 12 29 12ZM19 14H29C30.654 14 32 15.346 32 17H16C16 15.346 17.346 14 19 14ZM29 34H19C17.346 34 16 32.654 16 31V19H32V31C32 32.654 30.654 34 29 34ZM29 23C29 23.553 28.552 24 28 24H20C19.448 24 19 23.553 19 23C19 22.447 19.448 22 20 22H28C28.552 22 29 22.447 29 23ZM25 27C25 27.553 24.552 28 24 28H20C19.448 28 19 27.553 19 27C19 26.447 19.448 26 20 26H24C24.552 26 25 26.447 25 27Z" fill="white"/>
</svg>
