<svg width="48" height="48" viewBox="0 0 48 48" fill="none" xmlns="http://www.w3.org/2000/svg">
<circle cx="24" cy="24" r="24" fill="url(#paint0_linear_692_8737)"/>
<g clip-path="url(#clip0_692_8737)">
<path d="M21 36H13C12.7348 36 12.4804 35.8946 12.2929 35.7071C12.1054 35.5196 12 35.2652 12 35C12 34.7348 12.1054 34.4804 12.2929 34.2929C12.4804 34.1054 12.7348 34 13 34H21C21.2652 34 21.5196 34.1054 21.7071 34.2929C21.8946 34.4804 22 34.7348 22 35C22 35.2652 21.8946 35.5196 21.7071 35.7071C21.5196 35.8946 21.2652 36 21 36Z" fill="white"/>
<path d="M19 32H13C12.7348 32 12.4804 31.8946 12.2929 31.7071C12.1054 31.5196 12 31.2652 12 31C12 30.7348 12.1054 30.4804 12.2929 30.2929C12.4804 30.1054 12.7348 30 13 30H19C19.2652 30 19.5196 30.1054 19.7071 30.2929C19.8946 30.4804 20 30.7348 20 31C20 31.2652 19.8946 31.5196 19.7071 31.7071C19.5196 31.8946 19.2652 32 19 32Z" fill="white"/>
<path d="M17 28H13C12.7348 28 12.4804 27.8946 12.2929 27.7071C12.1054 27.5196 12 27.2652 12 27C12 26.7348 12.1054 26.4804 12.2929 26.2929C12.4804 26.1054 12.7348 26 13 26H17C17.2652 26 17.5196 26.1054 17.7071 26.2929C17.8946 26.4804 18 26.7348 18 27C18 27.2652 17.8946 27.5196 17.7071 27.7071C17.5196 27.8946 17.2652 28 17 28Z" fill="white"/>
<path d="M25 35.955C24.7348 35.9668 24.4757 35.8728 24.2798 35.6936C24.084 35.5144 23.9673 35.2647 23.9555 34.9995C23.9437 34.7343 24.0377 34.4752 24.2169 34.2794C24.3961 34.0835 24.6458 33.9668 24.911 33.955C26.8034 33.7818 28.6074 33.073 30.1115 31.9116C31.6157 30.7501 32.7577 29.1841 33.4039 27.397C34.0501 25.6099 34.1737 23.6756 33.7602 21.8208C33.3468 19.966 32.4133 18.2673 31.0692 16.9239C29.7252 15.5804 28.0261 14.6478 26.1711 14.2352C24.3161 13.8225 22.3819 13.947 20.5951 14.5941C18.8082 15.2411 17.2428 16.3839 16.082 17.8885C14.9213 19.3932 14.2133 21.1975 14.041 23.09C14.0171 23.3541 13.8893 23.598 13.6856 23.7679C13.482 23.9378 13.2191 24.0199 12.955 23.996C12.6908 23.9721 12.447 23.8443 12.2771 23.6406C12.1072 23.437 12.0251 23.1741 12.049 22.91C12.3279 19.8333 13.7826 16.9827 16.1103 14.9516C18.438 12.9204 21.4594 11.8653 24.5455 12.0057C27.6316 12.1462 30.5447 13.4714 32.6783 15.7056C34.8119 17.9397 36.0017 20.9107 36 24C36.0153 26.9983 34.9014 29.8926 32.8799 32.107C30.8583 34.3214 28.0773 35.6938 25.09 35.951C25.06 35.954 25.029 35.955 25 35.955Z" fill="white"/>
<path d="M24 18C23.7348 18 23.4804 18.1054 23.2929 18.2929C23.1054 18.4804 23 18.7348 23 19V24C23.0001 24.2652 23.1055 24.5195 23.293 24.707L26.293 27.707C26.4816 27.8892 26.7342 27.99 26.9964 27.9877C27.2586 27.9854 27.5094 27.8802 27.6948 27.6948C27.8802 27.5094 27.9854 27.2586 27.9877 26.9964C27.99 26.7342 27.8892 26.4816 27.707 26.293L25 23.586V19C25 18.7348 24.8946 18.4804 24.7071 18.2929C24.5196 18.1054 24.2652 18 24 18Z" fill="white"/>
</g>
<defs>
<linearGradient id="paint0_linear_692_8737" x1="5.14667e-06" y1="48" x2="48" y2="5.14667e-06" gradientUnits="userSpaceOnUse">
<stop stop-color="#5831F7"/>
<stop offset="0.493643" stop-color="#2470B5"/>
<stop offset="1" stop-color="#1BBFBF"/>
</linearGradient>
<clipPath id="clip0_692_8737">
<rect width="24" height="24" fill="white" transform="translate(12 12)"/>
</clipPath>
</defs>
</svg>
