<svg width="48" height="48" viewBox="0 0 48 48" fill="none" xmlns="http://www.w3.org/2000/svg">
<circle cx="24" cy="24" r="24" fill="#696868"/>
<g clip-path="url(#clip0_1137_12069)">
<path d="M35.707 34.2928L29.738 28.3238C31.3646 26.3344 32.1644 23.7959 31.9718 21.2333C31.7793 18.6708 30.6092 16.2803 28.7036 14.5563C26.798 12.8323 24.3026 11.9067 21.7336 11.9709C19.1647 12.0351 16.7187 13.0843 14.9016 14.9014C13.0845 16.7185 12.0354 19.1645 11.9711 21.7334C11.9069 24.3024 12.8325 26.7977 14.5565 28.7034C16.2805 30.609 18.671 31.7791 21.2336 31.9716C23.7961 32.1642 26.3346 31.3644 28.324 29.7378L34.293 35.7068C34.4816 35.8889 34.7342 35.9897 34.9964 35.9875C35.2586 35.9852 35.5094 35.88 35.6948 35.6946C35.8802 35.5092 35.9854 35.2584 35.9877 34.9962C35.99 34.734 35.8892 34.4814 35.707 34.2928ZM22 29.9998C20.4177 29.9998 18.871 29.5306 17.5554 28.6515C16.2398 27.7725 15.2145 26.5231 14.609 25.0613C14.0035 23.5994 13.845 21.9909 14.1537 20.4391C14.4624 18.8872 15.2243 17.4617 16.3431 16.3429C17.462 15.2241 18.8874 14.4622 20.4393 14.1535C21.9911 13.8448 23.5997 14.0032 25.0615 14.6087C26.5233 15.2142 27.7727 16.2396 28.6518 17.5552C29.5308 18.8708 30 20.4175 30 21.9998C29.9976 24.1208 29.154 26.1542 27.6542 27.654C26.1544 29.1538 24.121 29.9974 22 29.9998Z" fill="white"/>
</g>
<defs>
<clipPath id="clip0_1137_12069">
<rect width="24" height="24" fill="white" transform="translate(12 12)"/>
</clipPath>
</defs>
</svg>
