<svg width="289" height="176" viewBox="0 0 289 176" fill="none" xmlns="http://www.w3.org/2000/svg">
<mask id="mask0_157_3992" style="mask-type:alpha" maskUnits="userSpaceOnUse" x="22" y="22" width="245" height="132">
<path d="M86.0999 25.0886C93.4924 25.0886 97.1887 30.4427 97.1887 41.1509C97.1887 48.3804 95.9928 55.8001 93.6011 63.41C92.3509 67.3781 90.8561 70.9928 89.1167 74.2542C87.4316 77.4612 85.2845 80.0703 82.6754 82.0815C80.1207 84.1471 77.3213 85.1799 74.2773 85.1799C71.2877 85.1799 68.896 84.2014 67.1022 82.2446C65.3085 80.3421 64.4116 77.8689 64.4116 74.8249C64.4116 70.4764 66.1782 66.454 69.7114 62.7577C73.2989 59.0615 77.8377 55.9631 83.3277 53.4627C84.0887 49.2773 84.4692 45.3636 84.4692 41.7217C84.4692 38.0254 84.1159 35.4979 83.4092 34.1389C82.7026 32.78 81.6698 32.1006 80.3109 32.1006C79.0064 32.1006 77.43 32.4539 75.5819 33.1605C73.7338 33.8672 71.9672 34.8184 70.2821 36.0142L68.0807 32.7528C70.3636 30.7416 73.163 28.9751 76.4788 27.4531C79.8489 25.8767 83.0559 25.0886 86.0999 25.0886ZM82.5124 59.8225C79.1966 61.2357 76.3701 63.2198 74.0327 65.7745C71.6954 68.2749 70.5267 70.8297 70.5267 73.4388C70.5267 75.9936 71.5323 77.271 73.5435 77.271C75.2829 77.2166 76.9408 75.8033 78.5171 73.0311C80.1478 70.2046 81.4796 65.8017 82.5124 59.8225ZM124.294 46.8584C124.185 48.2173 123.723 49.7937 122.908 51.5874C120.842 51.37 118.885 51.2613 117.037 51.2613H115.57C113.069 63.3828 111.819 70.9384 111.819 73.928C111.819 75.5044 112.145 76.2925 112.798 76.2925C113.504 76.2925 115.325 75.6131 118.26 74.2542L119.728 76.9448C114.89 80.9672 110.406 82.9784 106.275 82.9784C104.372 82.9784 102.796 82.3805 101.546 81.1846C100.35 79.9888 99.7519 78.4125 99.7519 76.4556C99.7519 74.4444 99.9693 72.1886 100.404 69.6882C100.893 67.1878 101.546 64.1438 102.361 60.5563C103.176 56.9144 103.774 53.9791 104.155 51.7505C102.144 51.9136 100.649 52.0766 99.6704 52.2397C99.5617 51.5874 99.5073 50.7177 99.5073 49.6306C99.5073 48.4891 99.5888 47.565 99.7519 46.8584H104.889C105.323 43.9231 105.541 41.1509 105.541 38.5418L105.459 36.0142V35.7696C109.699 34.302 113.694 33.5682 117.445 33.5682C117.662 34.6553 117.771 36.0142 117.771 37.6449C117.771 39.2756 117.309 42.3468 116.385 46.8584H124.294ZM139.29 29.573C139.29 34.5738 136.3 40.4715 130.321 47.2661L126.489 44.9016C129.316 40.553 130.892 37.2373 131.218 34.9543L126.408 32.019C126.408 30.1165 126.842 28.2412 127.712 26.3931C128.636 24.545 129.56 23.1045 130.484 22.0718C133.528 22.0718 135.947 22.8871 137.741 24.5178C138.774 25.4419 139.29 27.1269 139.29 29.573ZM168.318 71.3189C168.318 74.7434 166.796 77.5428 163.752 79.717C160.763 81.8913 157.338 82.9784 153.479 82.9784C149.62 82.9784 146.549 82.1631 144.266 80.5324C142.037 78.9017 140.923 77.4612 140.923 76.211C140.923 75.45 141.874 74.227 143.776 72.5419C145.679 70.8025 147.282 69.7426 148.587 69.3621C151.305 71.3733 153.533 74.5531 155.273 78.9017C157.284 78.7386 158.29 77.7874 158.29 76.0479C158.29 73.5475 156.088 70.0144 151.685 65.4484C147.282 60.8281 145.081 57.159 145.081 54.4412C145.081 51.7233 146.304 49.6306 148.75 48.163C151.196 46.641 154.131 45.88 157.556 45.88C161.035 45.88 163.644 46.5051 165.383 47.7553C167.123 48.9511 167.992 50.609 167.992 52.7289C167.992 54.7945 166.334 57.6754 163.019 61.3716C163.399 61.7521 163.888 62.2685 164.486 62.9208C165.084 63.5187 165.872 64.6874 166.851 66.4268C167.829 68.1662 168.318 69.7969 168.318 71.3189ZM160.491 58.5179C162.774 56.5611 163.916 54.6314 163.916 52.7289C163.916 50.8264 162.611 49.8752 160.002 49.8752C158.752 49.8752 157.719 50.147 156.904 50.6905C156.088 51.1798 155.68 51.7505 155.68 52.4028C155.68 53.5986 156.876 55.2837 159.268 57.458L160.491 58.5179ZM212.728 48.2445C212.836 48.1358 213.135 47.4291 213.625 46.1246C216.179 46.1246 219.604 46.8856 223.898 48.4076C222.539 52.9192 221.452 57.6482 220.637 62.5947C219.821 67.4868 219.413 70.9928 219.413 73.1127C219.413 75.1782 219.631 76.211 220.066 76.211C220.392 76.211 221.588 75.6946 223.653 74.6618L224.632 74.1726L226.099 77.0264C225.61 77.4612 224.958 78.0048 224.143 78.6571C223.382 79.3093 221.914 80.2062 219.74 81.3477C217.565 82.4349 215.609 82.9784 213.869 82.9784C210.499 82.9784 208.542 81.4564 207.999 78.4125C204.52 81.4564 201.367 82.9784 198.541 82.9784C195.768 82.9784 193.404 81.8913 191.447 79.717C189.544 77.5428 188.593 74.1183 188.593 69.4436C188.593 62.1598 190.088 56.4252 193.078 52.2397C196.067 47.9999 199.682 45.88 203.922 45.88C206.966 45.88 209.901 46.6682 212.728 48.2445ZM203.433 76.0479C204.737 76.0479 206.205 75.5316 207.836 74.4988C208.216 66.8345 209.493 59.2517 211.668 51.7505C210.037 51.0439 208.651 50.6905 207.509 50.6905C205.553 50.6905 203.867 52.6202 202.454 56.4795C201.095 60.2845 200.416 64.4971 200.416 69.1175C200.416 73.7378 201.421 76.0479 203.433 76.0479ZM102.695 147.309C99.1623 149.755 95.8465 150.978 92.7482 150.978C89.6499 150.978 87.4484 150.245 86.1439 148.777C84.8937 147.309 84.2686 145.38 84.2686 142.988C84.2686 140.596 85.5459 134.454 88.1007 124.561C90.6555 114.614 91.9328 108.444 91.9328 106.053C91.9328 103.063 90.8729 101.568 88.753 101.568C86.6331 101.568 83.7522 103.145 80.1103 106.297C80.0016 106.732 79.1047 110.048 77.4196 116.244C73.7234 129.834 71.7393 140.787 71.4676 149.103C69.3476 149.918 65.5155 150.326 59.9711 150.326H58.9112C58.9112 146.956 60.3516 139.183 63.2325 127.007C66.1134 114.831 67.5539 107.738 67.5539 105.726C67.5539 102.954 66.4396 101.568 64.2109 101.568C61.8192 101.568 58.6937 103.253 54.8344 106.623C54.8344 117.712 52.8776 128.094 48.9639 137.77C47.1158 142.336 44.6969 146.059 41.7073 148.94C38.772 151.767 35.728 153.18 32.5753 153.18C29.477 153.18 27.031 152.229 25.2372 150.326C23.4978 148.478 22.6281 145.896 22.6281 142.58C22.6281 139.21 23.8239 135.269 26.2156 130.758C28.6073 126.192 31.1349 122.305 33.7984 119.098C36.5162 115.837 39.2884 112.902 42.1149 110.292C42.1149 105.292 41.517 102.275 40.3212 101.242C39.7232 100.753 38.8535 100.508 37.712 100.508C36.6249 100.508 34.9942 100.997 32.8199 101.976C30.7 102.954 28.6617 104.286 26.7048 105.971L24.6664 103.117C26.5689 100.78 29.4227 98.5242 33.2276 96.3499C37.0326 94.1757 40.4027 93.0886 43.338 93.0886C46.3276 93.0886 48.6649 93.8767 50.35 95.4531C52.0894 96.9751 53.3124 98.9319 54.0191 101.324C61.5203 95.1813 67.4452 92.1101 71.7937 92.1101C73.968 92.1101 75.8161 92.7896 77.3381 94.1485C78.9144 95.5074 79.92 97.5458 80.3549 100.264C86.769 94.828 92.1231 92.1101 96.4173 92.1101C98.809 92.1101 100.82 93.0614 102.451 94.9639C104.136 96.8663 104.978 99.4483 104.978 102.71C104.978 105.917 103.647 112.412 100.983 122.197C98.3198 131.981 96.988 138.177 96.988 140.787C96.988 143.341 97.8034 144.619 99.4341 144.619C99.9776 144.619 100.657 144.483 101.472 144.211L102.695 147.309ZM31.0262 145.434C33.2004 145.434 35.3475 142.743 37.4674 137.362C39.6417 131.926 41.1093 125.132 41.8703 116.978C38.3915 120.566 35.266 124.833 32.4938 129.779C29.7216 134.671 28.3355 138.504 28.3355 141.276C28.3355 144.048 29.2324 145.434 31.0262 145.434ZM134.139 116.244C134.247 116.136 134.546 115.429 135.036 114.125C137.59 114.125 141.015 114.886 145.309 116.408C143.95 120.919 142.863 125.648 142.048 130.595C141.232 135.487 140.825 138.993 140.825 141.113C140.825 143.178 141.042 144.211 141.477 144.211C141.803 144.211 142.999 143.695 145.064 142.662L146.043 142.173L147.51 145.026C147.021 145.461 146.369 146.005 145.554 146.657C144.793 147.309 143.325 148.206 141.151 149.348C138.976 150.435 137.02 150.978 135.28 150.978C131.91 150.978 129.953 149.456 129.41 146.412C125.931 149.456 122.778 150.978 119.952 150.978C117.179 150.978 114.815 149.891 112.858 147.717C110.956 145.543 110.004 142.118 110.004 137.444C110.004 130.16 111.499 124.425 114.489 120.24C117.478 116 121.093 113.88 125.333 113.88C128.377 113.88 131.312 114.668 134.139 116.244ZM124.844 144.048C126.148 144.048 127.616 143.532 129.247 142.499C129.627 134.834 130.904 127.252 133.079 119.751C131.448 119.044 130.062 118.691 128.92 118.691C126.964 118.691 125.279 120.62 123.865 124.48C122.506 128.285 121.827 132.497 121.827 137.117C121.827 141.738 122.832 144.048 124.844 144.048ZM174.537 114.858C174.428 116.217 173.966 117.794 173.151 119.587C171.085 119.37 169.128 119.261 167.28 119.261H165.812C163.312 131.383 162.062 138.938 162.062 141.928C162.062 143.504 162.388 144.293 163.04 144.293C163.747 144.293 165.568 143.613 168.503 142.254L169.971 144.945C165.133 148.967 160.649 150.978 156.518 150.978C154.615 150.978 153.039 150.38 151.788 149.185C150.593 147.989 149.995 146.412 149.995 144.456C149.995 142.444 150.212 140.189 150.647 137.688C151.136 135.188 151.788 132.144 152.604 128.556C153.419 124.914 154.017 121.979 154.398 119.751C152.386 119.914 150.892 120.077 149.913 120.24C149.804 119.587 149.75 118.718 149.75 117.631C149.75 116.489 149.832 115.565 149.995 114.858H155.131C155.566 111.923 155.784 109.151 155.784 106.542L155.702 104.014V103.77C159.942 102.302 163.937 101.568 167.688 101.568C167.905 102.655 168.014 104.014 168.014 105.645C168.014 107.276 167.552 110.347 166.628 114.858H174.537ZM191.816 117.957C189.642 117.957 187.902 119.778 186.598 123.42C185.293 127.007 184.641 130.866 184.641 134.998C184.641 141.52 186.652 144.782 190.674 144.782C191.979 144.782 193.365 144.483 194.833 143.885C196.3 143.233 197.469 142.607 198.339 142.01L199.562 141.031L201.437 143.559C201.002 144.157 200.132 144.945 198.828 145.923C197.523 146.902 196.3 147.717 195.159 148.369C194.017 149.022 192.55 149.62 190.756 150.163C188.962 150.707 187.195 150.978 185.456 150.978C181.216 150.978 178.036 149.592 175.916 146.82C173.797 144.048 172.737 140.325 172.737 135.65C172.737 129.181 174.503 123.936 178.036 119.914C181.624 115.891 186.217 113.88 191.816 113.88C195.458 113.88 198.339 114.723 200.459 116.408C202.633 118.038 203.72 120.077 203.72 122.523C203.72 124.914 202.959 126.98 201.437 128.719C200.078 128.719 198.502 128.42 196.708 127.822C194.914 127.225 193.555 126.491 192.631 125.621L193.854 118.446C193.365 118.12 192.686 117.957 191.816 117.957ZM215.009 96.1869C215.009 94.3931 214.846 93.1157 214.52 92.3547C218.76 90.8871 222.755 90.1533 226.506 90.1533C226.995 90.6425 227.24 91.8927 227.24 93.9039C227.24 97.4914 225.718 105.754 222.674 118.691C227.077 115.484 230.936 113.88 234.252 113.88C236.317 113.88 237.866 114.532 238.899 115.837C239.986 117.141 240.53 118.881 240.53 121.055C240.53 123.175 239.905 126.681 238.654 131.573C237.404 136.411 236.779 139.727 236.779 141.52C236.779 143.314 236.997 144.211 237.431 144.211C237.866 144.211 239.008 143.722 240.856 142.743L241.834 142.254L243.302 145.108C242.813 145.543 242.16 146.086 241.345 146.739C240.53 147.391 239.035 148.261 236.861 149.348C234.686 150.435 232.675 150.978 230.827 150.978C229.033 150.978 227.593 150.408 226.506 149.266C225.419 148.07 224.875 146.494 224.875 144.537C224.875 142.526 225.473 138.911 226.669 133.693C227.919 128.42 228.544 125.105 228.544 123.746C228.544 122.332 227.973 121.626 226.832 121.626C225.419 121.626 223.652 122.224 221.532 123.42C218.543 136.574 217.048 145.108 217.048 149.022C214.765 149.891 210.878 150.326 205.388 150.326C205.334 149.402 205.307 148.587 205.307 147.88C205.307 145.543 206.91 137.552 210.117 123.909C213.379 110.265 215.009 101.025 215.009 96.1869ZM252.197 150.978C250.294 150.978 248.827 150.408 247.794 149.266C246.761 148.125 246.245 146.603 246.245 144.7C246.245 142.798 246.952 141.167 248.365 139.808C249.778 138.395 251.436 137.688 253.338 137.688C255.295 137.688 256.79 138.259 257.823 139.4C258.856 140.488 259.372 141.982 259.372 143.885C259.372 145.733 258.638 147.391 257.171 148.859C255.757 150.272 254.099 150.978 252.197 150.978ZM266.955 95.8607C266.955 101.242 265.188 109.695 261.655 121.218C261.383 122.142 260.867 123.827 260.106 126.273C259.399 128.665 258.856 130.513 258.475 131.818C257.008 132.307 255.703 132.552 254.561 132.552C253.474 132.552 252.496 132.497 251.626 132.388C253.583 120.593 254.561 110.184 254.561 101.161L254.072 94.3116C258.693 92.8439 262.824 92.1101 266.466 92.1101C266.792 92.5993 266.955 93.8495 266.955 95.8607Z" fill="white"/>
</mask>
<g mask="url(#mask0_157_3992)">
<rect x="21" y="-14.75" width="272" height="201" fill="white"/>
<g opacity="0.9" filter="url(#filter0_f_157_3992)">
<ellipse cx="-6.23647" cy="153.406" rx="59.8146" ry="59.3945" fill="url(#paint0_linear_157_3992)"/>
</g>
<g opacity="0.6" filter="url(#filter1_f_157_3992)">
<ellipse cx="248.608" cy="78.7273" rx="59.4249" ry="59.0075" fill="url(#paint1_linear_157_3992)"/>
</g>
</g>
<g style="mix-blend-mode:soft-light" opacity="0.8" filter="url(#filter2_d_157_3992)">
<mask id="path-5-inside-1_157_3992" fill="white">
<path d="M86.0999 25.0886C93.4924 25.0886 97.1887 30.4427 97.1887 41.1509C97.1887 48.3804 95.9928 55.8001 93.6011 63.41C92.3509 67.3781 90.8561 70.9928 89.1167 74.2542C87.4316 77.4612 85.2845 80.0703 82.6754 82.0815C80.1207 84.1471 77.3213 85.1799 74.2773 85.1799C71.2877 85.1799 68.896 84.2014 67.1022 82.2446C65.3085 80.3421 64.4116 77.8689 64.4116 74.8249C64.4116 70.4764 66.1782 66.454 69.7114 62.7577C73.2989 59.0615 77.8377 55.9631 83.3277 53.4627C84.0887 49.2773 84.4692 45.3636 84.4692 41.7217C84.4692 38.0254 84.1159 35.4979 83.4092 34.1389C82.7026 32.78 81.6698 32.1006 80.3109 32.1006C79.0064 32.1006 77.43 32.4539 75.5819 33.1605C73.7338 33.8672 71.9672 34.8184 70.2821 36.0142L68.0807 32.7528C70.3636 30.7416 73.163 28.9751 76.4788 27.4531C79.8489 25.8767 83.0559 25.0886 86.0999 25.0886ZM82.5124 59.8225C79.1966 61.2357 76.3701 63.2198 74.0327 65.7745C71.6954 68.2749 70.5267 70.8297 70.5267 73.4388C70.5267 75.9936 71.5323 77.271 73.5435 77.271C75.2829 77.2166 76.9408 75.8033 78.5171 73.0311C80.1478 70.2046 81.4796 65.8017 82.5124 59.8225ZM124.294 46.8584C124.185 48.2173 123.723 49.7937 122.908 51.5874C120.842 51.37 118.885 51.2613 117.037 51.2613H115.57C113.069 63.3828 111.819 70.9384 111.819 73.928C111.819 75.5044 112.145 76.2925 112.798 76.2925C113.504 76.2925 115.325 75.6131 118.26 74.2542L119.728 76.9448C114.89 80.9672 110.406 82.9784 106.275 82.9784C104.372 82.9784 102.796 82.3805 101.546 81.1846C100.35 79.9888 99.7519 78.4125 99.7519 76.4556C99.7519 74.4444 99.9693 72.1886 100.404 69.6882C100.893 67.1878 101.546 64.1438 102.361 60.5563C103.176 56.9144 103.774 53.9791 104.155 51.7505C102.144 51.9136 100.649 52.0766 99.6704 52.2397C99.5617 51.5874 99.5073 50.7177 99.5073 49.6306C99.5073 48.4891 99.5888 47.565 99.7519 46.8584H104.889C105.323 43.9231 105.541 41.1509 105.541 38.5418L105.459 36.0142V35.7696C109.699 34.302 113.694 33.5682 117.445 33.5682C117.662 34.6553 117.771 36.0142 117.771 37.6449C117.771 39.2756 117.309 42.3468 116.385 46.8584H124.294ZM139.29 29.573C139.29 34.5738 136.3 40.4715 130.321 47.2661L126.489 44.9016C129.316 40.553 130.892 37.2373 131.218 34.9543L126.408 32.019C126.408 30.1165 126.842 28.2412 127.712 26.3931C128.636 24.545 129.56 23.1045 130.484 22.0718C133.528 22.0718 135.947 22.8871 137.741 24.5178C138.774 25.4419 139.29 27.1269 139.29 29.573ZM168.318 71.3189C168.318 74.7434 166.796 77.5428 163.752 79.717C160.763 81.8913 157.338 82.9784 153.479 82.9784C149.62 82.9784 146.549 82.1631 144.266 80.5324C142.037 78.9017 140.923 77.4612 140.923 76.211C140.923 75.45 141.874 74.227 143.776 72.5419C145.679 70.8025 147.282 69.7426 148.587 69.3621C151.305 71.3733 153.533 74.5531 155.273 78.9017C157.284 78.7386 158.29 77.7874 158.29 76.0479C158.29 73.5475 156.088 70.0144 151.685 65.4484C147.282 60.8281 145.081 57.159 145.081 54.4412C145.081 51.7233 146.304 49.6306 148.75 48.163C151.196 46.641 154.131 45.88 157.556 45.88C161.035 45.88 163.644 46.5051 165.383 47.7553C167.123 48.9511 167.992 50.609 167.992 52.7289C167.992 54.7945 166.334 57.6754 163.019 61.3716C163.399 61.7521 163.888 62.2685 164.486 62.9208C165.084 63.5187 165.872 64.6874 166.851 66.4268C167.829 68.1662 168.318 69.7969 168.318 71.3189ZM160.491 58.5179C162.774 56.5611 163.916 54.6314 163.916 52.7289C163.916 50.8264 162.611 49.8752 160.002 49.8752C158.752 49.8752 157.719 50.147 156.904 50.6905C156.088 51.1798 155.68 51.7505 155.68 52.4028C155.68 53.5986 156.876 55.2837 159.268 57.458L160.491 58.5179ZM212.728 48.2445C212.836 48.1358 213.135 47.4291 213.625 46.1246C216.179 46.1246 219.604 46.8856 223.898 48.4076C222.539 52.9192 221.452 57.6482 220.637 62.5947C219.821 67.4868 219.413 70.9928 219.413 73.1127C219.413 75.1782 219.631 76.211 220.066 76.211C220.392 76.211 221.588 75.6946 223.653 74.6618L224.632 74.1726L226.099 77.0264C225.61 77.4612 224.958 78.0048 224.143 78.6571C223.382 79.3093 221.914 80.2062 219.74 81.3477C217.565 82.4349 215.609 82.9784 213.869 82.9784C210.499 82.9784 208.542 81.4564 207.999 78.4125C204.52 81.4564 201.367 82.9784 198.541 82.9784C195.768 82.9784 193.404 81.8913 191.447 79.717C189.544 77.5428 188.593 74.1183 188.593 69.4436C188.593 62.1598 190.088 56.4252 193.078 52.2397C196.067 47.9999 199.682 45.88 203.922 45.88C206.966 45.88 209.901 46.6682 212.728 48.2445ZM203.433 76.0479C204.737 76.0479 206.205 75.5316 207.836 74.4988C208.216 66.8345 209.493 59.2517 211.668 51.7505C210.037 51.0439 208.651 50.6905 207.509 50.6905C205.553 50.6905 203.867 52.6202 202.454 56.4795C201.095 60.2845 200.416 64.4971 200.416 69.1175C200.416 73.7378 201.421 76.0479 203.433 76.0479ZM102.695 147.309C99.1623 149.755 95.8465 150.978 92.7482 150.978C89.6499 150.978 87.4484 150.245 86.1439 148.777C84.8937 147.309 84.2686 145.38 84.2686 142.988C84.2686 140.596 85.5459 134.454 88.1007 124.561C90.6555 114.614 91.9328 108.444 91.9328 106.053C91.9328 103.063 90.8729 101.568 88.753 101.568C86.6331 101.568 83.7522 103.145 80.1103 106.297C80.0016 106.732 79.1047 110.048 77.4196 116.244C73.7234 129.834 71.7393 140.787 71.4676 149.103C69.3476 149.918 65.5155 150.326 59.9711 150.326H58.9112C58.9112 146.956 60.3516 139.183 63.2325 127.007C66.1134 114.831 67.5539 107.738 67.5539 105.726C67.5539 102.954 66.4396 101.568 64.2109 101.568C61.8192 101.568 58.6937 103.253 54.8344 106.623C54.8344 117.712 52.8776 128.094 48.9639 137.77C47.1158 142.336 44.6969 146.059 41.7073 148.94C38.772 151.767 35.728 153.18 32.5753 153.18C29.477 153.18 27.031 152.229 25.2372 150.326C23.4978 148.478 22.6281 145.896 22.6281 142.58C22.6281 139.21 23.8239 135.269 26.2156 130.758C28.6073 126.192 31.1349 122.305 33.7984 119.098C36.5162 115.837 39.2884 112.902 42.1149 110.292C42.1149 105.292 41.517 102.275 40.3212 101.242C39.7232 100.753 38.8535 100.508 37.712 100.508C36.6249 100.508 34.9942 100.997 32.8199 101.976C30.7 102.954 28.6617 104.286 26.7048 105.971L24.6664 103.117C26.5689 100.78 29.4227 98.5242 33.2276 96.3499C37.0326 94.1757 40.4027 93.0886 43.338 93.0886C46.3276 93.0886 48.6649 93.8767 50.35 95.4531C52.0894 96.9751 53.3124 98.9319 54.0191 101.324C61.5203 95.1813 67.4452 92.1101 71.7937 92.1101C73.968 92.1101 75.8161 92.7896 77.3381 94.1485C78.9144 95.5074 79.92 97.5458 80.3549 100.264C86.769 94.828 92.1231 92.1101 96.4173 92.1101C98.809 92.1101 100.82 93.0614 102.451 94.9639C104.136 96.8663 104.978 99.4483 104.978 102.71C104.978 105.917 103.647 112.412 100.983 122.197C98.3198 131.981 96.988 138.177 96.988 140.787C96.988 143.341 97.8034 144.619 99.4341 144.619C99.9776 144.619 100.657 144.483 101.472 144.211L102.695 147.309ZM31.0262 145.434C33.2004 145.434 35.3475 142.743 37.4674 137.362C39.6417 131.926 41.1093 125.132 41.8703 116.978C38.3915 120.566 35.266 124.833 32.4938 129.779C29.7216 134.671 28.3355 138.504 28.3355 141.276C28.3355 144.048 29.2324 145.434 31.0262 145.434ZM134.139 116.244C134.247 116.136 134.546 115.429 135.036 114.125C137.59 114.125 141.015 114.886 145.309 116.408C143.95 120.919 142.863 125.648 142.048 130.595C141.232 135.487 140.825 138.993 140.825 141.113C140.825 143.178 141.042 144.211 141.477 144.211C141.803 144.211 142.999 143.695 145.064 142.662L146.043 142.173L147.51 145.026C147.021 145.461 146.369 146.005 145.554 146.657C144.793 147.309 143.325 148.206 141.151 149.348C138.976 150.435 137.02 150.978 135.28 150.978C131.91 150.978 129.953 149.456 129.41 146.412C125.931 149.456 122.778 150.978 119.952 150.978C117.179 150.978 114.815 149.891 112.858 147.717C110.956 145.543 110.004 142.118 110.004 137.444C110.004 130.16 111.499 124.425 114.489 120.24C117.478 116 121.093 113.88 125.333 113.88C128.377 113.88 131.312 114.668 134.139 116.244ZM124.844 144.048C126.148 144.048 127.616 143.532 129.247 142.499C129.627 134.834 130.904 127.252 133.079 119.751C131.448 119.044 130.062 118.691 128.92 118.691C126.964 118.691 125.279 120.62 123.865 124.48C122.506 128.285 121.827 132.497 121.827 137.117C121.827 141.738 122.832 144.048 124.844 144.048ZM174.537 114.858C174.428 116.217 173.966 117.794 173.151 119.587C171.085 119.37 169.128 119.261 167.28 119.261H165.812C163.312 131.383 162.062 138.938 162.062 141.928C162.062 143.504 162.388 144.293 163.04 144.293C163.747 144.293 165.568 143.613 168.503 142.254L169.971 144.945C165.133 148.967 160.649 150.978 156.518 150.978C154.615 150.978 153.039 150.38 151.788 149.185C150.593 147.989 149.995 146.412 149.995 144.456C149.995 142.444 150.212 140.189 150.647 137.688C151.136 135.188 151.788 132.144 152.604 128.556C153.419 124.914 154.017 121.979 154.398 119.751C152.386 119.914 150.892 120.077 149.913 120.24C149.804 119.587 149.75 118.718 149.75 117.631C149.75 116.489 149.832 115.565 149.995 114.858H155.131C155.566 111.923 155.784 109.151 155.784 106.542L155.702 104.014V103.77C159.942 102.302 163.937 101.568 167.688 101.568C167.905 102.655 168.014 104.014 168.014 105.645C168.014 107.276 167.552 110.347 166.628 114.858H174.537ZM191.816 117.957C189.642 117.957 187.902 119.778 186.598 123.42C185.293 127.007 184.641 130.866 184.641 134.998C184.641 141.52 186.652 144.782 190.674 144.782C191.979 144.782 193.365 144.483 194.833 143.885C196.3 143.233 197.469 142.607 198.339 142.01L199.562 141.031L201.437 143.559C201.002 144.157 200.132 144.945 198.828 145.923C197.523 146.902 196.3 147.717 195.159 148.369C194.017 149.022 192.55 149.62 190.756 150.163C188.962 150.707 187.195 150.978 185.456 150.978C181.216 150.978 178.036 149.592 175.916 146.82C173.797 144.048 172.737 140.325 172.737 135.65C172.737 129.181 174.503 123.936 178.036 119.914C181.624 115.891 186.217 113.88 191.816 113.88C195.458 113.88 198.339 114.723 200.459 116.408C202.633 118.038 203.72 120.077 203.72 122.523C203.72 124.914 202.959 126.98 201.437 128.719C200.078 128.719 198.502 128.42 196.708 127.822C194.914 127.225 193.555 126.491 192.631 125.621L193.854 118.446C193.365 118.12 192.686 117.957 191.816 117.957ZM215.009 96.1869C215.009 94.3931 214.846 93.1157 214.52 92.3547C218.76 90.8871 222.755 90.1533 226.506 90.1533C226.995 90.6425 227.24 91.8927 227.24 93.9039C227.24 97.4914 225.718 105.754 222.674 118.691C227.077 115.484 230.936 113.88 234.252 113.88C236.317 113.88 237.866 114.532 238.899 115.837C239.986 117.141 240.53 118.881 240.53 121.055C240.53 123.175 239.905 126.681 238.654 131.573C237.404 136.411 236.779 139.727 236.779 141.52C236.779 143.314 236.997 144.211 237.431 144.211C237.866 144.211 239.008 143.722 240.856 142.743L241.834 142.254L243.302 145.108C242.813 145.543 242.16 146.086 241.345 146.739C240.53 147.391 239.035 148.261 236.861 149.348C234.686 150.435 232.675 150.978 230.827 150.978C229.033 150.978 227.593 150.408 226.506 149.266C225.419 148.07 224.875 146.494 224.875 144.537C224.875 142.526 225.473 138.911 226.669 133.693C227.919 128.42 228.544 125.105 228.544 123.746C228.544 122.332 227.973 121.626 226.832 121.626C225.419 121.626 223.652 122.224 221.532 123.42C218.543 136.574 217.048 145.108 217.048 149.022C214.765 149.891 210.878 150.326 205.388 150.326C205.334 149.402 205.307 148.587 205.307 147.88C205.307 145.543 206.91 137.552 210.117 123.909C213.379 110.265 215.009 101.025 215.009 96.1869ZM252.197 150.978C250.294 150.978 248.827 150.408 247.794 149.266C246.761 148.125 246.245 146.603 246.245 144.7C246.245 142.798 246.952 141.167 248.365 139.808C249.778 138.395 251.436 137.688 253.338 137.688C255.295 137.688 256.79 138.259 257.823 139.4C258.856 140.488 259.372 141.982 259.372 143.885C259.372 145.733 258.638 147.391 257.171 148.859C255.757 150.272 254.099 150.978 252.197 150.978ZM266.955 95.8607C266.955 101.242 265.188 109.695 261.655 121.218C261.383 122.142 260.867 123.827 260.106 126.273C259.399 128.665 258.856 130.513 258.475 131.818C257.008 132.307 255.703 132.552 254.561 132.552C253.474 132.552 252.496 132.497 251.626 132.388C253.583 120.593 254.561 110.184 254.561 101.161L254.072 94.3116C258.693 92.8439 262.824 92.1101 266.466 92.1101C266.792 92.5993 266.955 93.8495 266.955 95.8607Z"/>
</mask>
<path d="M93.6011 63.41L94.078 63.5603L94.0781 63.5599L93.6011 63.41ZM89.1167 74.2542L88.6755 74.0189L88.6741 74.0216L89.1167 74.2542ZM82.6754 82.0815L82.3701 81.6854L82.3611 81.6927L82.6754 82.0815ZM67.1022 82.2446L67.4709 81.9067L67.466 81.9016L67.1022 82.2446ZM69.7114 62.7577L69.3526 62.4095L69.3499 62.4122L69.7114 62.7577ZM83.3277 53.4627L83.535 53.9178L83.7729 53.8094L83.8196 53.5522L83.3277 53.4627ZM83.4092 34.1389L82.9656 34.3696V34.3696L83.4092 34.1389ZM75.5819 33.1605L75.7604 33.6275L75.5819 33.1605ZM70.2821 36.0142L69.8677 36.294L70.154 36.7182L70.5715 36.422L70.2821 36.0142ZM68.0807 32.7528L67.7501 32.3777L67.4203 32.6682L67.6662 33.0326L68.0807 32.7528ZM76.4788 27.4531L76.6874 27.9075L76.6906 27.906L76.4788 27.4531ZM82.5124 59.8225L83.0051 59.9076L83.1614 59.0023L82.3163 59.3625L82.5124 59.8225ZM74.0327 65.7745L74.398 66.116L74.4016 66.112L74.0327 65.7745ZM73.5435 77.271V77.771H73.5513L73.5591 77.7707L73.5435 77.271ZM78.5171 73.0311L78.084 72.7813L78.0825 72.784L78.5171 73.0311ZM86.0999 25.5886C89.6578 25.5886 92.2641 26.8664 94.005 29.3882C95.7691 31.9435 96.6887 35.8389 96.6887 41.1509H97.6887C97.6887 35.7548 96.7601 31.6189 94.8279 28.8201C92.8726 25.9877 89.9345 24.5886 86.0999 24.5886V25.5886ZM96.6887 41.1509C96.6887 48.3246 95.5021 55.6937 93.1241 63.2601L94.0781 63.5599C96.4835 55.9065 97.6887 48.4362 97.6887 41.1509H96.6887ZM93.1242 63.2598C91.8822 67.202 90.3988 70.7878 88.6755 74.0189L89.5579 74.4895C91.3135 71.1977 92.8197 67.5541 94.078 63.5603L93.1242 63.2598ZM88.6741 74.0216C87.0191 77.1713 84.9168 79.7225 82.3702 81.6855L82.9807 82.4775C85.6523 80.4182 87.8441 77.7511 89.5593 74.4867L88.6741 74.0216ZM82.3611 81.6927C79.8877 83.6924 77.1975 84.6799 74.2773 84.6799V85.6799C77.4451 85.6799 80.3536 84.6017 82.9898 82.4703L82.3611 81.6927ZM74.2773 84.6799C71.4083 84.6799 69.1574 83.7467 67.4708 81.9067L66.7337 82.5825C68.6346 84.6562 71.1671 85.6799 74.2773 85.6799V84.6799ZM67.466 81.9016C65.774 80.107 64.9116 77.7638 64.9116 74.8249H63.9116C63.9116 77.974 64.8429 80.5772 66.7384 82.5876L67.466 81.9016ZM64.9116 74.8249C64.9116 70.6274 66.6118 66.7239 70.0728 63.1032L69.3499 62.4122C65.7445 66.184 63.9116 70.3253 63.9116 74.8249H64.9116ZM70.0701 63.106C73.6075 59.4614 78.0921 56.3967 83.535 53.9178L83.1205 53.0077C77.5833 55.5296 72.9903 58.6616 69.3526 62.4095L70.0701 63.106ZM83.8196 53.5522C84.5851 49.342 84.9692 45.3981 84.9692 41.7217H83.9692C83.9692 45.3291 83.5923 49.2126 82.8358 53.3733L83.8196 53.5522ZM84.9692 41.7217C84.9692 39.8597 84.8803 38.279 84.6994 36.9846C84.5194 35.6968 84.2442 34.6608 83.8529 33.9083L82.9656 34.3696C83.281 34.976 83.5357 35.8832 83.709 37.123C83.8814 38.3562 83.9692 39.8874 83.9692 41.7217H84.9692ZM83.8529 33.9083C83.4695 33.171 82.9823 32.589 82.3795 32.1924C81.7735 31.7937 81.078 31.6006 80.3109 31.6006V32.6006C80.9028 32.6006 81.4031 32.7471 81.8299 33.0279C82.2598 33.3107 82.6424 33.748 82.9656 34.3696L83.8529 33.9083ZM80.3109 31.6006C78.9223 31.6006 77.282 31.9752 75.4033 32.6935L75.7604 33.6275C77.578 32.9326 79.0904 32.6006 80.3109 32.6006V31.6006ZM75.4033 32.6935C73.5142 33.4158 71.7106 34.3874 69.9927 35.6065L70.5715 36.422C72.2238 35.2494 73.9533 34.3185 75.7604 33.6275L75.4033 32.6935ZM70.6965 35.7345L68.4951 32.4731L67.6662 33.0326L69.8677 36.294L70.6965 35.7345ZM68.4112 33.128C70.6512 31.1547 73.4074 29.413 76.6873 27.9075L76.2702 26.9987C72.9187 28.5371 70.0761 30.3286 67.7501 32.3777L68.4112 33.128ZM76.6906 27.906C80.0088 26.3539 83.1436 25.5886 86.0999 25.5886V24.5886C82.9683 24.5886 79.6889 25.3996 76.2669 27.0002L76.6906 27.906ZM82.3163 59.3625C78.9376 60.8026 76.0513 62.8274 73.6638 65.437L74.4016 66.112C76.6888 63.6121 79.4556 61.6689 82.7084 60.2824L82.3163 59.3625ZM73.6674 65.4331C71.2713 67.9964 70.0267 70.6674 70.0267 73.4388H71.0267C71.0267 70.992 72.1194 68.5535 74.398 66.116L73.6674 65.4331ZM70.0267 73.4388C70.0267 74.7682 70.2861 75.8575 70.888 76.6222C71.5079 77.4097 72.4247 77.771 73.5435 77.771V76.771C72.6511 76.771 72.0595 76.4936 71.6738 76.0037C71.2702 75.4909 71.0267 74.6642 71.0267 73.4388H70.0267ZM73.5591 77.7707C75.5788 77.7076 77.3598 76.0781 78.9518 73.2783L78.0825 72.784C76.5218 75.5286 74.987 76.7256 73.5279 76.7712L73.5591 77.7707ZM78.9502 73.281C80.6257 70.3769 81.9693 65.9038 83.0051 59.9076L82.0197 59.7374C80.9898 65.6996 79.67 70.0323 78.084 72.7813L78.9502 73.281ZM124.294 46.8584L124.792 46.8983L124.836 46.3584H124.294V46.8584ZM122.908 51.5874L122.856 52.0847L123.214 52.1224L123.363 51.7943L122.908 51.5874ZM115.57 51.2613V50.7613H115.162L115.08 51.1603L115.57 51.2613ZM118.26 74.2542L118.699 74.0147L118.475 73.6038L118.05 73.8004L118.26 74.2542ZM119.728 76.9448L120.048 77.3293L120.364 77.0664L120.167 76.7054L119.728 76.9448ZM101.546 81.1847L101.192 81.5383L101.2 81.546L101.546 81.1847ZM100.404 69.6882L99.9134 69.5922L99.9116 69.6025L100.404 69.6882ZM102.361 60.5563L102.849 60.6671L102.849 60.6655L102.361 60.5563ZM104.155 51.7505L104.648 51.8347L104.756 51.2001L104.114 51.2521L104.155 51.7505ZM99.6704 52.2397L99.1772 52.3219L99.2594 52.8151L99.7526 52.7329L99.6704 52.2397ZM99.7519 46.8584V46.3584H99.3542L99.2647 46.746L99.7519 46.8584ZM104.889 46.8584V47.3584H105.32L105.383 46.9317L104.889 46.8584ZM105.541 38.5418H106.041V38.5338L106.041 38.5257L105.541 38.5418ZM105.459 36.0142H104.959V36.0223L104.96 36.0304L105.459 36.0142ZM105.459 35.7696L105.296 35.2971L104.959 35.4136V35.7696H105.459ZM117.445 33.5682L117.935 33.4701L117.855 33.0682H117.445V33.5682ZM116.385 46.8584L115.895 46.7581L115.772 47.3584H116.385V46.8584ZM123.796 46.8185C123.693 48.1001 123.254 49.6181 122.453 51.3805L123.363 51.7943C124.193 49.9692 124.677 48.3345 124.792 46.8983L123.796 46.8185ZM122.96 51.0902C120.879 50.8711 118.905 50.7613 117.037 50.7613V51.7613C118.866 51.7613 120.805 51.8689 122.856 52.0847L122.96 51.0902ZM117.037 50.7613H115.57V51.7613H117.037V50.7613ZM115.08 51.1603C113.829 57.2241 112.89 62.1505 112.263 65.9375C111.639 69.7133 111.319 72.3871 111.319 73.928H112.319C112.319 72.4794 112.625 69.8805 113.25 66.1008C113.874 62.3321 114.81 57.42 116.059 51.3623L115.08 51.1603ZM111.319 73.928C111.319 74.7357 111.4 75.4063 111.602 75.8926C111.704 76.1406 111.849 76.3676 112.056 76.5341C112.271 76.7072 112.525 76.7925 112.798 76.7925V75.7925C112.744 75.7925 112.713 75.7794 112.683 75.7554C112.645 75.7249 112.586 75.6563 112.526 75.5102C112.401 75.2084 112.319 74.6967 112.319 73.928H111.319ZM112.798 76.7925C113.041 76.7925 113.337 76.7364 113.666 76.648C114.003 76.5575 114.404 76.4244 114.868 76.2514C115.796 75.9053 116.998 75.3897 118.47 74.7079L118.05 73.8004C116.588 74.4776 115.412 74.9812 114.518 75.3145C114.072 75.4812 113.702 75.6029 113.407 75.6823C113.104 75.7638 112.908 75.7925 112.798 75.7925V76.7925ZM117.821 74.4936L119.289 77.1843L120.167 76.7054L118.699 74.0147L117.821 74.4936ZM119.408 76.5604C114.615 80.5455 110.242 82.4784 106.275 82.4784V83.4784C110.57 83.4784 115.165 81.389 120.048 77.3293L119.408 76.5604ZM106.275 82.4784C104.487 82.4784 103.039 81.9209 101.891 80.8233L101.2 81.546C102.553 82.8401 104.257 83.4784 106.275 83.4784V82.4784ZM101.899 80.8311C100.812 79.7438 100.252 78.3024 100.252 76.4556H99.2519C99.2519 78.5225 99.8877 80.2338 101.192 81.5382L101.899 80.8311ZM100.252 76.4556C100.252 74.4794 100.466 72.253 100.897 69.7739L99.9116 69.6025C99.473 72.1243 99.2519 74.4094 99.2519 76.4556H100.252ZM100.895 69.7842C101.383 67.2904 102.034 64.2517 102.849 60.6671L101.873 60.4455C101.057 64.036 100.404 67.0852 99.9135 69.5922L100.895 69.7842ZM102.849 60.6655C103.665 57.0199 104.265 54.0753 104.648 51.8347L103.662 51.6664C103.283 53.883 102.688 56.8089 101.873 60.4471L102.849 60.6655ZM104.114 51.2521C102.1 51.4154 100.588 51.5798 99.5882 51.7465L99.7526 52.7329C100.709 52.5735 102.187 52.4117 104.195 52.2489L104.114 51.2521ZM100.164 52.1575C100.061 51.5441 100.007 50.7053 100.007 49.6306H99.0073C99.0073 50.7301 99.062 51.6308 99.1772 52.3219L100.164 52.1575ZM100.007 49.6306C100.007 48.508 100.088 47.6258 100.239 46.9708L99.2647 46.746C99.0897 47.5042 99.0073 48.4702 99.0073 49.6306H100.007ZM99.7519 47.3584H104.889V46.3584H99.7519V47.3584ZM105.383 46.9317C105.821 43.9754 106.041 41.1785 106.041 38.5418H105.041C105.041 41.1234 104.826 43.8709 104.394 46.7851L105.383 46.9317ZM106.041 38.5257L105.959 35.9981L104.96 36.0304L105.041 38.5579L106.041 38.5257ZM105.959 36.0142V35.7696H104.959V36.0142H105.959ZM105.623 36.2421C109.82 34.7892 113.76 34.0682 117.445 34.0682V33.0682C113.629 33.0682 109.578 33.8148 105.296 35.2971L105.623 36.2421ZM116.955 33.6662C117.163 34.7099 117.271 36.0333 117.271 37.6449H118.271C118.271 35.9952 118.161 34.6008 117.935 33.4701L116.955 33.6662ZM117.271 37.6449C117.271 39.2173 116.821 42.2402 115.895 46.7581L116.875 46.9587C117.798 42.4534 118.271 39.334 118.271 37.6449H117.271ZM116.385 47.3584H124.294V46.3584H116.385V47.3584ZM130.321 47.2661L130.059 47.6916L130.418 47.9132L130.697 47.5964L130.321 47.2661ZM126.489 44.9016L126.07 44.6291L125.791 45.0583L126.226 45.3271L126.489 44.9016ZM131.218 34.9543L131.713 35.025L131.76 34.699L131.479 34.5275L131.218 34.9543ZM126.408 32.019H125.908V32.2997L126.147 32.4458L126.408 32.019ZM127.712 26.3931L127.265 26.1694L127.26 26.1802L127.712 26.3931ZM130.484 22.0718V21.5718H130.261L130.112 21.7384L130.484 22.0718ZM137.741 24.5178L137.405 24.8878L137.407 24.8904L137.741 24.5178ZM138.79 29.573C138.79 34.3862 135.903 40.1663 129.946 46.9358L130.697 47.5964C136.698 40.7767 139.79 34.7614 139.79 29.573H138.79ZM130.584 46.8406L126.752 44.476L126.226 45.3271L130.059 47.6916L130.584 46.8406ZM126.908 45.1741C129.737 40.8222 131.37 37.4261 131.713 35.025L130.723 34.8836C130.414 37.0484 128.894 40.2838 126.07 44.6291L126.908 45.1741ZM131.479 34.5275L126.668 31.5922L126.147 32.4458L130.958 35.3811L131.479 34.5275ZM126.908 32.019C126.908 30.1955 127.324 28.3925 128.164 26.606L127.26 26.1802C126.361 28.0899 125.908 30.0376 125.908 32.019H126.908ZM128.159 26.6167C129.072 24.7909 129.973 23.3929 130.857 22.4052L130.112 21.7384C129.147 22.8162 128.2 24.2991 127.265 26.1695L128.159 26.6167ZM130.484 22.5718C133.437 22.5718 135.725 23.3606 137.405 24.8878L138.077 24.1478C136.17 22.4136 133.62 21.5718 130.484 21.5718V22.5718ZM137.407 24.8904C138.277 25.6681 138.79 27.1672 138.79 29.573H139.79C139.79 27.0867 139.271 25.2156 138.074 24.1452L137.407 24.8904ZM163.752 79.717L163.462 79.3101L163.458 79.3127L163.752 79.717ZM144.266 80.5324L143.97 80.9359L143.975 80.9392L144.266 80.5324ZM143.776 72.5419L144.108 72.9163L144.114 72.9109L143.776 72.5419ZM148.587 69.3621L148.884 68.9602L148.685 68.8126L148.447 68.8821L148.587 69.3621ZM155.273 78.9017L154.809 79.0874L154.946 79.4298L155.313 79.4L155.273 78.9017ZM151.685 65.4484L151.323 65.7933L151.325 65.7955L151.685 65.4484ZM148.75 48.163L149.007 48.5918L149.014 48.5875L148.75 48.163ZM165.383 47.7553L165.091 48.1614L165.1 48.1673L165.383 47.7553ZM163.019 61.3716L162.646 61.0378L162.33 61.3903L162.665 61.7252L163.019 61.3716ZM164.486 62.9208L164.118 63.2587L164.125 63.2667L164.133 63.2744L164.486 62.9208ZM166.851 66.4268L167.287 66.1817L166.851 66.4268ZM160.491 58.5179L160.164 58.8958L160.489 59.178L160.816 58.8975L160.491 58.5179ZM156.904 50.6905L157.161 51.1193L157.171 51.1132L157.181 51.1066L156.904 50.6905ZM159.268 57.458L158.932 57.828L158.941 57.8358L159.268 57.458ZM167.818 71.3189C167.818 74.5653 166.389 77.2196 163.462 79.3102L164.043 80.1239C167.204 77.8659 168.818 74.9215 168.818 71.3189H167.818ZM163.458 79.3127C160.558 81.4219 157.238 82.4784 153.479 82.4784V83.4784C157.439 83.4784 160.968 82.3607 164.047 80.1214L163.458 79.3127ZM153.479 82.4784C149.686 82.4784 146.728 81.6767 144.556 80.1255L143.975 80.9392C146.369 82.6495 149.554 83.4784 153.479 83.4784V82.4784ZM144.561 80.1289C143.467 79.3285 142.672 78.5924 142.154 77.9231C141.635 77.2518 141.423 76.6849 141.423 76.211H140.423C140.423 76.9874 140.768 77.7657 141.363 78.5349C141.959 79.3061 142.836 80.1056 143.97 80.9359L144.561 80.1289ZM141.423 76.211C141.423 76.0097 141.565 75.6294 142.031 75.03C142.479 74.4532 143.167 73.7495 144.108 72.9162L143.445 72.1676C142.483 73.0194 141.744 73.7697 141.241 74.416C140.756 75.0396 140.423 75.6513 140.423 76.211H141.423ZM144.114 72.9109C146.002 71.1849 147.536 70.1895 148.727 69.8421L148.447 68.8821C147.029 69.2956 145.356 70.4202 143.439 72.1729L144.114 72.9109ZM148.29 69.764C150.909 71.7026 153.091 74.7931 154.809 79.0874L155.737 78.716C153.976 74.3131 151.7 71.0439 148.884 68.9602L148.29 69.764ZM155.313 79.4C156.382 79.3134 157.263 79.0119 157.879 78.4292C158.506 77.8361 158.79 77.0176 158.79 76.0479H157.79C157.79 76.8177 157.57 77.3445 157.192 77.7027C156.802 78.0713 156.175 78.3269 155.232 78.4033L155.313 79.4ZM158.79 76.0479C158.79 74.6611 158.184 73.0571 157.063 71.2583C155.937 69.4509 154.26 67.3979 152.045 65.1013L151.325 65.7955C153.514 68.0649 155.139 70.0615 156.214 71.7872C157.295 73.5215 157.79 74.9344 157.79 76.0479H158.79ZM152.047 65.1035C149.86 62.8083 148.236 60.7657 147.161 58.9741C146.082 57.1766 145.581 55.6715 145.581 54.4412H144.581C144.581 55.9286 145.18 57.617 146.303 59.4886C147.43 61.3661 149.108 63.4682 151.323 65.7933L152.047 65.1035ZM145.581 54.4412C145.581 51.9093 146.703 49.9744 149.007 48.5917L148.493 47.7342C145.905 49.2867 144.581 51.5373 144.581 54.4412H145.581ZM149.014 48.5875C151.367 47.1235 154.207 46.38 157.556 46.38V45.38C154.056 45.38 151.025 46.1585 148.486 47.7384L149.014 48.5875ZM157.556 46.38C160.99 46.38 163.475 46.9997 165.091 48.1613L165.675 47.3493C163.812 46.0104 161.079 45.38 157.556 45.38V46.38ZM165.1 48.1673C166.703 49.2694 167.492 50.7728 167.492 52.7289H168.492C168.492 50.4452 167.542 48.6329 165.666 47.3433L165.1 48.1673ZM167.492 52.7289C167.492 53.6362 167.125 54.7832 166.316 56.1894C165.51 57.5887 164.291 59.2042 162.646 61.0378L163.391 61.7055C165.062 59.8428 166.33 58.1697 167.182 56.6882C168.031 55.2134 168.492 53.8872 168.492 52.7289H167.492ZM162.665 61.7252C163.038 62.0984 163.522 62.6088 164.118 63.2587L164.855 62.5829C164.255 61.9282 163.76 61.4059 163.372 61.0181L162.665 61.7252ZM164.133 63.2744C164.677 63.819 165.437 64.9331 166.415 66.6719L167.287 66.1817C166.308 64.4417 165.491 63.2185 164.84 62.5672L164.133 63.2744ZM166.415 66.6719C167.364 68.3591 167.818 69.9055 167.818 71.3189H168.818C168.818 69.6884 168.294 67.9733 167.287 66.1817L166.415 66.6719ZM160.816 58.8975C163.146 56.9004 164.416 54.8444 164.416 52.7289H163.416C163.416 54.4184 162.402 56.2218 160.166 58.1383L160.816 58.8975ZM164.416 52.7289C164.416 51.6503 164.037 50.7719 163.232 50.1846C162.456 49.6187 161.352 49.3752 160.002 49.3752V50.3752C161.26 50.3752 162.114 50.6073 162.643 50.9926C163.142 51.3566 163.416 51.9051 163.416 52.7289H164.416ZM160.002 49.3752C158.68 49.3752 157.544 49.6629 156.626 50.2745L157.181 51.1066C157.894 50.6311 158.823 50.3752 160.002 50.3752V49.3752ZM156.646 50.2618C155.756 50.7962 155.18 51.502 155.18 52.4028H156.18C156.18 51.999 156.421 51.5633 157.161 51.1193L156.646 50.2618ZM155.18 52.4028C155.18 53.1558 155.551 53.9806 156.17 54.8528C156.797 55.7363 157.722 56.7285 158.932 57.8279L159.604 57.088C158.422 56.0131 157.554 55.0757 156.985 54.2741C156.408 53.4613 156.18 52.8456 156.18 52.4028H155.18ZM158.941 57.8358L160.164 58.8958L160.819 58.1401L159.595 57.0801L158.941 57.8358ZM212.728 48.2445L212.484 48.6812L212.814 48.8652L213.081 48.5981L212.728 48.2445ZM213.625 46.1246V45.6246H213.278L213.156 45.949L213.625 46.1246ZM223.898 48.4076L224.377 48.5518L224.514 48.0955L224.065 47.9363L223.898 48.4076ZM220.637 62.5947L221.13 62.6769L221.13 62.676L220.637 62.5947ZM223.653 74.6618L223.43 74.2146L223.653 74.6618ZM224.632 74.1726L225.076 73.944L224.85 73.5043L224.408 73.7254L224.632 74.1726ZM226.099 77.0264L226.432 77.4001L226.721 77.1425L226.544 76.7977L226.099 77.0264ZM224.143 78.6571L223.83 78.2666L223.824 78.2719L223.817 78.2774L224.143 78.6571ZM219.74 81.3477L219.963 81.795L219.972 81.7904L219.74 81.3477ZM207.999 78.4125L208.491 78.3246L208.335 77.4535L207.669 78.0362L207.999 78.4125ZM191.447 79.717L191.071 80.0463L191.075 80.0515L191.447 79.717ZM193.078 52.2397L193.485 52.5303L193.486 52.5279L193.078 52.2397ZM207.836 74.4988L208.103 74.9212L208.322 74.7825L208.335 74.5236L207.836 74.4988ZM211.668 51.7505L212.148 51.8897L212.27 51.4668L211.866 51.2917L211.668 51.7505ZM202.454 56.4795L201.985 56.3076L201.983 56.3114L202.454 56.4795ZM213.081 48.5981C213.139 48.5404 213.181 48.475 213.205 48.4346C213.234 48.3866 213.263 48.3321 213.292 48.2745C213.35 48.1589 213.417 48.0086 213.494 47.8278C213.647 47.465 213.847 46.9546 214.093 46.3001L213.156 45.949C212.913 46.5991 212.718 47.0944 212.573 47.4382C212.5 47.6107 212.442 47.739 212.398 47.8272C212.375 47.8716 212.36 47.9002 212.35 47.9168C212.335 47.9409 212.344 47.9214 212.374 47.8909L213.081 48.5981ZM213.625 46.6246C216.094 46.6246 219.455 47.3634 223.731 48.8788L224.065 47.9363C219.752 46.4078 216.264 45.6246 213.625 45.6246V46.6246ZM223.419 48.2634C222.054 52.7969 220.962 57.547 220.143 62.5133L221.13 62.676C221.942 57.7494 223.024 53.0415 224.377 48.5518L223.419 48.2634ZM220.143 62.5125C219.328 67.4054 218.913 70.9475 218.913 73.1127H219.913C219.913 71.0381 220.315 67.5681 221.13 62.6769L220.143 62.5125ZM218.913 73.1127C218.913 74.1538 218.968 74.9707 219.087 75.5394C219.146 75.8198 219.229 76.0812 219.358 76.2844C219.49 76.4941 219.721 76.711 220.066 76.711V75.711C220.193 75.711 220.234 75.7988 220.203 75.7504C220.168 75.6953 220.116 75.5694 220.066 75.3334C219.968 74.8694 219.913 74.1371 219.913 73.1127H218.913ZM220.066 76.711C220.239 76.711 220.446 76.6515 220.634 76.5877C220.842 76.517 221.101 76.4143 221.405 76.2828C222.016 76.0191 222.841 75.627 223.877 75.1091L223.43 74.2146C222.4 74.7295 221.594 75.112 221.009 75.3647C220.716 75.4913 220.485 75.5823 220.313 75.6407C220.12 75.706 220.056 75.711 220.066 75.711V76.711ZM223.877 75.1091L224.855 74.6199L224.408 73.7254L223.43 74.2146L223.877 75.1091ZM224.187 74.4013L225.655 77.255L226.544 76.7977L225.076 73.944L224.187 74.4013ZM225.767 76.6527C225.287 77.0794 224.642 77.617 223.83 78.2666L224.455 79.0475C225.274 78.3926 225.933 77.843 226.432 77.4001L225.767 76.6527ZM223.817 78.2774C223.104 78.8889 221.682 79.7631 219.507 80.905L219.972 81.7904C222.145 80.6494 223.659 79.7298 224.468 79.0367L223.817 78.2774ZM219.516 80.9005C217.385 81.9659 215.506 82.4784 213.869 82.4784V83.4784C215.711 83.4784 217.745 82.9038 219.963 81.7949L219.516 80.9005ZM213.869 82.4784C212.256 82.4784 211.045 82.1141 210.181 81.4423C209.322 80.7746 208.746 79.7562 208.491 78.3246L207.506 78.5004C207.794 80.1127 208.468 81.3773 209.567 82.2316C210.66 83.0817 212.112 83.4784 213.869 83.4784V82.4784ZM207.669 78.0362C204.227 81.0478 201.189 82.4784 198.541 82.4784V83.4784C201.545 83.4784 204.812 81.8651 208.328 78.7887L207.669 78.0362ZM198.541 82.4784C195.919 82.4784 193.687 81.458 191.819 79.3825L191.075 80.0515C193.121 82.3246 195.618 83.4784 198.541 83.4784V82.4784ZM191.823 79.3878C190.037 77.3464 189.093 74.0675 189.093 69.4436H188.093C188.093 74.1691 189.052 77.7391 191.071 80.0463L191.823 79.3878ZM189.093 69.4436C189.093 62.2221 190.576 56.6023 193.485 52.5303L192.671 51.9491C189.6 56.2481 188.093 62.0975 188.093 69.4436H189.093ZM193.486 52.5279C196.406 48.3873 199.882 46.38 203.922 46.38V45.38C199.482 45.38 195.729 47.6125 192.669 51.9516L193.486 52.5279ZM203.922 46.38C206.875 46.38 209.727 47.1436 212.484 48.6812L212.971 47.8078C210.075 46.1927 207.056 45.38 203.922 45.38V46.38ZM203.433 76.5479C204.867 76.5479 206.428 75.9818 208.103 74.9212L207.568 74.0764C205.981 75.0813 204.607 75.5479 203.433 75.5479V76.5479ZM208.335 74.5236C208.713 66.8987 209.984 59.3543 212.148 51.8897L211.187 51.6113C209.003 59.1491 207.719 66.7703 207.336 74.474L208.335 74.5236ZM211.866 51.2917C210.204 50.5714 208.747 50.1905 207.509 50.1905V51.1905C208.555 51.1905 209.87 51.5163 211.469 52.2093L211.866 51.2917ZM207.509 50.1905C206.345 50.1905 205.308 50.7711 204.401 51.8089C203.502 52.8393 202.701 54.3509 201.985 56.3076L202.924 56.6515C203.62 54.7488 204.369 53.3659 205.155 52.4667C205.933 51.5748 206.717 51.1905 207.509 51.1905V50.1905ZM201.983 56.3114C200.603 60.1775 199.916 64.4479 199.916 69.1175H200.916C200.916 64.5463 201.588 60.3916 202.925 56.6477L201.983 56.3114ZM199.916 69.1175C199.916 71.4485 200.167 73.2643 200.712 74.5149C200.986 75.1458 201.346 75.6572 201.809 76.0118C202.278 76.3714 202.827 76.5479 203.433 76.5479V75.5479C203.033 75.5479 202.701 75.4357 202.417 75.2178C202.126 74.9948 201.857 74.64 201.628 74.1158C201.167 73.0562 200.916 71.4067 200.916 69.1175H199.916ZM102.695 147.309L102.98 147.72L103.306 147.495L103.161 147.126L102.695 147.309ZM86.1439 148.777L85.7632 149.101L85.7702 149.109L86.1439 148.777ZM88.1007 124.561L88.5848 124.686L88.585 124.685L88.1007 124.561ZM80.1103 106.297L79.783 105.919L79.6635 106.023L79.6252 106.176L80.1103 106.297ZM77.4196 116.244L77.9021 116.376L77.9021 116.376L77.4196 116.244ZM71.4676 149.103L71.647 149.57L71.9565 149.451L71.9673 149.119L71.4676 149.103ZM58.9112 150.326H58.4112V150.826H58.9112V150.326ZM63.2325 127.007L63.7191 127.122L63.2325 127.007ZM54.8344 106.623L54.5055 106.247L54.3344 106.396V106.623H54.8344ZM48.9639 137.77L49.4274 137.957L49.4274 137.957L48.9639 137.77ZM41.7073 148.94L42.0541 149.3L42.0542 149.3L41.7073 148.94ZM25.2372 150.326L24.8731 150.669L24.8734 150.669L25.2372 150.326ZM26.2156 130.758L26.6574 130.992L26.6585 130.99L26.2156 130.758ZM33.7984 119.098L33.4143 118.778L33.4137 118.779L33.7984 119.098ZM42.1149 110.292L42.4541 110.66L42.6149 110.511V110.292H42.1149ZM40.3212 101.242L40.6481 100.864L40.6378 100.855L40.3212 101.242ZM32.8199 101.976L32.6148 101.52L32.6104 101.522L32.8199 101.976ZM26.7048 105.971L26.298 106.262L26.6162 106.707L27.0311 106.35L26.7048 105.971ZM24.6664 103.117L24.2787 102.802L24.0379 103.098L24.2596 103.408L24.6664 103.117ZM33.2276 96.3499L32.9796 95.9158L33.2276 96.3499ZM50.35 95.4531L50.0084 95.8182L50.0145 95.8239L50.0207 95.8294L50.35 95.4531ZM54.0191 101.324L53.5395 101.465L53.753 102.188L54.3358 101.71L54.0191 101.324ZM77.3381 94.1485L77.005 94.5215L77.0116 94.5272L77.3381 94.1485ZM80.3549 100.264L79.8611 100.343L80.0013 101.219L80.6781 100.645L80.3549 100.264ZM102.451 94.9639L102.071 95.2893L102.077 95.2954L102.451 94.9639ZM101.472 144.211L101.938 144.027L101.764 143.587L101.314 143.737L101.472 144.211ZM37.4674 137.362L37.0032 137.176L37.0022 137.179L37.4674 137.362ZM41.8703 116.978L42.3682 117.025L42.5002 115.611L41.5114 116.63L41.8703 116.978ZM32.4938 129.779L32.9288 130.026L32.93 130.024L32.4938 129.779ZM102.411 146.898C98.9299 149.308 95.7124 150.478 92.7482 150.478V151.478C95.9807 151.478 99.3947 150.203 102.98 147.72L102.411 146.898ZM92.7482 150.478C89.7113 150.478 87.6841 149.757 86.5176 148.445L85.7702 149.109C87.2128 150.732 89.5884 151.478 92.7482 151.478V150.478ZM86.5245 148.453C85.3686 147.096 84.7686 145.29 84.7686 142.988H83.7686C83.7686 145.469 84.4188 147.523 85.7632 149.101L86.5245 148.453ZM84.7686 142.988C84.7686 141.85 85.0767 139.764 85.7161 136.689C86.3525 133.629 87.3084 129.629 88.5848 124.686L87.6166 124.436C86.3383 129.386 85.3781 133.403 84.7371 136.486C84.0991 139.553 83.7686 141.734 83.7686 142.988H84.7686ZM88.585 124.685C89.8633 119.708 90.8235 115.671 91.4644 112.575C92.1024 109.494 92.4328 107.306 92.4328 106.053H91.4328C91.4328 107.19 91.1246 109.284 90.4852 112.372C89.8488 115.446 88.8929 119.467 87.6164 124.437L88.585 124.685ZM92.4328 106.053C92.4328 104.514 92.1628 103.27 91.5457 102.4C90.9063 101.498 89.9458 101.068 88.753 101.068V102.068C89.6801 102.068 90.3095 102.385 90.73 102.979C91.1729 103.603 91.4328 104.602 91.4328 106.053H92.4328ZM88.753 101.068C87.5754 101.068 86.2396 101.504 84.7624 102.312C83.28 103.123 81.6196 104.329 79.783 105.919L80.4375 106.675C82.2428 105.112 83.8438 103.954 85.2424 103.189C86.646 102.421 87.8107 102.068 88.753 102.068V101.068ZM79.6252 106.176C79.5181 106.604 78.6235 109.912 76.9371 116.113L77.9021 116.376C79.5858 110.184 80.485 106.86 80.5953 106.418L79.6252 106.176ZM76.9371 116.113C73.2367 129.718 71.2414 140.714 70.9678 149.087L71.9673 149.119C72.2372 140.859 74.21 129.949 77.9021 116.376L76.9371 116.113ZM71.2881 148.636C69.2642 149.415 65.5177 149.826 59.9711 149.826V150.826C65.5133 150.826 69.431 150.422 71.647 149.57L71.2881 148.636ZM59.9711 149.826H58.9112V150.826H59.9711V149.826ZM59.4112 150.326C59.4112 148.691 59.7631 145.946 60.4831 142.06C61.2013 138.185 62.2796 133.206 63.7191 127.122L62.7459 126.892C61.3046 132.984 60.2222 137.98 59.4999 141.878C58.7795 145.765 58.4112 148.591 58.4112 150.326H59.4112ZM63.7191 127.122C65.16 121.032 66.2418 116.209 66.9635 112.655C67.6807 109.123 68.0539 106.793 68.0539 105.726H67.0539C67.0539 106.671 66.7068 108.894 65.9835 112.456C65.2649 115.995 64.1859 120.806 62.7459 126.892L63.7191 127.122ZM68.0539 105.726C68.0539 104.287 67.7666 103.114 67.1078 102.294C66.4323 101.454 65.4348 101.068 64.2109 101.068V102.068C65.2157 102.068 65.8897 102.375 66.3284 102.921C66.784 103.488 67.0539 104.394 67.0539 105.726H68.0539ZM64.2109 101.068C62.9017 101.068 61.4388 101.528 59.8358 102.392C58.2293 103.258 56.4521 104.547 54.5055 106.247L55.1633 107C57.0761 105.33 58.7913 104.091 60.3103 103.272C61.8328 102.451 63.1284 102.068 64.2109 102.068V101.068ZM54.3344 106.623C54.3344 117.652 52.3885 127.97 48.5004 137.582L49.4274 137.957C53.3667 128.219 55.3344 117.772 55.3344 106.623H54.3344ZM48.5004 137.582C46.6738 142.095 44.2909 145.756 41.3603 148.58L42.0542 149.3C45.1029 146.362 47.5578 142.576 49.4274 137.957L48.5004 137.582ZM41.3604 148.58C38.4901 151.344 35.5641 152.68 32.5753 152.68V153.68C35.892 153.68 39.054 152.189 42.0541 149.3L41.3604 148.58ZM32.5753 152.68C29.5871 152.68 27.2829 151.767 25.601 149.983L24.8734 150.669C26.779 152.69 29.3669 153.68 32.5753 153.68V152.68ZM25.6013 149.983C23.9733 148.254 23.1281 145.809 23.1281 142.58H22.1281C22.1281 145.983 23.0222 148.702 24.8731 150.669L25.6013 149.983ZM23.1281 142.58C23.1281 139.323 24.2859 135.465 26.6574 130.992L25.7738 130.524C23.362 135.073 22.1281 139.097 22.1281 142.58H23.1281ZM26.6585 130.99C29.0376 126.448 31.5465 122.592 34.183 119.418L33.4137 118.779C30.7233 122.018 28.177 125.936 25.7727 130.526L26.6585 130.99ZM34.1825 119.418C36.8878 116.172 39.6451 113.253 42.4541 110.66L41.7758 109.925C38.9317 112.55 36.1446 115.502 33.4143 118.778L34.1825 119.418ZM42.6149 110.292C42.6149 107.777 42.4649 105.736 42.157 104.182C41.8538 102.652 41.3795 101.495 40.648 100.864L39.9944 101.62C40.4587 102.021 40.8813 102.889 41.176 104.376C41.466 105.839 41.6149 107.807 41.6149 110.292H42.6149ZM40.6378 100.855C39.9165 100.265 38.9157 100.008 37.712 100.008V101.008C38.7914 101.008 39.5299 101.241 40.0046 101.629L40.6378 100.855ZM37.712 100.008C36.5098 100.008 34.7946 100.539 32.6148 101.52L33.0251 102.432C35.1939 101.456 36.74 101.008 37.712 101.008V100.008ZM32.6104 101.522C30.4441 102.522 28.3669 103.88 26.3786 105.592L27.0311 106.35C28.9564 104.692 30.956 103.387 33.0295 102.43L32.6104 101.522ZM27.1117 105.68L25.0733 102.827L24.2596 103.408L26.298 106.262L27.1117 105.68ZM25.0542 103.433C26.9044 101.16 29.702 98.9405 33.4757 96.7841L32.9796 95.9158C29.1433 98.108 26.2334 100.4 24.2787 102.802L25.0542 103.433ZM33.4757 96.7841C37.2396 94.6333 40.5223 93.5885 43.338 93.5885V92.5885C40.2831 92.5885 36.8256 93.7181 32.9796 95.9158L33.4757 96.7841ZM43.338 93.5885C46.2395 93.5885 48.4408 94.3518 50.0084 95.8182L50.6916 95.0879C48.889 93.4017 46.4157 92.5885 43.338 92.5885V93.5885ZM50.0207 95.8294C51.6832 97.284 52.8575 99.157 53.5395 101.465L54.4986 101.182C53.7673 98.7068 52.4956 96.6661 50.6792 95.0768L50.0207 95.8294ZM54.3358 101.71C58.0705 98.6523 61.3975 96.3716 64.3187 94.8574C67.2447 93.3408 69.731 92.6101 71.7937 92.6101V91.6101C69.5078 91.6101 66.8575 92.4151 63.8585 93.9696C60.8549 95.5265 57.4688 97.8525 53.7023 100.937L54.3358 101.71ZM71.7937 92.6101C73.8539 92.6101 75.5811 93.25 77.0051 94.5215L77.6711 93.7755C76.0511 92.3291 74.082 91.6101 71.7937 91.6101V92.6101ZM77.0116 94.5272C78.4732 95.7872 79.4389 97.7033 79.8611 100.343L80.8486 100.185C80.4012 97.3883 79.3556 95.2276 77.6645 93.7698L77.0116 94.5272ZM80.6781 100.645C87.0761 95.2231 92.3117 92.6101 96.4173 92.6101V91.6101C91.9345 91.6101 86.4618 94.4329 80.0316 99.8822L80.6781 100.645ZM96.4173 92.6101C98.6552 92.6101 100.53 93.4916 102.071 95.2893L102.83 94.6385C101.11 92.6312 98.9627 91.6101 96.4173 91.6101V92.6101ZM102.077 95.2954C103.66 97.0829 104.478 99.5349 104.478 102.71H105.478C105.478 99.3617 104.612 96.6498 102.825 94.6323L102.077 95.2954ZM104.478 102.71C104.478 105.838 103.168 112.267 100.501 122.065L101.466 122.328C104.125 112.557 105.478 105.996 105.478 102.71H104.478ZM100.501 122.065C99.1679 126.962 98.1665 130.966 97.498 134.077C96.8322 137.175 96.488 139.423 96.488 140.787H97.488C97.488 139.541 97.8097 137.386 98.4757 134.287C99.1389 131.201 100.135 127.216 101.466 122.328L100.501 122.065ZM96.488 140.787C96.488 142.101 96.6949 143.173 97.1781 143.93C97.6857 144.725 98.4636 145.119 99.4341 145.119V144.119C98.7739 144.119 98.3288 143.874 98.021 143.392C97.6888 142.871 97.488 142.027 97.488 140.787H96.488ZM99.4341 145.119C100.053 145.119 100.79 144.965 101.631 144.685L101.314 143.737C100.524 144 99.902 144.119 99.4341 144.119V145.119ZM101.007 144.395L102.23 147.493L103.161 147.126L101.938 144.027L101.007 144.395ZM31.0262 145.934C32.3364 145.934 33.5451 145.123 34.658 143.728C35.7766 142.326 36.8651 140.255 37.9326 137.545L37.0022 137.179C35.9499 139.85 34.9049 141.815 33.8764 143.104C32.8422 144.4 31.8903 144.934 31.0262 144.934V145.934ZM37.9317 137.548C40.1293 132.054 41.6044 125.209 42.3682 117.025L41.3725 116.932C40.6143 125.055 39.1541 131.799 37.0032 137.176L37.9317 137.548ZM41.5114 116.63C37.9987 120.253 34.8482 124.556 32.0576 129.535L32.93 130.024C35.6838 125.11 38.7843 120.879 42.2293 117.326L41.5114 116.63ZM32.0588 129.533C29.2795 134.438 27.8355 138.366 27.8355 141.276H28.8355C28.8355 138.641 30.1638 134.905 32.9288 130.026L32.0588 129.533ZM27.8355 141.276C27.8355 142.7 28.063 143.854 28.5884 144.666C29.1381 145.516 29.9772 145.934 31.0262 145.934V144.934C30.2814 144.934 29.7752 144.659 29.428 144.123C29.0565 143.549 28.8355 142.624 28.8355 141.276H27.8355ZM134.139 116.244L133.895 116.681L134.225 116.865L134.492 116.598L134.139 116.244ZM135.036 114.125V113.625H134.689L134.567 113.949L135.036 114.125ZM145.309 116.408L145.788 116.552L145.925 116.095L145.476 115.936L145.309 116.408ZM142.048 130.595L142.541 130.677L142.541 130.676L142.048 130.595ZM145.064 142.662L144.841 142.215L145.064 142.662ZM146.043 142.173L146.487 141.944L146.261 141.504L145.819 141.725L146.043 142.173ZM147.51 145.026L147.843 145.4L148.132 145.142L147.955 144.798L147.51 145.026ZM145.554 146.657L145.241 146.267L145.235 146.272L145.228 146.277L145.554 146.657ZM141.151 149.348L141.374 149.795L141.383 149.79L141.151 149.348ZM129.41 146.412L129.902 146.325L129.746 145.453L129.08 146.036L129.41 146.412ZM112.858 147.717L112.482 148.046L112.486 148.051L112.858 147.717ZM114.489 120.24L114.896 120.53L114.897 120.528L114.489 120.24ZM129.247 142.499L129.514 142.921L129.733 142.782L129.746 142.524L129.247 142.499ZM133.079 119.751L133.559 119.89L133.682 119.467L133.278 119.292L133.079 119.751ZM123.865 124.48L123.396 124.308L123.394 124.311L123.865 124.48ZM134.492 116.598C134.55 116.54 134.592 116.475 134.616 116.435C134.645 116.387 134.674 116.332 134.703 116.274C134.761 116.159 134.828 116.009 134.905 115.828C135.058 115.465 135.258 114.955 135.504 114.3L134.567 113.949C134.324 114.599 134.129 115.094 133.984 115.438C133.911 115.611 133.853 115.739 133.809 115.827C133.787 115.872 133.771 115.9 133.761 115.917C133.746 115.941 133.755 115.921 133.785 115.891L134.492 116.598ZM135.036 114.625C137.505 114.625 140.866 115.363 145.142 116.879L145.476 115.936C141.163 114.408 137.675 113.625 135.036 113.625V114.625ZM144.83 116.263C143.465 120.797 142.373 125.547 141.554 130.513L142.541 130.676C143.353 125.749 144.435 121.041 145.788 116.552L144.83 116.263ZM141.554 130.512C140.739 135.405 140.325 138.947 140.325 141.113H141.325C141.325 139.038 141.726 135.568 142.541 130.677L141.554 130.512ZM140.325 141.113C140.325 142.154 140.379 142.971 140.498 143.539C140.557 143.82 140.64 144.081 140.769 144.284C140.901 144.494 141.132 144.711 141.477 144.711V143.711C141.604 143.711 141.645 143.799 141.614 143.75C141.579 143.695 141.527 143.569 141.477 143.333C141.379 142.869 141.325 142.137 141.325 141.113H140.325ZM141.477 144.711C141.65 144.711 141.857 144.651 142.045 144.588C142.253 144.517 142.512 144.414 142.817 144.283C143.427 144.019 144.252 143.627 145.288 143.109L144.841 142.215C143.811 142.729 143.005 143.112 142.42 143.365C142.127 143.491 141.896 143.582 141.724 143.641C141.531 143.706 141.467 143.711 141.477 143.711V144.711ZM145.288 143.109L146.266 142.62L145.819 141.725L144.841 142.215L145.288 143.109ZM145.598 142.401L147.066 145.255L147.955 144.798L146.487 141.944L145.598 142.401ZM147.178 144.653C146.698 145.079 146.053 145.617 145.241 146.267L145.866 147.048C146.685 146.393 147.344 145.843 147.843 145.4L147.178 144.653ZM145.228 146.277C144.515 146.889 143.093 147.763 140.918 148.905L141.383 149.79C143.557 148.649 145.07 147.73 145.879 147.037L145.228 146.277ZM140.927 148.901C138.796 149.966 136.917 150.478 135.28 150.478V151.478C137.122 151.478 139.157 150.904 141.374 149.795L140.927 148.901ZM135.28 150.478C133.667 150.478 132.456 150.114 131.592 149.442C130.734 148.775 130.158 147.756 129.902 146.325L128.917 146.5C129.205 148.113 129.88 149.377 130.978 150.232C132.071 151.082 133.524 151.478 135.28 151.478V150.478ZM129.08 146.036C125.639 149.048 122.601 150.478 119.952 150.478V151.478C122.956 151.478 126.223 149.865 129.739 146.789L129.08 146.036ZM119.952 150.478C117.33 150.478 115.098 149.458 113.23 147.383L112.486 148.051C114.532 150.325 117.029 151.478 119.952 151.478V150.478ZM113.234 147.388C111.448 145.346 110.504 142.068 110.504 137.444H109.504C109.504 142.169 110.463 145.739 112.482 148.046L113.234 147.388ZM110.504 137.444C110.504 130.222 111.987 124.602 114.896 120.53L114.082 119.949C111.011 124.248 109.504 130.097 109.504 137.444H110.504ZM114.897 120.528C117.817 116.387 121.293 114.38 125.333 114.38V113.38C120.893 113.38 117.14 115.612 114.08 119.952L114.897 120.528ZM125.333 114.38C128.286 114.38 131.138 115.144 133.895 116.681L134.382 115.808C131.486 114.193 128.468 113.38 125.333 113.38V114.38ZM124.844 144.548C126.278 144.548 127.839 143.982 129.514 142.921L128.979 142.076C127.392 143.081 126.018 143.548 124.844 143.548V144.548ZM129.746 142.524C130.125 134.899 131.395 127.354 133.559 119.89L132.598 119.611C130.414 127.149 129.13 134.77 128.747 142.474L129.746 142.524ZM133.278 119.292C131.615 118.571 130.158 118.191 128.92 118.191V119.191C129.966 119.191 131.281 119.516 132.88 120.209L133.278 119.292ZM128.92 118.191C127.756 118.191 126.719 118.771 125.812 119.809C124.913 120.839 124.112 122.351 123.396 124.308L124.335 124.651C125.032 122.749 125.78 121.366 126.566 120.467C127.344 119.575 128.128 119.191 128.92 119.191V118.191ZM123.394 124.311C122.014 128.177 121.327 132.448 121.327 137.117H122.327C122.327 132.546 122.999 128.392 124.336 124.648L123.394 124.311ZM121.327 137.117C121.327 139.449 121.578 141.264 122.123 142.515C122.397 143.146 122.757 143.657 123.22 144.012C123.69 144.371 124.238 144.548 124.844 144.548V143.548C124.444 143.548 124.112 143.436 123.828 143.218C123.537 142.995 123.268 142.64 123.04 142.116C122.578 141.056 122.327 139.407 122.327 137.117H121.327ZM174.537 114.858L175.035 114.898L175.078 114.358H174.537V114.858ZM173.151 119.587L173.098 120.085L173.457 120.122L173.606 119.794L173.151 119.587ZM165.812 119.261V118.761H165.405L165.323 119.16L165.812 119.261ZM168.503 142.254L168.942 142.015L168.718 141.604L168.293 141.8L168.503 142.254ZM169.971 144.945L170.29 145.329L170.607 145.066L170.41 144.705L169.971 144.945ZM151.788 149.185L151.435 149.538L151.443 149.546L151.788 149.185ZM150.647 137.688L150.156 137.592L150.154 137.603L150.647 137.688ZM152.604 128.556L153.091 128.667L153.092 128.666L152.604 128.556ZM154.398 119.751L154.89 119.835L154.999 119.2L154.357 119.252L154.398 119.751ZM149.913 120.24L149.42 120.322L149.502 120.815L149.995 120.733L149.913 120.24ZM149.995 114.858V114.358H149.597L149.508 114.746L149.995 114.858ZM155.131 114.858V115.358H155.563L155.626 114.932L155.131 114.858ZM155.784 106.542H156.284V106.534L156.283 106.526L155.784 106.542ZM155.702 104.014H155.202V104.022L155.202 104.03L155.702 104.014ZM155.702 103.77L155.539 103.297L155.202 103.414V103.77H155.702ZM167.688 101.568L168.178 101.47L168.098 101.068H167.688V101.568ZM166.628 114.858L166.138 114.758L166.015 115.358H166.628V114.858ZM174.038 114.819C173.936 116.1 173.497 117.618 172.695 119.381L173.606 119.794C174.435 117.969 174.92 116.335 175.035 114.898L174.038 114.819ZM173.203 119.09C171.122 118.871 169.148 118.761 167.28 118.761V119.761C169.109 119.761 171.048 119.869 173.098 120.085L173.203 119.09ZM167.28 118.761H165.812V119.761H167.28V118.761ZM165.323 119.16C164.072 125.224 163.133 130.151 162.506 133.938C161.881 137.713 161.562 140.387 161.562 141.928H162.562C162.562 140.479 162.867 137.881 163.493 134.101C164.116 130.332 165.053 125.42 166.302 119.362L165.323 119.16ZM161.562 141.928C161.562 142.736 161.643 143.406 161.844 143.893C161.947 144.141 162.092 144.368 162.299 144.534C162.513 144.707 162.768 144.793 163.04 144.793V143.793C162.987 143.793 162.956 143.779 162.926 143.755C162.888 143.725 162.829 143.656 162.768 143.51C162.644 143.208 162.562 142.697 162.562 141.928H161.562ZM163.04 144.793C163.283 144.793 163.58 144.736 163.909 144.648C164.246 144.558 164.647 144.424 165.111 144.251C166.038 143.905 167.241 143.39 168.713 142.708L168.293 141.8C166.831 142.478 165.655 142.981 164.761 143.315C164.314 143.481 163.945 143.603 163.649 143.682C163.346 143.764 163.151 143.793 163.04 143.793V144.793ZM168.064 142.494L169.532 145.184L170.41 144.705L168.942 142.015L168.064 142.494ZM169.651 144.56C164.858 148.545 160.484 150.478 156.518 150.478V151.478C160.813 151.478 165.408 149.389 170.29 145.329L169.651 144.56ZM156.518 150.478C154.73 150.478 153.282 149.921 152.134 148.823L151.443 149.546C152.796 150.84 154.5 151.478 156.518 151.478V150.478ZM152.142 148.831C151.055 147.744 150.495 146.302 150.495 144.456H149.495C149.495 146.523 150.13 148.234 151.435 149.538L152.142 148.831ZM150.495 144.456C150.495 142.479 150.708 140.253 151.14 137.774L150.154 137.603C149.716 140.124 149.495 142.409 149.495 144.456H150.495ZM151.138 137.784C151.626 135.29 152.277 132.252 153.091 128.667L152.116 128.445C151.3 132.036 150.647 135.085 150.156 137.592L151.138 137.784ZM153.092 128.666C153.908 125.02 154.508 122.075 154.89 119.835L153.905 119.666C153.526 121.883 152.93 124.809 152.116 128.447L153.092 128.666ZM154.357 119.252C152.343 119.415 150.831 119.58 149.831 119.747L149.995 120.733C150.952 120.573 152.43 120.412 154.438 120.249L154.357 119.252ZM150.406 120.158C150.304 119.544 150.25 118.705 150.25 117.631H149.25C149.25 118.73 149.305 119.631 149.42 120.322L150.406 120.158ZM150.25 117.631C150.25 116.508 150.331 115.626 150.482 114.971L149.508 114.746C149.333 115.504 149.25 116.47 149.25 117.631H150.25ZM149.995 115.358H155.131V114.358H149.995V115.358ZM155.626 114.932C156.064 111.975 156.284 109.179 156.284 106.542H155.284C155.284 109.123 155.069 111.871 154.637 114.785L155.626 114.932ZM156.283 106.526L156.202 103.998L155.202 104.03L155.284 106.558L156.283 106.526ZM156.202 104.014V103.77H155.202V104.014H156.202ZM155.866 104.242C160.063 102.789 164.003 102.068 167.688 102.068V101.068C163.872 101.068 159.821 101.815 155.539 103.297L155.866 104.242ZM167.198 101.666C167.406 102.71 167.514 104.033 167.514 105.645H168.514C168.514 103.995 168.404 102.601 168.178 101.47L167.198 101.666ZM167.514 105.645C167.514 107.217 167.063 110.24 166.138 114.758L167.118 114.959C168.04 110.453 168.514 107.334 168.514 105.645H167.514ZM166.628 115.358H174.537V114.358H166.628V115.358ZM186.598 123.42L187.067 123.59L187.068 123.588L186.598 123.42ZM194.833 143.885L195.021 144.348L195.029 144.345L195.036 144.342L194.833 143.885ZM198.339 142.01L198.622 142.422L198.637 142.411L198.651 142.4L198.339 142.01ZM199.562 141.031L199.963 140.733L199.654 140.317L199.249 140.641L199.562 141.031ZM201.437 143.559L201.841 143.853L202.057 143.556L201.838 143.261L201.437 143.559ZM198.828 145.923L199.128 146.323L198.828 145.923ZM195.159 148.369L195.407 148.803L195.159 148.369ZM190.756 150.163L190.901 150.642L190.756 150.163ZM175.916 146.82L176.314 146.516L175.916 146.82ZM178.036 119.914L177.663 119.581L177.661 119.584L178.036 119.914ZM200.459 116.408L200.147 116.799L200.159 116.808L200.459 116.408ZM201.437 128.719V129.219H201.664L201.813 129.049L201.437 128.719ZM196.708 127.822L196.866 127.348L196.708 127.822ZM192.631 125.621L192.138 125.537L192.093 125.801L192.288 125.985L192.631 125.621ZM193.854 118.446L194.347 118.53L194.402 118.21L194.132 118.03L193.854 118.446ZM191.816 117.457C189.294 117.457 187.442 119.58 186.127 123.251L187.068 123.588C188.362 119.976 189.989 118.457 191.816 118.457V117.457ZM186.128 123.249C184.802 126.895 184.141 130.813 184.141 134.998H185.141C185.141 130.92 185.784 127.119 187.067 123.59L186.128 123.249ZM184.141 134.998C184.141 138.294 184.646 140.851 185.724 142.598C186.826 144.385 188.5 145.282 190.674 145.282V144.282C188.826 144.282 187.484 143.548 186.575 142.073C185.641 140.559 185.141 138.224 185.141 134.998H184.141ZM190.674 145.282C192.056 145.282 193.506 144.965 195.021 144.348L194.644 143.422C193.224 144 191.902 144.282 190.674 144.282V145.282ZM195.036 144.342C196.518 143.683 197.717 143.043 198.622 142.422L198.055 141.598C197.22 142.172 196.082 142.782 194.63 143.428L195.036 144.342ZM198.651 142.4L199.874 141.422L199.249 140.641L198.026 141.619L198.651 142.4ZM199.16 141.329L201.035 143.857L201.838 143.261L199.963 140.733L199.16 141.329ZM201.033 143.265C200.645 143.797 199.829 144.548 198.528 145.523L199.128 146.323C200.436 145.342 201.359 144.516 201.841 143.853L201.033 143.265ZM198.528 145.523C197.236 146.492 196.031 147.295 194.911 147.935L195.407 148.803C196.57 148.139 197.81 147.311 199.128 146.323L198.528 145.523ZM194.911 147.935C193.812 148.563 192.383 149.148 190.611 149.685L190.901 150.642C192.717 150.091 194.222 149.48 195.407 148.803L194.911 147.935ZM190.611 149.685C188.86 150.215 187.143 150.478 185.456 150.478V151.478C187.248 151.478 189.064 151.198 190.901 150.642L190.611 149.685ZM185.456 150.478C181.335 150.478 178.318 149.138 176.314 146.516L175.519 147.124C177.754 150.047 181.098 151.478 185.456 151.478V150.478ZM176.314 146.516C174.28 143.857 173.237 140.252 173.237 135.65H172.237C172.237 140.397 173.313 144.239 175.519 147.124L176.314 146.516ZM173.237 135.65C173.237 129.276 174.975 124.157 178.412 120.244L177.661 119.584C174.031 123.715 172.237 129.086 172.237 135.65H173.237ZM178.41 120.246C181.898 116.335 186.353 114.38 191.816 114.38V113.38C186.081 113.38 181.35 115.447 177.663 119.581L178.41 120.246ZM191.816 114.38C195.384 114.38 198.142 115.205 200.147 116.799L200.77 116.016C198.535 114.24 195.532 113.38 191.816 113.38V114.38ZM200.159 116.808C202.223 118.356 203.22 120.253 203.22 122.523H204.22C204.22 119.9 203.043 117.721 200.759 116.008L200.159 116.808ZM203.22 122.523C203.22 124.798 202.5 126.745 201.061 128.39L201.813 129.049C203.418 127.215 204.22 125.031 204.22 122.523H203.22ZM201.437 128.219C200.148 128.219 198.627 127.935 196.866 127.348L196.55 128.297C198.376 128.906 200.008 129.219 201.437 129.219V128.219ZM196.866 127.348C195.11 126.763 193.826 126.059 192.974 125.257L192.288 125.985C193.285 126.923 194.718 127.686 196.55 128.297L196.866 127.348ZM193.124 125.705L194.347 118.53L193.361 118.362L192.138 125.537L193.124 125.705ZM194.132 118.03C193.53 117.629 192.74 117.457 191.816 117.457V118.457C192.631 118.457 193.2 118.611 193.577 118.862L194.132 118.03ZM214.52 92.3547L214.357 91.8822L213.849 92.058L214.061 92.5517L214.52 92.3547ZM226.506 90.1533L226.859 89.7997L226.713 89.6533H226.506V90.1533ZM222.674 118.691L222.187 118.576L221.878 119.889L222.968 119.095L222.674 118.691ZM238.899 115.837L238.507 116.147L238.515 116.157L238.899 115.837ZM238.654 131.573L239.139 131.698L239.139 131.697L238.654 131.573ZM240.856 142.743L240.632 142.296L240.622 142.301L240.856 142.743ZM241.834 142.254L242.279 142.025L242.053 141.586L241.611 141.807L241.834 142.254ZM243.302 145.108L243.634 145.482L243.924 145.224L243.747 144.879L243.302 145.108ZM241.345 146.739L241.658 147.129L241.345 146.739ZM236.861 149.348L237.084 149.795L236.861 149.348ZM226.506 149.266L226.136 149.603L226.144 149.611L226.506 149.266ZM226.669 133.693L226.182 133.578L226.181 133.581L226.669 133.693ZM221.532 123.42L221.286 122.984L221.094 123.093L221.045 123.309L221.532 123.42ZM217.048 149.022L217.226 149.489L217.548 149.366V149.022H217.048ZM205.388 150.326L204.889 150.355L204.917 150.826H205.388V150.326ZM210.117 123.909L209.631 123.793L209.63 123.794L210.117 123.909ZM215.509 96.1869C215.509 94.3862 215.349 93.0195 214.98 92.1578L214.061 92.5517C214.344 93.212 214.509 94.4001 214.509 96.1869H215.509ZM214.684 92.8272C218.881 91.3743 222.821 90.6533 226.506 90.6533V89.6533C222.69 89.6533 218.639 90.3999 214.357 91.8822L214.684 92.8272ZM226.152 90.5068C226.289 90.6434 226.448 90.9557 226.565 91.5539C226.679 92.1346 226.74 92.9143 226.74 93.9039H227.74C227.74 92.8823 227.678 92.0313 227.547 91.3618C227.419 90.7098 227.212 90.1524 226.859 89.7997L226.152 90.5068ZM226.74 93.9039C226.74 95.6477 226.367 98.5704 225.606 102.701C224.847 106.821 223.708 112.112 222.187 118.576L223.16 118.805C224.683 112.333 225.827 107.024 226.59 102.882C227.351 98.7498 227.74 95.7477 227.74 93.9039H226.74ZM222.968 119.095C227.336 115.913 231.09 114.38 234.252 114.38V113.38C230.781 113.38 226.817 115.054 222.379 118.286L222.968 119.095ZM234.252 114.38C236.205 114.38 237.592 114.991 238.507 116.147L239.291 115.526C238.141 114.074 236.429 113.38 234.252 113.38V114.38ZM238.515 116.157C239.508 117.349 240.03 118.964 240.03 121.055H241.03C241.03 118.797 240.464 116.934 239.283 115.517L238.515 116.157ZM240.03 121.055C240.03 123.106 239.42 126.557 238.17 131.449L239.139 131.697C240.389 126.805 241.03 123.244 241.03 121.055H240.03ZM238.17 131.448C236.922 136.278 236.279 139.654 236.279 141.52H237.279C237.279 139.8 237.887 136.543 239.139 131.698L238.17 131.448ZM236.279 141.52C236.279 142.427 236.333 143.148 236.456 143.656C236.517 143.907 236.604 144.148 236.742 144.337C236.889 144.539 237.12 144.711 237.431 144.711V143.711C237.526 143.711 237.567 143.771 237.55 143.749C237.525 143.713 237.476 143.618 237.428 143.421C237.334 143.032 237.279 142.407 237.279 141.52H236.279ZM237.431 144.711C237.617 144.711 237.828 144.662 238.038 144.597C238.258 144.529 238.516 144.43 238.811 144.304C239.4 144.051 240.161 143.677 241.09 143.185L240.622 142.301C239.703 142.788 238.969 143.148 238.417 143.385C238.14 143.503 237.916 143.588 237.742 143.642C237.558 143.699 237.463 143.711 237.431 143.711V144.711ZM241.08 143.191L242.058 142.701L241.611 141.807L240.632 142.296L241.08 143.191ZM241.39 142.483L242.857 145.337L243.747 144.879L242.279 142.025L241.39 142.483ZM242.97 144.734C242.49 145.161 241.845 145.699 241.033 146.348L241.658 147.129C242.476 146.474 243.136 145.925 243.634 145.482L242.97 144.734ZM241.033 146.348C240.263 146.964 238.81 147.814 236.637 148.901L237.084 149.795C239.26 148.707 240.797 147.817 241.658 147.129L241.033 146.348ZM236.637 148.901C234.511 149.963 232.577 150.478 230.827 150.478V151.478C232.773 151.478 234.862 150.906 237.084 149.795L236.637 148.901ZM230.827 150.478C229.15 150.478 227.847 149.95 226.868 148.921L226.144 149.611C227.339 150.866 228.917 151.478 230.827 151.478V150.478ZM226.876 148.93C225.889 147.845 225.375 146.397 225.375 144.537H224.375C224.375 146.591 224.948 148.296 226.136 149.603L226.876 148.93ZM225.375 144.537C225.375 142.59 225.959 139.027 227.156 133.805L226.181 133.581C224.987 138.795 224.375 142.462 224.375 144.537H225.375ZM227.155 133.808C227.781 131.168 228.252 129.013 228.567 127.344C228.879 125.688 229.044 124.477 229.044 123.746H228.044C228.044 124.373 227.897 125.5 227.584 127.159C227.273 128.806 226.807 130.945 226.182 133.578L227.155 133.808ZM229.044 123.746C229.044 122.985 228.893 122.321 228.505 121.842C228.101 121.341 227.511 121.126 226.832 121.126V122.126C227.294 122.126 227.56 122.264 227.727 122.47C227.91 122.697 228.044 123.093 228.044 123.746H229.044ZM226.832 121.126C225.291 121.126 223.434 121.773 221.286 122.984L221.778 123.855C223.87 122.675 225.546 122.126 226.832 122.126V121.126ZM221.045 123.309C218.058 136.448 216.548 145.041 216.548 149.022H217.548C217.548 145.175 219.027 136.7 222.02 123.53L221.045 123.309ZM216.87 148.554C214.68 149.389 210.874 149.826 205.388 149.826V150.826C210.882 150.826 214.85 150.394 217.226 149.489L216.87 148.554ZM205.887 150.297C205.833 149.38 205.807 148.574 205.807 147.88H204.807C204.807 148.599 204.834 149.424 204.889 150.355L205.887 150.297ZM205.807 147.88C205.807 146.771 206.195 144.242 207 140.233C207.8 136.245 209.001 130.843 210.604 124.023L209.63 123.794C208.026 130.618 206.822 136.033 206.019 140.036C205.22 144.017 204.807 146.652 204.807 147.88H205.807ZM210.604 124.025C213.863 110.39 215.509 101.093 215.509 96.1869H214.509C214.509 100.956 212.894 110.141 209.631 123.793L210.604 124.025ZM247.794 149.266L247.423 149.602L247.794 149.266ZM248.365 139.808L248.711 140.169L248.718 140.162L248.365 139.808ZM257.823 139.4L257.452 139.736L257.46 139.745L257.823 139.4ZM257.171 148.859L257.524 149.212L257.171 148.859ZM261.655 121.218L261.177 121.072L261.175 121.077L261.655 121.218ZM260.106 126.273L259.628 126.125L259.626 126.132L260.106 126.273ZM258.475 131.818L258.633 132.292L258.882 132.209L258.955 131.958L258.475 131.818ZM251.626 132.388L251.133 132.307L251.048 132.82L251.564 132.885L251.626 132.388ZM254.561 101.161H255.061V101.143L255.06 101.125L254.561 101.161ZM254.072 94.3116L253.921 93.835L253.545 93.9543L253.574 94.3472L254.072 94.3116ZM266.466 92.1101L266.882 91.8328L266.733 91.6101H266.466V92.1101ZM252.197 150.478C250.4 150.478 249.081 149.943 248.165 148.931L247.423 149.602C248.573 150.872 250.189 151.478 252.197 151.478V150.478ZM248.165 148.931C247.234 147.902 246.745 146.509 246.745 144.7H245.745C245.745 146.696 246.289 148.348 247.423 149.602L248.165 148.931ZM246.745 144.7C246.745 142.938 247.393 141.436 248.711 140.169L248.018 139.448C246.51 140.898 245.745 142.657 245.745 144.7H246.745ZM248.718 140.162C250.043 138.837 251.576 138.188 253.338 138.188V137.188C251.296 137.188 249.513 137.953 248.011 139.455L248.718 140.162ZM253.338 138.188C255.195 138.188 256.538 138.726 257.452 139.736L258.194 139.065C257.042 137.792 255.396 137.188 253.338 137.188V138.188ZM257.46 139.745C258.383 140.716 258.872 142.075 258.872 143.885H259.872C259.872 141.89 259.328 140.259 258.185 139.056L257.46 139.745ZM258.872 143.885C258.872 145.584 258.203 147.118 256.817 148.505L257.524 149.212C259.073 147.663 259.872 145.882 259.872 143.885H258.872ZM256.817 148.505C255.492 149.83 253.96 150.478 252.197 150.478V151.478C254.239 151.478 256.022 150.714 257.524 149.212L256.817 148.505ZM266.455 95.8607C266.455 101.161 264.709 109.551 261.177 121.072L262.133 121.365C265.667 109.838 267.455 101.323 267.455 95.8607H266.455ZM261.175 121.077C260.905 121.997 260.389 123.678 259.628 126.125L260.583 126.422C261.344 123.976 261.862 122.288 262.135 121.359L261.175 121.077ZM259.626 126.132C258.92 128.524 258.376 130.372 257.995 131.678L258.955 131.958C259.335 130.654 259.879 128.806 260.585 126.415L259.626 126.132ZM258.317 131.343C256.884 131.821 255.634 132.052 254.561 132.052V133.052C255.772 133.052 257.132 132.793 258.633 132.292L258.317 131.343ZM254.561 132.052C253.49 132.052 252.533 131.998 251.688 131.892L251.564 132.885C252.459 132.996 253.458 133.052 254.561 133.052V132.052ZM252.119 132.47C254.079 120.656 255.061 110.218 255.061 101.161H254.061C254.061 110.149 253.087 120.53 251.133 132.307L252.119 132.47ZM255.06 101.125L254.571 94.2759L253.574 94.3472L254.063 101.196L255.06 101.125ZM254.224 94.7881C258.81 93.3312 262.889 92.6101 266.466 92.6101V91.6101C262.759 91.6101 258.575 92.3567 253.921 93.835L254.224 94.7881ZM266.05 92.3875C266.144 92.5288 266.256 92.8625 266.337 93.4794C266.414 94.0743 266.455 94.8657 266.455 95.8607H267.455C267.455 94.8446 267.414 94.0053 267.328 93.35C267.246 92.7167 267.113 92.1806 266.882 91.8328L266.05 92.3875Z" fill="white" mask="url(#path-5-inside-1_157_3992)"/>
</g>
<defs>
<filter id="filter0_f_157_3992" x="-191.051" y="-30.9888" width="369.629" height="368.789" filterUnits="userSpaceOnUse" color-interpolation-filters="sRGB">
<feFlood flood-opacity="0" result="BackgroundImageFix"/>
<feBlend mode="normal" in="SourceGraphic" in2="BackgroundImageFix" result="shape"/>
<feGaussianBlur stdDeviation="62.5" result="effect1_foregroundBlur_157_3992"/>
</filter>
<filter id="filter1_f_157_3992" x="126.684" y="-42.7803" width="243.85" height="243.015" filterUnits="userSpaceOnUse" color-interpolation-filters="sRGB">
<feFlood flood-opacity="0" result="BackgroundImageFix"/>
<feBlend mode="normal" in="SourceGraphic" in2="BackgroundImageFix" result="shape"/>
<feGaussianBlur stdDeviation="31.25" result="effect1_foregroundBlur_157_3992"/>
</filter>
<filter id="filter2_d_157_3992" x="0.73101" y="0.174614" width="288.121" height="174.902" filterUnits="userSpaceOnUse" color-interpolation-filters="sRGB">
<feFlood flood-opacity="0" result="BackgroundImageFix"/>
<feColorMatrix in="SourceAlpha" type="matrix" values="0 0 0 0 0 0 0 0 0 0 0 0 0 0 0 0 0 0 127 0" result="hardAlpha"/>
<feOffset/>
<feGaussianBlur stdDeviation="10.9486"/>
<feColorMatrix type="matrix" values="0 0 0 0 0 0 0 0 0 0 0 0 0 0 0 0 0 0 0.25 0"/>
<feBlend mode="multiply" in2="BackgroundImageFix" result="effect1_dropShadow_157_3992"/>
<feBlend mode="normal" in="SourceGraphic" in2="effect1_dropShadow_157_3992" result="shape"/>
</filter>
<linearGradient id="paint0_linear_157_3992" x1="-66.466" y1="212.8" x2="52.32" y2="93.174" gradientUnits="userSpaceOnUse">
<stop stop-color="#9744D8"/>
<stop offset="0.481119" stop-color="#714BD8"/>
<stop offset="1" stop-color="#4453D8"/>
</linearGradient>
<linearGradient id="paint1_linear_157_3992" x1="188.771" y1="137.735" x2="306.783" y2="18.888" gradientUnits="userSpaceOnUse">
<stop stop-color="#9744D8"/>
<stop offset="0.481119" stop-color="#714BD8"/>
<stop offset="1" stop-color="#4453D8"/>
</linearGradient>
</defs>
</svg>
