<svg width="48" height="48" viewBox="0 0 48 48" fill="none" xmlns="http://www.w3.org/2000/svg">
<circle cx="24" cy="24" r="24" fill="url(#paint0_linear_692_8619)"/>
<path d="M22.6507 20.6461C23.0708 21.0762 23.0708 21.7732 22.6507 22.2034C21.9682 22.9024 21.0605 23.2873 20.0952 23.2873C19.1298 23.2873 18.2221 22.9024 17.5396 22.2034C17.1195 21.7732 17.1195 21.0762 17.5396 20.6461C17.9597 20.2162 18.6409 20.2162 19.0606 20.6461C19.3369 20.9291 19.7043 21.0848 20.0952 21.0848C20.486 21.0848 20.8534 20.9289 21.1298 20.6461C21.5496 20.216 22.2309 20.2157 22.6507 20.6461ZM29.3671 22.2034C29.7872 21.7732 29.7872 21.0762 29.3671 20.6461C28.9472 20.216 28.266 20.216 27.8462 20.6461C27.5698 20.9291 27.2024 21.0848 26.8115 21.0848C26.4207 21.0848 26.0533 20.9289 25.7769 20.6459C25.3568 20.216 24.6761 20.216 24.256 20.6459C23.8359 21.076 23.8359 21.7732 24.256 22.2031C24.9387 22.9019 25.8462 23.2869 26.8115 23.2869C27.7769 23.2869 28.6846 22.9019 29.3671 22.2029V22.2034ZM25.0267 26.3876C24.6068 26.8177 24.6068 27.5149 25.0267 27.9448C25.0505 27.9693 25.0626 27.9992 25.0626 28.034C25.0626 28.0688 25.0505 28.0986 25.0267 28.123C24.6066 28.5531 24.6066 29.2504 25.0267 29.6803C25.2368 29.8955 25.5119 30.0029 25.7873 30.0029C26.0626 30.0029 26.3377 29.8955 26.5476 29.6805C26.9774 29.2407 27.2138 28.656 27.2138 28.0338C27.2138 27.4117 26.9772 26.8269 26.5476 26.3871C26.1278 25.957 25.4468 25.9572 25.0267 26.3871V26.3876ZM36.1405 24.8111C36.6948 25.3787 37 26.1332 37 26.9357C37 27.7383 36.6948 28.493 36.1403 29.0603L33.5053 31.7575C33.2588 32.0099 32.9351 32.1359 32.6114 32.1359C32.2877 32.1359 31.964 32.0097 31.7175 31.7573L31.0352 31.0587C29.129 33.1175 26.436 34.4054 23.4532 34.4054C17.6893 34.4054 13 29.6041 13 23.7027C13 17.8013 17.6895 13 23.4535 13C29.2174 13 33.9065 17.8013 33.9065 23.7029C33.9065 23.7813 33.9024 23.8586 33.9007 23.9364C33.9553 23.9333 34.0102 23.9309 34.0654 23.9309C34.8493 23.9309 35.5862 24.2436 36.1405 24.8111ZM34.849 26.9357C34.849 26.7214 34.7675 26.5199 34.6195 26.3684C34.3167 26.0581 33.825 26.0555 33.5187 26.3609L33.5103 26.3695C33.2698 26.6162 32.9506 26.7518 32.6114 26.7518H32.6105C32.2718 26.7518 31.9534 26.616 31.7138 26.3697C31.5643 26.2167 31.3681 26.1336 31.1588 26.1336C31.1541 26.1336 31.1494 26.1336 31.1444 26.1336C30.93 26.1376 30.7308 26.2288 30.5839 26.3904C30.3004 26.7023 30.3238 27.2159 30.636 27.5357L32.6118 29.5587L34.6197 27.5035C34.7677 27.352 34.8493 27.1505 34.8493 26.9362L34.849 26.9357ZM29.5151 29.5026L29.1148 29.0927C27.9741 27.9248 27.9279 26.0784 29.0098 24.8893C29.5583 24.2863 30.3028 23.9463 31.1064 23.9315C31.3238 23.9267 31.5387 23.9483 31.7484 23.9919C31.7517 23.8956 31.7555 23.7998 31.7555 23.7029C31.7555 19.0157 28.0314 15.2023 23.4535 15.2023C18.8756 15.2023 15.1512 19.0157 15.1512 23.7029C15.1512 28.3902 18.8756 32.2033 23.4535 32.2033C25.8432 32.2033 27.9991 31.1627 29.5151 29.5026Z" fill="white"/>
<defs>
<linearGradient id="paint0_linear_692_8619" x1="5.14667e-06" y1="48" x2="48" y2="5.14667e-06" gradientUnits="userSpaceOnUse">
<stop stop-color="#5831F7"/>
<stop offset="0.493643" stop-color="#2470B5"/>
<stop offset="1" stop-color="#1BBFBF"/>
</linearGradient>
</defs>
</svg>
