<svg width="48" height="48" viewBox="0 0 48 48" fill="none" xmlns="http://www.w3.org/2000/svg">
<circle cx="24" cy="24" r="24" fill="#696868"/>
<g clip-path="url(#clip0_1137_12076)">
<path d="M24 12C21.0455 12.0021 18.1961 13.0966 16 15.073V13C16 12.7348 15.8946 12.4804 15.7071 12.2929C15.5196 12.1054 15.2652 12 15 12C14.7348 12 14.4804 12.1054 14.2929 12.2929C14.1054 12.4804 14 12.7348 14 13V16C14 16.7957 14.3161 17.5587 14.8787 18.1213C15.4413 18.6839 16.2044 19 17 19H20C20.2652 19 20.5196 18.8946 20.7071 18.7071C20.8946 18.5196 21 18.2652 21 18C21 17.7348 20.8946 17.4804 20.7071 17.2929C20.5196 17.1054 20.2652 17 20 17H17C16.9663 16.995 16.9329 16.988 16.9 16.979C18.5295 15.3378 20.6781 14.3131 22.9791 14.0797C25.28 13.8463 27.5906 14.4187 29.5165 15.6992C31.4424 16.9797 32.8642 18.8889 33.5392 21.101C34.2142 23.313 34.1005 25.6908 33.2176 27.8283C32.3347 29.9659 30.7372 31.7308 28.698 32.8218C26.6587 33.9127 24.304 34.2621 22.0358 33.8102C19.7676 33.3584 17.7266 32.1333 16.2611 30.3442C14.7955 28.5551 13.9964 26.3127 14 24C14 23.7348 13.8946 23.4804 13.7071 23.2929C13.5196 23.1054 13.2652 23 13 23C12.7348 23 12.4804 23.1054 12.2929 23.2929C12.1054 23.4804 12 23.7348 12 24C12 26.3734 12.7038 28.6935 14.0224 30.6668C15.3409 32.6402 17.2151 34.1783 19.4078 35.0866C21.6005 35.9948 24.0133 36.2324 26.3411 35.7694C28.6689 35.3064 30.8071 34.1635 32.4853 32.4853C34.1635 30.8071 35.3064 28.6689 35.7694 26.3411C36.2324 24.0133 35.9948 21.6005 35.0866 19.4078C34.1783 17.2151 32.6402 15.3409 30.6668 14.0224C28.6935 12.7038 26.3734 12 24 12Z" fill="white"/>
<path d="M24 18C23.7348 18 23.4804 18.1054 23.2929 18.2929C23.1054 18.4804 23 18.7348 23 19V24C23.0001 24.2652 23.1055 24.5195 23.293 24.707L26.293 27.707C26.4816 27.8892 26.7342 27.99 26.9964 27.9877C27.2586 27.9854 27.5094 27.8802 27.6948 27.6948C27.8802 27.5094 27.9854 27.2586 27.9877 26.9964C27.99 26.7342 27.8892 26.4816 27.707 26.293L25 23.586V19C25 18.7348 24.8946 18.4804 24.7071 18.2929C24.5196 18.1054 24.2652 18 24 18Z" fill="white"/>
</g>
<defs>
<clipPath id="clip0_1137_12076">
<rect width="24" height="24" fill="white" transform="translate(12 12)"/>
</clipPath>
</defs>
</svg>
