<svg width="48" height="48" viewBox="0 0 48 48" fill="none" xmlns="http://www.w3.org/2000/svg">
<circle cx="24" cy="24" r="24" fill="#696868"/>
<g clip-path="url(#clip0_1137_12083)">
<path d="M31 16H29.899C29.434 13.721 27.414 12 25 12H17C14.243 12 12 14.243 12 17V29.854C12 30.648 12.435 31.374 13.134 31.748C13.452 31.919 13.801 32.003 14.149 32.003C14.565 32.003 14.98 31.882 15.339 31.643L18.289 29.676C18.98 31.611 20.83 33 23 33H28.697L32.661 35.643C33.021 35.883 33.435 36.004 33.851 36.004C34.199 36.004 34.547 35.919 34.866 35.748C35.566 35.374 36 34.648 36 33.854V21C36 18.243 33.757 16 31 16ZM14.23 29.979C14.211 29.991 14.155 30.027 14.078 29.986C13.999 29.944 13.999 29.877 13.999 29.855V17C13.999 15.346 15.345 14 16.999 14H24.999C26.653 14 27.999 15.346 27.999 17V24C27.999 25.654 26.653 27 24.999 27H18.999C18.672 27 18.458 27.159 18.434 27.175L14.23 29.979ZM34 33.855C34 33.876 34 33.944 33.921 33.986C33.842 34.027 33.788 33.991 33.77 33.979L29.555 31.168C29.391 31.059 29.198 31 29 31H23C21.696 31 20.585 30.164 20.172 29H25C27.757 29 30 26.757 30 24V18H31C32.654 18 34 19.346 34 21V33.855Z" fill="white"/>
</g>
<defs>
<clipPath id="clip0_1137_12083">
<rect width="24" height="24" fill="white" transform="translate(12 12)"/>
</clipPath>
</defs>
</svg>
