<svg width="48" height="48" viewBox="0 0 48 48" fill="none" xmlns="http://www.w3.org/2000/svg">
<circle cx="24" cy="24" r="24" fill="url(#paint0_linear_692_8612)"/>
<g clip-path="url(#clip0_692_8612)">
<path d="M32.466 13.967L26.78 12.221C25.5249 11.8388 24.17 11.964 23.0063 12.5698C21.8425 13.1756 20.9628 14.2137 20.556 15.461L20.368 16H17C15.6744 16.0016 14.4036 16.5289 13.4662 17.4662C12.5289 18.4036 12.0016 19.6744 12 21V31C12.0016 32.3256 12.5289 33.5964 13.4662 34.5338C14.4036 35.4711 15.6744 35.9984 17 36H23C23.7575 35.9973 24.5044 35.8217 25.1838 35.4866C25.8631 35.1514 26.457 34.6655 26.92 34.066C27.1482 34.0991 27.3784 34.1165 27.609 34.118C28.6828 34.1188 29.7281 33.7723 30.5887 33.1301C31.4493 32.4879 32.0791 31.5846 32.384 30.555L35.8 20.156C36.1649 18.8933 36.0202 17.5378 35.3968 16.3807C34.7735 15.2235 33.7212 14.3569 32.466 13.967ZM23 34H17C16.2044 34 15.4413 33.6839 14.8787 33.1213C14.3161 32.5587 14 31.7956 14 31V21C14 20.2043 14.3161 19.4413 14.8787 18.8787C15.4413 18.3161 16.2044 18 17 18H23C23.7956 18 24.5587 18.3161 25.1213 18.8787C25.6839 19.4413 26 20.2043 26 21V31C26 31.7956 25.6839 32.5587 25.1213 33.1213C24.5587 33.6839 23.7956 34 23 34ZM33.887 19.563L30.475 29.963C30.3054 30.5383 29.9669 31.0494 29.5033 31.4299C29.0396 31.8105 28.4723 32.0429 27.875 32.097C27.9571 31.7371 27.999 31.3692 28 31V21C27.9984 19.6744 27.4711 18.4036 26.5338 17.4662C25.5964 16.5289 24.3256 16.0016 23 16H22.493C22.7511 15.2726 23.2797 14.6726 23.9688 14.3249C24.6579 13.9772 25.4545 13.9085 26.193 14.133L31.879 15.879C32.6279 16.1101 33.2569 16.6246 33.632 17.3127C34.0071 18.0009 34.0986 18.8083 33.887 19.563ZM24 25C24 26.45 22.456 28.391 21.286 29.378C20.9265 29.6821 20.4709 29.849 20 29.849C19.5291 29.849 19.0735 29.6821 18.714 29.378C17.544 28.391 16 26.45 16 25C16 24.4696 16.2107 23.9609 16.5858 23.5858C16.9609 23.2107 17.4696 23 18 23C18.5304 23 19.0391 23.2107 19.4142 23.5858C19.7893 23.9609 20 24.4696 20 25C20 24.4696 20.2107 23.9609 20.5858 23.5858C20.9609 23.2107 21.4696 23 22 23C22.5304 23 23.0391 23.2107 23.4142 23.5858C23.7893 23.9609 24 24.4696 24 25Z" fill="white"/>
</g>
<defs>
<linearGradient id="paint0_linear_692_8612" x1="5.14667e-06" y1="48" x2="48" y2="5.14667e-06" gradientUnits="userSpaceOnUse">
<stop stop-color="#5831F7"/>
<stop offset="0.493643" stop-color="#2470B5"/>
<stop offset="1" stop-color="#1BBFBF"/>
</linearGradient>
<clipPath id="clip0_692_8612">
<rect width="24" height="24" fill="white" transform="translate(12 12)"/>
</clipPath>
</defs>
</svg>
