<svg width="48" height="48" viewBox="0 0 48 48" fill="none" xmlns="http://www.w3.org/2000/svg">
<circle cx="24" cy="24" r="24" fill="url(#paint0_linear_1137_11764)"/>
<g clip-path="url(#clip0_1137_11764)">
<path d="M31 14H30V13C30 12.7348 29.8946 12.4804 29.7071 12.2929C29.5196 12.1054 29.2652 12 29 12C28.7348 12 28.4804 12.1054 28.2929 12.2929C28.1054 12.4804 28 12.7348 28 13V14H20V13C20 12.7348 19.8946 12.4804 19.7071 12.2929C19.5196 12.1054 19.2652 12 19 12C18.7348 12 18.4804 12.1054 18.2929 12.2929C18.1054 12.4804 18 12.7348 18 13V14H17C15.6744 14.0016 14.4036 14.5289 13.4662 15.4662C12.5289 16.4036 12.0016 17.6744 12 19L12 31C12.0016 32.3256 12.5289 33.5964 13.4662 34.5338C14.4036 35.4711 15.6744 35.9984 17 36H31C32.3256 35.9984 33.5964 35.4711 34.5338 34.5338C35.4711 33.5964 35.9984 32.3256 36 31V19C35.9984 17.6744 35.4711 16.4036 34.5338 15.4662C33.5964 14.5289 32.3256 14.0016 31 14ZM14 19C14 18.2044 14.3161 17.4413 14.8787 16.8787C15.4413 16.3161 16.2044 16 17 16H31C31.7956 16 32.5587 16.3161 33.1213 16.8787C33.6839 17.4413 34 18.2044 34 19V20H14V19ZM31 34H17C16.2044 34 15.4413 33.6839 14.8787 33.1213C14.3161 32.5587 14 31.7956 14 31V22H34V31C34 31.7956 33.6839 32.5587 33.1213 33.1213C32.5587 33.6839 31.7956 34 31 34Z" fill="white"/>
<path d="M24 28.5C24.8284 28.5 25.5 27.8284 25.5 27C25.5 26.1716 24.8284 25.5 24 25.5C23.1716 25.5 22.5 26.1716 22.5 27C22.5 27.8284 23.1716 28.5 24 28.5Z" fill="white"/>
<path d="M19 28.5C19.8284 28.5 20.5 27.8284 20.5 27C20.5 26.1716 19.8284 25.5 19 25.5C18.1716 25.5 17.5 26.1716 17.5 27C17.5 27.8284 18.1716 28.5 19 28.5Z" fill="white"/>
<path d="M29 28.5C29.8284 28.5 30.5 27.8284 30.5 27C30.5 26.1716 29.8284 25.5 29 25.5C28.1716 25.5 27.5 26.1716 27.5 27C27.5 27.8284 28.1716 28.5 29 28.5Z" fill="white"/>
</g>
<defs>
<linearGradient id="paint0_linear_1137_11764" x1="-0.166504" y1="48" x2="47.8335" y2="-6.19635e-07" gradientUnits="userSpaceOnUse">
<stop stop-color="#9744D8"/>
<stop offset="0.481119" stop-color="#714BD8"/>
<stop offset="1" stop-color="#4453D8"/>
</linearGradient>
<clipPath id="clip0_1137_11764">
<rect width="24" height="24" fill="white" transform="translate(12 12)"/>
</clipPath>
</defs>
</svg>
