<svg width="48" height="48" viewBox="0 0 48 48" fill="none" xmlns="http://www.w3.org/2000/svg">
<circle cx="24" cy="24" r="24" fill="url(#paint0_linear_1137_11775)"/>
<g clip-path="url(#clip0_1137_11775)">
<path d="M35.7196 34.3005L29.7592 28.3401C33.2557 24.0638 32.6235 17.7628 28.3473 14.2664C24.071 10.77 17.77 11.402 14.2736 15.6783C10.7771 19.9546 11.4093 26.2556 15.6855 29.752C19.3689 32.7637 24.664 32.7637 28.3473 29.752L34.3077 35.7124C34.7044 36.0955 35.3366 36.0846 35.7197 35.6879C36.0934 35.3009 36.0934 34.6874 35.7196 34.3005ZM14.0439 22.0252C14.0439 17.6132 17.6204 14.0367 22.0324 14.0367C26.4443 14.0367 30.0209 17.6132 30.0209 22.0252C30.0209 26.4371 26.4443 30.0136 22.0324 30.0136C17.6225 30.0087 14.0489 26.435 14.0439 22.0252ZM24.0295 18.0309C23.2836 18.0343 22.5678 18.3263 22.0324 18.8457C21.497 18.3263 20.7813 18.0343 20.0353 18.0309C18.3275 18.0901 16.9886 19.5182 17.0396 21.2263C17.0396 23.2234 19.0777 25.2834 20.7882 26.6584C21.5163 27.2383 22.5485 27.2383 23.2766 26.6584C24.9871 25.2834 27.0252 23.2234 27.0252 21.2263C27.0762 19.5182 25.7373 18.0901 24.0295 18.0309ZM22.0384 25.1007C20.187 23.6129 19.0367 22.125 19.0367 21.2263C18.9869 20.6214 19.4312 20.0881 20.0353 20.0281C20.6393 20.0881 21.0837 20.6214 21.0338 21.2263C21.0338 21.7778 21.4809 22.2249 22.0324 22.2249C22.5839 22.2249 23.031 21.7779 23.031 21.2263C22.9812 20.6214 23.4255 20.0881 24.0296 20.0281C24.6336 20.0881 25.078 20.6214 25.0282 21.2263C25.0281 22.125 23.8777 23.6129 22.0384 25.1007Z" fill="white"/>
</g>
<defs>
<linearGradient id="paint0_linear_1137_11775" x1="-0.166504" y1="48" x2="47.8335" y2="-6.19635e-07" gradientUnits="userSpaceOnUse">
<stop stop-color="#9744D8"/>
<stop offset="0.481119" stop-color="#714BD8"/>
<stop offset="1" stop-color="#4453D8"/>
</linearGradient>
<clipPath id="clip0_1137_11775">
<rect width="24" height="24" fill="white" transform="translate(12 12)"/>
</clipPath>
</defs>
</svg>
