<svg width="48" height="48" viewBox="0 0 48 48" fill="none" xmlns="http://www.w3.org/2000/svg">
<circle cx="24" cy="24" r="24" fill="url(#paint0_linear_692_8684)"/>
<g clip-path="url(#clip0_692_8684)">
<path d="M32 12H16C13.794 12 12 13.794 12 16V28C12 30.206 13.794 32 16 32H18.923L22.671 35.156C23.053 35.496 23.533 35.665 24.009 35.665C24.476 35.665 24.94 35.502 25.301 35.18L29.148 32H32C34.206 32 36 30.206 36 28V16C36 13.794 34.206 12 32 12ZM34 28C34 29.103 33.103 30 32 30H28.789C28.557 30 28.331 30.081 28.152 30.229L23.98 33.644L19.933 30.235C19.753 30.083 19.525 30 19.289 30H16C14.897 30 14 29.103 14 28V16C14 14.897 14.897 14 16 14H32C33.103 14 34 14.897 34 16V28ZM28.707 20.412C29.098 20.803 29.098 21.435 28.707 21.826C28.316 22.217 27.684 22.217 27.293 21.826L25 19.533V27C25 27.553 24.552 28 24 28C23.448 28 23 27.553 23 27V19.633L20.707 21.926C20.512 22.121 20.256 22.219 20 22.219C19.744 22.219 19.488 22.121 19.293 21.926C18.902 21.535 18.902 20.903 19.293 20.512L21.929 17.875C23.099 16.705 25.001 16.705 26.171 17.875L28.707 20.412Z" fill="white"/>
</g>
<defs>
<linearGradient id="paint0_linear_692_8684" x1="5.14667e-06" y1="48" x2="48" y2="5.14667e-06" gradientUnits="userSpaceOnUse">
<stop stop-color="#5831F7"/>
<stop offset="0.493643" stop-color="#2470B5"/>
<stop offset="1" stop-color="#1BBFBF"/>
</linearGradient>
<clipPath id="clip0_692_8684">
<rect width="24" height="24" fill="white" transform="translate(12 12)"/>
</clipPath>
</defs>
</svg>
