<svg width="48" height="48" viewBox="0 0 48 48" fill="none" xmlns="http://www.w3.org/2000/svg">
<circle cx="24" cy="24" r="24" fill="url(#paint0_linear_1137_11748)"/>
<path d="M20.0765 14.893C19.84 17.1857 18.6552 18.9778 17.1047 20.4989C16.2537 21.3338 15.5419 22.2372 15.0448 23.282L15.0448 23.282C14.4832 24.4619 14.352 25.7517 14.3573 27.1C14.3686 29.9574 15.3936 32.3562 17.5752 34.1999C21.0117 37.1039 26.032 37.2788 29.6595 34.6078C32.2536 32.6976 33.6381 30.1113 33.6428 26.8945C33.6472 23.9092 32.7443 21.1348 31.2289 18.5402C30.9416 18.0483 30.3156 18.0015 29.9659 18.4329L29.9624 18.4372C29.839 18.5916 29.755 18.8087 29.6642 19.0746L28.3226 20.4662C27.794 19.0186 27.1436 17.6346 26.3203 16.34C25.1148 14.4447 23.4289 13.0071 21.5944 11.6675L21.5943 11.6674C21.3569 11.494 21.1296 11.4509 20.895 11.5609L20.8949 11.561C20.6903 11.6569 20.5564 11.7701 20.4688 11.8991C20.3813 12.0279 20.3234 12.1968 20.3103 12.4309L20.3103 12.4309C20.275 13.0571 20.2068 13.6845 20.1398 14.3008C20.1182 14.4995 20.0967 14.697 20.0765 14.893ZM20.0765 14.893C20.0765 14.893 20.0765 14.893 20.0765 14.893L19.7212 14.8564L20.0765 14.893ZM30.2013 31.9728L29.9751 32.2257C27.8893 34.5585 25.2248 35.4397 22.1737 34.7653C19.1347 34.0934 17.0784 32.1984 16.2387 29.1727C15.7692 27.4809 15.8539 25.7537 16.5044 24.1141L30.2013 31.9728ZM30.2013 31.9728L30.196 31.9676M30.2013 31.9728L30.196 31.9676M30.196 31.9676C31.7559 30.0655 32.103 27.8135 31.8583 25.4602C31.7466 24.3854 31.3929 23.3812 31.0474 22.4002C31.0096 22.2927 30.9718 22.1854 30.9344 22.0783L30.7113 21.4387L30.3096 21.9842C30.291 22.0095 30.2732 22.0336 30.2559 22.057C30.2141 22.1136 30.1757 22.1656 30.1384 22.2172M30.196 31.9676L30.1384 22.2172M30.1384 22.2172C30.1384 22.2172 30.1384 22.2172 30.1385 22.2172L30.2681 22.3108M30.1384 22.2172L30.268 22.3108L30.2681 22.3108M30.1384 22.2172C29.7429 22.7647 29.3098 23.2422 28.7707 23.5915C28.1979 23.9626 27.5097 23.6723 27.3642 23.074C27.1845 22.335 26.9982 21.5734 26.7403 20.8353C26.0927 18.9819 25.2608 17.171 23.7902 15.7168C23.4785 15.4086 23.1509 15.1096 22.8132 14.8014C22.6558 14.6577 22.4962 14.512 22.3349 14.3624L21.8574 13.9193L21.7407 14.5602C21.7253 14.6448 21.7101 14.724 21.6957 14.7991C21.6668 14.9504 21.641 15.0852 21.6225 15.2154L21.6225 15.2154M30.1384 22.2172L21.6225 15.2154M30.2681 22.3108L30.5972 22.196C30.5778 22.2224 30.5595 22.2471 30.542 22.2707C30.5007 22.3267 30.4641 22.3763 30.4279 22.4263M30.2681 22.3108L30.4279 22.4263M30.4279 22.4263C30.3992 22.4661 30.3703 22.5055 30.341 22.5448C30.3141 22.4682 30.287 22.3911 30.26 22.3136L30.4279 22.4263ZM22.092 14.6242C22.075 14.7179 22.059 14.8011 22.0444 14.8777C22.0335 14.9344 22.0233 14.9874 22.014 15.0382C21.9597 14.9883 21.9047 14.9376 21.8491 14.886L22.092 14.6242ZM22.092 14.6242C22.1969 14.7215 22.3002 14.8163 22.402 14.9094C22.4145 14.8438 22.4283 14.7712 22.4434 14.6882L22.092 14.6242ZM21.6225 15.2154C21.3338 17.2509 20.5372 19.0541 19.2018 20.6192C19.0206 20.8316 18.8312 21.0464 18.6397 21.2637C18.2915 21.6586 17.936 22.0618 17.6087 22.474M21.6225 15.2154L17.6087 22.474M17.6087 22.474C17.5559 22.5405 17.5007 22.6087 17.4441 22.6786M17.6087 22.474L17.4441 22.6786M17.4441 22.6786C17.1064 23.0956 16.7184 23.5747 16.5045 24.1141L17.4441 22.6786Z" fill="white" stroke="white" stroke-width="0.714286"/>
<defs>
<linearGradient id="paint0_linear_1137_11748" x1="24" y1="0" x2="24" y2="48" gradientUnits="userSpaceOnUse">
<stop stop-color="#DB640E"/>
<stop offset="1" stop-color="#F6D425"/>
</linearGradient>
</defs>
</svg>
