<svg width="48" height="48" viewBox="0 0 48 48" fill="none" xmlns="http://www.w3.org/2000/svg">
<circle cx="24" cy="24" r="24" fill="url(#paint0_linear_1137_11752)"/>
<path d="M28 18C28.2652 18 28.5196 18.1054 28.7071 18.2929C28.8946 18.4804 29 18.7348 29 19C29 19.2652 28.8946 19.5196 28.7071 19.7071C28.5196 19.8946 28.2652 20 28 20H20C19.7348 20 19.4804 19.8946 19.2929 19.7071C19.1054 19.5196 19 19.2652 19 19C19 18.7348 19.1054 18.4804 19.2929 18.2929C19.4804 18.1054 19.7348 18 20 18H28ZM35.707 35.707C35.5195 35.8945 35.2652 35.9998 35 35.9998C34.7348 35.9998 34.4805 35.8945 34.293 35.707L31.886 33.3C31.1732 33.755 30.3456 33.9977 29.5 34C28.61 34 27.74 33.7361 26.9999 33.2416C26.2599 32.7471 25.6831 32.0443 25.3425 31.2221C25.0019 30.3998 24.9128 29.495 25.0865 28.6221C25.2601 27.7492 25.6887 26.9474 26.318 26.318C26.9474 25.6887 27.7492 25.2601 28.6221 25.0865C29.495 24.9128 30.3998 25.0019 31.2221 25.3425C32.0443 25.6831 32.7471 26.2599 33.2416 26.9999C33.7361 27.74 34 28.61 34 29.5C33.9977 30.3456 33.755 31.1732 33.3 31.886L35.707 34.293C35.8945 34.4805 35.9998 34.7348 35.9998 35C35.9998 35.2652 35.8945 35.5195 35.707 35.707ZM29.5 32C29.9945 32 30.4778 31.8534 30.8889 31.5787C31.3 31.304 31.6205 30.9135 31.8097 30.4567C31.9989 29.9999 32.0484 29.4972 31.952 29.0123C31.8555 28.5273 31.6174 28.0819 31.2678 27.7322C30.9181 27.3826 30.4727 27.1445 29.9877 27.048C29.5028 26.9516 29.0001 27.0011 28.5433 27.1903C28.0865 27.3795 27.696 27.7 27.4213 28.1111C27.1466 28.5222 27 29.0055 27 29.5C27 30.163 27.2634 30.7989 27.7322 31.2678C28.2011 31.7366 28.837 32 29.5 32ZM25 34H19C18.2044 34 17.4413 33.6839 16.8787 33.1213C16.3161 32.5587 16 31.7956 16 31V17C16 16.2044 16.3161 15.4413 16.8787 14.8787C17.4413 14.3161 18.2044 14 19 14H31C31.2652 14 31.5196 14.1054 31.7071 14.2929C31.8946 14.4804 32 14.7348 32 15V23C32 23.2652 32.1054 23.5196 32.2929 23.7071C32.4804 23.8946 32.7348 24 33 24C33.2652 24 33.5196 23.8946 33.7071 23.7071C33.8946 23.5196 34 23.2652 34 23V15C34 14.2044 33.6839 13.4413 33.1213 12.8787C32.5587 12.3161 31.7956 12 31 12H19C17.6744 12.0016 16.4036 12.5289 15.4662 13.4662C14.5289 14.4036 14.0016 15.6744 14 17V31C14.0016 32.3256 14.5289 33.5964 15.4662 34.5338C16.4036 35.4711 17.6744 35.9984 19 36H25C25.2652 36 25.5196 35.8946 25.7071 35.7071C25.8946 35.5196 26 35.2652 26 35C26 34.7348 25.8946 34.4804 25.7071 34.2929C25.5196 34.1054 25.2652 34 25 34Z" fill="white"/>
<defs>
<linearGradient id="paint0_linear_1137_11752" x1="-0.166504" y1="48" x2="47.8335" y2="-6.19635e-07" gradientUnits="userSpaceOnUse">
<stop stop-color="#9744D8"/>
<stop offset="0.481119" stop-color="#714BD8"/>
<stop offset="1" stop-color="#4453D8"/>
</linearGradient>
</defs>
</svg>
