<svg width="48" height="48" viewBox="0 0 48 48" fill="none" xmlns="http://www.w3.org/2000/svg">
<circle cx="24" cy="24" r="24" fill="url(#paint0_linear_1137_12051)"/>
<g clip-path="url(#clip0_1137_12051)">
<path d="M35.836 20.794C35.6315 20.1429 35.2228 19.5749 34.6705 19.174C34.1181 18.7731 33.4514 18.5606 32.769 18.568H28.4L27.073 14.432C26.8643 13.7809 26.4543 13.213 25.902 12.81C25.3497 12.4071 24.6837 12.1899 24 12.1899C23.3163 12.1899 22.6503 12.4071 22.098 12.81C21.5457 13.213 21.1357 13.7809 20.927 14.432L19.6 18.568H15.231C14.5508 18.5689 13.8882 18.7848 13.338 19.1849C12.7878 19.5849 12.3781 20.1485 12.1673 20.7953C11.9566 21.4421 11.9557 22.139 12.1647 22.7863C12.3737 23.4337 12.7819 23.9985 13.331 24.4L16.887 27L15.535 31.187C15.3165 31.8363 15.3138 32.539 15.5271 33.19C15.7405 33.8411 16.1586 34.4058 16.719 34.8C17.2699 35.2067 17.9374 35.4247 18.6222 35.4212C19.3069 35.4178 19.9723 35.1932 20.519 34.781L24 32.219L27.482 34.778C28.0319 35.1824 28.6958 35.4021 29.3784 35.4054C30.061 35.4087 30.727 35.1955 31.2808 34.7965C31.8345 34.3974 32.2475 33.833 32.4603 33.1844C32.6731 32.5359 32.6747 31.8365 32.465 31.187L31.113 27L34.673 24.4C35.2284 24.0035 35.6414 23.4388 35.8509 22.7893C36.0604 22.1398 36.0551 21.4402 35.836 20.794ZM33.493 22.785L29.349 25.814C29.1788 25.9381 29.0522 26.1129 28.9871 26.3133C28.9221 26.5137 28.9221 26.7295 28.987 26.93L30.562 31.8C30.6417 32.047 30.641 32.3129 30.5601 32.5595C30.4791 32.8061 30.322 33.0206 30.1114 33.1723C29.9008 33.324 29.6476 33.405 29.388 33.4037C29.1285 33.4024 28.876 33.3188 28.667 33.165L24.592 30.165C24.4204 30.0389 24.213 29.9709 24 29.9709C23.787 29.9709 23.5796 30.0389 23.408 30.165L19.333 33.165C19.1241 33.3209 18.8709 33.4062 18.6103 33.4086C18.3496 33.4109 18.095 33.3302 17.8832 33.1781C17.6715 33.026 17.5138 32.8104 17.4328 32.5626C17.3519 32.3148 17.3519 32.0477 17.433 31.8L19.013 26.93C19.0779 26.7295 19.0779 26.5137 19.0129 26.3133C18.9479 26.1129 18.8212 25.9381 18.651 25.814L14.507 22.785C14.2983 22.6322 14.1432 22.4173 14.064 22.1711C13.9847 21.9249 13.9852 21.6599 14.0655 21.4141C14.1458 21.1682 14.3017 20.954 14.5111 20.802C14.7204 20.6501 14.9724 20.5681 15.231 20.568H20.331C20.5427 20.5679 20.749 20.5007 20.9201 20.376C21.0911 20.2513 21.2182 20.0755 21.283 19.874L22.833 15.043C22.9126 14.7957 23.0685 14.5801 23.2784 14.4272C23.4883 14.2743 23.7413 14.1919 24.001 14.1919C24.2607 14.1919 24.5137 14.2743 24.7236 14.4272C24.9335 14.5801 25.0894 14.7957 25.169 15.043L26.719 19.874C26.7838 20.0755 26.9109 20.2513 27.082 20.376C27.253 20.5007 27.4593 20.5679 27.671 20.568H32.771C33.0297 20.5681 33.2817 20.6501 33.491 20.802C33.7003 20.954 33.8562 21.1682 33.9365 21.4141C34.0168 21.6599 34.0174 21.9249 33.9381 22.1711C33.8588 22.4173 33.7037 22.6322 33.495 22.785H33.493Z" fill="white"/>
</g>
<defs>
<linearGradient id="paint0_linear_1137_12051" x1="-0.166504" y1="48" x2="47.8335" y2="-6.19635e-07" gradientUnits="userSpaceOnUse">
<stop stop-color="#9744D8"/>
<stop offset="0.481119" stop-color="#714BD8"/>
<stop offset="1" stop-color="#4453D8"/>
</linearGradient>
<clipPath id="clip0_1137_12051">
<rect width="24" height="24" fill="white" transform="translate(12 12)"/>
</clipPath>
</defs>
</svg>
