<svg width="24" height="24" viewBox="0 0 24 24" fill="none" xmlns="http://www.w3.org/2000/svg">
<g clip-path="url(#clip0_262_49651)">
<path d="M9 10.9998C8.448 10.9998 8 10.5528 8 9.9998C8 8.6918 9.038 8.1208 9.481 7.8768C9.771 7.7178 10.076 7.3418 9.983 6.8108C9.914 6.4188 9.581 6.0858 9.19 6.0178C8.884 5.9618 8.588 6.0398 8.358 6.2338C8.13 6.4238 8 6.7038 8 7.0008C8 7.5538 7.552 8.0008 7 8.0008C6.448 8.0008 6 7.5538 6 7.0008C6 6.1118 6.391 5.2738 7.072 4.7018C7.753 4.1298 8.649 3.8878 9.535 4.0488C10.744 4.2598 11.739 5.2538 11.952 6.4658C12.175 7.7378 11.57 9.0088 10.446 9.6298C9.999 9.8758 9.999 9.9478 9.999 10.0008C9.999 10.5538 9.551 11.0008 8.999 11.0008L9 10.9998ZM9 11.9998C8.31 11.9998 7.75 12.5598 7.75 13.2498C7.75 13.9398 8.31 14.4998 9 14.4998C9.69 14.4998 10.25 13.9398 10.25 13.2498C10.25 12.5598 9.69 11.9998 9 11.9998ZM19.996 9.0798C19.99 9.8488 19.905 10.5978 19.748 11.3218C21.119 12.4228 22 14.1088 22 15.9998V20.9998C22 21.5518 21.552 21.9998 21 21.9998H16C14.109 21.9998 12.423 21.1188 11.322 19.7478C10.598 19.9038 9.849 19.9898 9.08 19.9958C10.465 22.3848 13.045 23.9998 16 23.9998H21C22.657 23.9998 24 22.6568 24 20.9998V15.9998C24 13.0448 22.385 10.4648 19.996 9.0798ZM17.977 9.6508C18.162 7.0378 17.209 4.4808 15.364 2.6348C13.519 0.788797 10.964 -0.167203 8.349 0.022797C3.823 0.342797 0 4.5888 0 9.2958V14.3338C0 16.3548 1.642 17.9998 3.661 17.9998H8.138C13.325 17.9998 17.647 14.3328 17.977 9.6508ZM13.95 4.0498C15.386 5.4848 16.126 7.4748 15.983 9.5098C15.73 13.0878 12.211 15.9988 8.138 15.9988H3.661C2.745 15.9988 2 15.2518 2 14.3328V9.2948C2 5.5988 4.972 2.2658 8.49 2.0168C8.657 2.0048 8.823 1.9988 8.989 1.9988C10.847 1.9988 12.633 2.7308 13.95 4.0498Z" fill="#C3C3C3"/>
</g>
<defs>
<clipPath id="clip0_262_49651">
<rect width="24" height="24" fill="white"/>
</clipPath>
</defs>
</svg>
