<svg width="128" height="128" viewBox="0 0 128 128" fill="none" xmlns="http://www.w3.org/2000/svg">
<path d="M121.419 24.352C119.47 23.5402 117.323 23.3268 115.253 23.739C113.182 24.1512 111.281 25.1704 109.792 26.6667L96 40.4587L71.5413 16C69.541 14.0003 66.8284 12.877 64 12.877C61.1716 12.877 58.459 14.0003 56.4587 16L32 40.4587L18.208 26.6667C16.7162 25.1754 14.8158 24.1598 12.747 23.7485C10.6782 23.3371 8.53382 23.5483 6.58502 24.3554C4.63622 25.1626 2.97048 26.5294 1.79838 28.2831C0.626284 30.0368 0.000450393 32.0987 0 34.208L0 90.6667C0.00846857 97.7365 2.8207 104.514 7.81984 109.514C12.819 114.513 19.5968 117.325 26.6667 117.333H101.333C108.403 117.325 115.181 114.513 120.18 109.514C125.179 104.514 127.992 97.7365 128 90.6667V34.208C128.001 32.0985 127.376 30.0362 126.204 28.2819C125.033 26.5275 123.367 25.1599 121.419 24.352ZM117.333 90.6667C117.333 94.9101 115.648 98.9798 112.647 101.98C109.646 104.981 105.577 106.667 101.333 106.667H26.6667C22.4232 106.667 18.3535 104.981 15.353 101.98C12.3524 98.9798 10.6667 94.9101 10.6667 90.6667V34.208L28.2293 51.7707C29.2295 52.7705 30.5858 53.3322 32 53.3322C33.4142 53.3322 34.7705 52.7705 35.7707 51.7707L64 23.5413L92.2293 51.7707C93.2295 52.7705 94.5858 53.3322 96 53.3322C97.4142 53.3322 98.7705 52.7705 99.7707 51.7707L117.333 34.208V90.6667Z" fill="url(#paint0_linear_692_8415)"/>
<defs>
<linearGradient id="paint0_linear_692_8415" x1="-14.72" y1="106.365" x2="114.609" y2="130.198" gradientUnits="userSpaceOnUse">
<stop offset="0.0769689" stop-color="#8942BC"/>
<stop offset="0.451876" stop-color="#5831F7"/>
<stop offset="0.451976" stop-color="#5731F8"/>
<stop offset="0.863441" stop-color="#00C2C2"/>
</linearGradient>
</defs>
</svg>
