<svg width="185" height="83" viewBox="0 0 185 83" fill="none" xmlns="http://www.w3.org/2000/svg">
<path fill-rule="evenodd" clip-rule="evenodd" d="M51.311 73.2336C49.5607 74.6595 47.6891 75.3734 45.6976 75.3734C43.7061 75.3734 41.7527 74.8211 39.8423 73.7181C37.9305 72.6141 36.3819 71.4972 35.1981 70.3669C34.0132 69.2364 32.3311 67.4863 30.1504 65.1178C27.9698 62.749 26.4758 61.1608 25.6681 60.3533C22.8137 63.422 19.3404 64.9563 15.2493 64.9563C12.5564 64.9563 10.3492 64.2823 8.62656 62.9374C6.90392 61.5922 6.04242 59.802 6.04242 57.567C6.04242 55.3321 6.97104 53.4219 8.82865 51.8334C10.6866 50.2459 13.176 49.4509 16.2993 49.4509C18.0761 49.4509 19.853 49.7474 21.6302 50.3392C22.1675 47.7019 22.5994 43.9599 22.9224 39.1146C19.6376 38.5227 16.9587 37.1359 14.8861 34.9555C12.8131 32.7751 11.7768 29.7466 11.7768 25.8707C11.7768 24.3643 12.0191 22.4527 12.5037 20.137C13.0952 20.0297 13.8763 19.9755 14.8455 19.9755C15.8147 19.9755 16.8105 20.3527 17.8338 21.1061C17.1335 22.3982 16.7839 24.1217 16.7839 26.2741C16.7839 30.6349 18.9104 33.3275 23.164 34.3496C23.3787 28.4821 23.7017 24.35 24.1332 21.9539C24.5636 19.5588 25.3171 17.27 26.3946 15.0896C27.4712 12.9092 29.262 10.9582 31.7657 9.23505C34.2695 7.51263 37.4595 6.65088 41.3363 6.65088C45.213 6.65088 48.2139 7.79509 50.3418 10.0828C52.4683 12.3716 53.5323 15.0771 53.5323 18.1986C53.5323 22.5593 51.5257 26.9607 47.515 31.4022C43.5033 35.8438 38.5361 38.5489 32.6136 39.518C30.9441 46.786 29.7326 51.7121 28.9791 54.2962C29.8396 54.9423 31.4147 56.1536 33.7041 57.9302C35.9918 59.7069 37.7424 61.0129 38.9539 61.8467C40.1654 62.6823 41.8069 63.516 43.8806 64.3505C45.9525 65.1842 47.9591 65.602 49.8978 65.602L53.29 65.3597C54.205 66.6518 54.8242 67.7013 55.1476 68.5088C54.3399 70.2313 53.0602 71.8062 51.311 73.2332V73.2336ZM14.5225 58.8993C16.4063 58.8993 18.0758 57.8771 19.5296 55.8306C17.9674 54.8615 16.4063 54.3766 14.8452 54.3766C12.5295 54.3766 11.3722 55.1314 11.3722 56.6381C11.3722 57.3926 11.6953 57.9579 12.3414 58.334C12.9875 58.7112 13.7148 58.8993 14.5225 58.8993ZM48.121 18.9254C48.121 17.3102 47.7031 15.9916 46.8693 14.9683C46.034 13.9461 44.9173 13.4343 43.5173 13.4343C39.9094 13.4343 37.2707 17.3648 35.6023 25.2246C34.6859 29.5323 34.0397 32.6541 33.6639 34.5923C37.6483 33.8935 41.0542 31.9148 43.881 28.6569C46.7077 25.4001 48.121 22.1563 48.121 18.9261V18.9254ZM59.9922 64.9558C56.277 64.9558 53.3694 63.6508 51.2695 61.039C49.1692 58.4286 48.1196 54.7803 48.1196 50.0968C48.1196 44.1212 49.7213 38.9802 52.9254 34.6725C56.1284 30.3659 60.5579 28.2121 66.2115 28.2121L69.1191 28.3736C70.0341 27.8887 71.0574 27.6468 72.1882 27.6468C76.4411 27.6468 78.5686 31.658 78.5686 39.6793C80.4288 39.5889 82.3092 39.364 84.2083 39.0052C84.9008 37.4778 85.7532 36.0335 86.7655 34.6725C89.9685 30.3659 94.398 28.2121 100.052 28.2121L102.959 28.3736C103.874 27.8887 104.898 27.6468 106.028 27.6468C110.281 27.6468 112.409 31.658 112.409 39.6793C114.424 39.5813 116.463 39.3257 118.523 38.9128C118.538 38.1171 118.546 37.3225 118.546 36.5289C118.546 35.6686 118.235 34.645 117.617 33.4602C116.997 32.2765 116.365 31.334 115.719 30.6338L115.961 29.6647C118.869 28.6956 121.494 28.2111 123.836 28.2111L123.835 28.2122C126.178 28.2122 127.927 28.6967 129.085 29.6658C130.243 30.6348 130.822 32.6272 130.822 35.6417C130.822 37.2568 130.337 40.5548 129.368 45.534C128.399 50.5143 127.914 53.5425 127.914 54.6188C127.914 56.7727 128.344 57.8491 129.207 57.8491C131.252 57.8491 133.5 56.3287 135.95 53.2862C138.4 50.2451 139.678 47.7012 139.787 45.6546L134.295 39.5172C134.509 37.2029 135.075 35.1033 135.991 33.2183C136.906 31.3344 137.768 30.0157 138.575 29.2613L139.706 28.2114C142.02 28.2114 143.771 28.8309 144.956 30.0688C146.139 31.3078 146.732 32.7614 146.732 34.4296C146.732 38.6831 145.682 43.1788 143.583 47.9154C141.483 52.6534 138.683 56.6776 135.183 59.9885C131.683 63.2999 128.129 64.9552 124.522 64.9552C122.261 64.9552 120.524 64.2549 119.313 62.8552C118.101 61.4561 117.496 59.6124 117.496 57.3236C117.496 55.0348 117.67 51.9532 118.021 48.0769C118.189 46.2117 118.317 44.3529 118.404 42.5003C117.053 42.9074 115.486 43.2859 113.701 43.636L112.086 43.959C111.063 49.6119 108.989 54.5251 105.867 58.6967C102.744 62.8694 98.7321 64.9554 93.8334 64.9554L93.8323 64.9558C90.1171 64.9558 87.2095 63.6508 85.1096 61.039C83.0094 58.4286 81.9598 54.7803 81.9598 50.0968C81.9598 47.5766 82.2447 45.2048 82.8145 42.9813C81.9067 43.2096 80.9223 43.4278 79.8613 43.636L78.2459 43.959C77.2226 49.6119 75.1492 54.5251 72.0274 58.6967C68.9041 62.8694 64.892 64.9554 59.9933 64.9554L59.9922 64.9558ZM64.3535 58.0105C66.615 58.0105 68.6467 56.5569 70.4512 53.65C72.2542 50.7425 73.5063 47.6741 74.2066 44.4439C68.4446 44.4439 65.565 42.2915 65.565 37.9835C65.565 36.261 65.9147 34.6459 66.615 33.1381L67.0188 32.3306C66.8027 32.2233 66.5339 32.1691 66.2112 32.1691C65.8885 32.1691 65.6458 32.2233 65.4843 32.3306C64.1378 33.1923 62.8721 35.2112 61.6883 38.3873C60.5034 41.5647 59.9118 45.1987 59.9118 49.2892C59.9118 55.1036 61.3918 58.0108 64.3539 58.0108L64.3535 58.0105ZM104.291 53.65C102.487 56.5569 100.455 58.0105 98.1937 58.0105L98.194 58.0108C95.2319 58.0108 93.7519 55.1036 93.7519 49.2892C93.7519 45.1987 94.3435 41.5647 95.5284 38.3873C96.7122 35.2112 97.9779 33.1923 99.3244 32.3306C99.4859 32.2233 99.7286 32.1691 100.051 32.1691C100.374 32.1691 100.643 32.2233 100.859 32.3306L100.455 33.1381C99.7548 34.6459 99.4051 36.261 99.4051 37.9835C99.4051 42.2915 102.285 44.4439 108.047 44.4439C107.346 47.6741 106.094 50.7425 104.291 53.65ZM148.832 64.2291H149.398H149.398C154.997 64.2291 158.739 63.8533 160.625 63.0989C160.57 62.614 160.544 61.7802 160.544 60.5951C160.544 57.3117 161.782 50.0969 164.259 38.9526C165.281 37.822 166.466 37.0145 167.813 36.5299C168.243 36.5299 168.889 37.2567 169.751 38.7103C170.611 40.1639 171.07 40.8907 171.124 40.8907C172.416 40.6761 173.749 40.1108 175.122 39.1945C176.495 38.2796 177.41 37.5668 177.868 37.0547C178.324 36.5436 178.688 36.1258 178.958 35.8028C178.958 30.7432 177.504 28.2121 174.597 28.2121C172.604 28.2121 170.666 29.0197 168.782 30.6348C166.896 32.2499 165.658 33.542 165.067 34.5111C165.067 31.9811 164.743 30.0164 164.097 28.6159C157.689 28.6159 153.032 29.0197 150.125 29.8272L150.044 30.8771L150.771 31.8461C152.277 33.8385 153.032 35.6696 153.032 37.3375C153.032 38.3066 152.305 42.1563 150.851 48.8855C149.398 55.6162 148.671 59.7477 148.671 61.2817C148.671 62.8157 148.724 63.7991 148.832 64.2291Z" fill="white"/>
</svg>
