<svg width="215" height="100" viewBox="0 0 215 100" fill="none" xmlns="http://www.w3.org/2000/svg">
<path d="M61.075 76.6C60.075 78.7333 58.475 80.6667 56.275 82.4C54.1417 84.2 51.8417 85.1 49.375 85.1C46.9083 85.1 44.475 84.4 42.075 83C39.7417 81.6667 37.8417 80.3 36.375 78.9C34.9083 77.5 32.8083 75.3333 30.075 72.4C27.4083 69.4667 25.575 67.5 24.575 66.5C21.0417 70.3 16.7417 72.2 11.675 72.2C8.34167 72.2 5.60833 71.3667 3.475 69.7C1.34167 68.0333 0.275 65.8333 0.275 63.1C0.275 60.3 1.40833 57.9333 3.675 56C6.00833 54 9.10833 53 12.975 53C15.175 53 17.375 53.3667 19.575 54.1C20.2417 50.8333 20.775 46.2 21.175 40.2C17.1083 39.4667 13.775 37.7667 11.175 35.1C8.64167 32.3667 7.375 28.6 7.375 23.8C7.375 21.9333 7.675 19.5667 8.275 16.7C9.00833 16.5667 9.975 16.5 11.175 16.5C12.375 16.5 13.6083 16.9667 14.875 17.9C14.0083 19.5 13.575 21.6333 13.575 24.3C13.575 29.7 16.2083 33.0333 21.475 34.3C21.7417 27.0333 22.1417 21.9333 22.675 19C23.2083 16 24.1417 13.1667 25.475 10.5C26.8083 7.76666 29.0083 5.33333 32.075 3.2C35.2083 1.06666 39.175 -3.8147e-06 43.975 -3.8147e-06C48.775 -3.8147e-06 52.475 1.43333 55.075 4.29999C57.7417 7.1 59.075 10.4333 59.075 14.3C59.075 19.7 56.575 25.1667 51.575 30.7C46.6417 36.1667 40.5083 39.5 33.175 40.7C31.1083 49.7 29.6083 55.8 28.675 59C29.7417 59.8 31.675 61.3 34.475 63.5C37.3417 65.7 39.5083 67.3333 40.975 68.4C42.5083 69.4 44.5417 70.4 47.075 71.4C49.675 72.4667 52.175 73 54.575 73L58.775 72.7C59.9083 74.3 60.675 75.6 61.075 76.6ZM52.375 15.2C52.375 13.2 51.8417 11.5667 50.775 10.3C49.775 9.03333 48.4083 8.4 46.675 8.4C42.2083 8.4 38.9417 13.2667 36.875 23C35.7417 28.3333 34.9417 32.2 34.475 34.6C39.4083 33.7333 43.6083 31.3 47.075 27.3C50.6083 23.2333 52.375 19.2 52.375 15.2ZM10.775 64.7C13.1083 64.7 15.175 63.4333 16.975 60.9C15.0417 59.7 13.1083 59.1 11.175 59.1C8.30833 59.1 6.875 60.0333 6.875 61.9C6.875 62.8333 7.275 63.5333 8.075 64C8.875 64.4667 9.775 64.7 10.775 64.7ZM67.043 72.2C62.443 72.2 58.843 70.6 56.243 67.4C53.643 64.1333 52.343 59.6 52.343 53.8C52.343 46.4 54.3096 40.0333 58.243 34.7C62.243 29.3667 67.743 26.7 74.743 26.7L78.343 26.9C79.4763 26.3 80.743 26 82.143 26C87.4096 26 90.043 30.9667 90.043 40.9C92.7763 40.7667 95.543 40.4 98.343 39.8L99.943 39.4L100.543 43.3C98.343 44.2333 95.3763 45.0667 91.643 45.8L89.643 46.2C88.3763 53.2 85.8096 59.3 81.943 64.5C78.0763 69.6333 73.1096 72.2 67.043 72.2ZM72.443 63.6C75.243 63.6 77.743 61.8 79.943 58.2C82.2096 54.6 83.7763 50.8 84.643 46.8C77.5096 46.8 73.943 44.1333 73.943 38.8C73.943 36.6667 74.3763 34.6667 75.243 32.8L75.743 31.8C75.4763 31.6667 75.143 31.6 74.743 31.6C74.343 31.6 74.043 31.6667 73.843 31.8C72.1763 32.8667 70.6096 35.3667 69.143 39.3C67.6763 43.2333 66.943 47.7333 66.943 52.8C66.943 60 68.7763 63.6 72.443 63.6ZM108.938 72.2C104.338 72.2 100.738 70.6 98.1375 67.4C95.5375 64.1333 94.2375 59.6 94.2375 53.8C94.2375 46.4 96.2042 40.0333 100.138 34.7C104.138 29.3667 109.638 26.7 116.638 26.7L120.238 26.9C121.371 26.3 122.638 26 124.038 26C129.304 26 131.938 30.9667 131.938 40.9C134.671 40.7667 137.438 40.4 140.238 39.8L141.838 39.4L142.437 43.3C140.238 44.2333 137.271 45.0667 133.538 45.8L131.538 46.2C130.271 53.2 127.704 59.3 123.838 64.5C119.971 69.6333 115.004 72.2 108.938 72.2ZM114.338 63.6C117.138 63.6 119.638 61.8 121.838 58.2C124.104 54.6 125.671 50.8 126.538 46.8C119.404 46.8 115.838 44.1333 115.838 38.8C115.838 36.6667 116.271 34.6667 117.138 32.8L117.637 31.8C117.371 31.6667 117.038 31.6 116.638 31.6C116.238 31.6 115.938 31.6667 115.738 31.8C114.071 32.8667 112.504 35.3667 111.038 39.3C109.571 43.2333 108.838 47.7333 108.838 52.8C108.838 60 110.671 63.6 114.338 63.6ZM146.044 26.7C148.977 26.7 151.144 27.3 152.544 28.5C154.01 29.7 154.744 32.1667 154.744 35.9C154.744 37.9 154.144 42 152.944 48.2C151.744 54.3333 151.144 58.0667 151.144 59.4C151.144 62.0667 151.677 63.4 152.744 63.4C155.277 63.4 158.044 61.5333 161.044 57.8C164.11 54 165.71 50.8333 165.844 48.3L159.044 40.7C159.31 37.8333 160.01 35.2333 161.144 32.9C162.277 30.5667 163.344 28.9333 164.344 28L165.744 26.7C168.61 26.7 170.777 27.4667 172.244 29C173.71 30.5333 174.444 32.3333 174.444 34.4C174.444 39.6667 173.144 45.2333 170.544 51.1C167.944 56.9667 164.477 61.9667 160.144 66.1C155.81 70.1667 151.41 72.2 146.944 72.2C144.144 72.2 141.977 71.3333 140.444 69.6C138.977 67.8667 138.244 65.6 138.244 62.8C138.244 59.9333 138.444 56.1 138.844 51.3C139.31 46.5 139.544 41.7333 139.544 37C139.544 35.9333 139.144 34.6667 138.344 33.2C137.61 31.7333 136.844 30.5667 136.044 29.7L136.344 28.5C139.944 27.3 143.177 26.7 146.044 26.7ZM177.699 71.3H176.999C176.866 70.7667 176.799 69.5667 176.799 67.7C176.799 65.7667 177.699 60.6333 179.499 52.3C181.299 43.9667 182.199 39.2 182.199 38C182.199 35.9333 181.266 33.6667 179.399 31.2L178.499 30L178.599 28.7C182.199 27.7 187.966 27.2 195.899 27.2C196.699 28.9333 197.099 31.3667 197.099 34.5C197.833 33.3 199.366 31.7 201.699 29.7C204.033 27.7 206.433 26.7 208.899 26.7C212.499 26.7 214.299 29.8333 214.299 36.1C213.966 36.5 213.499 37.0333 212.899 37.7C212.366 38.3 211.233 39.1667 209.499 40.3C207.833 41.4333 206.199 42.1333 204.599 42.4C204.533 42.4 203.966 41.5 202.899 39.7C201.833 37.9 201.033 37 200.499 37C198.833 37.6 197.366 38.6 196.099 40C193.033 53.8 191.499 62.7333 191.499 66.8C191.499 68.2667 191.533 69.3 191.599 69.9C189.266 70.8333 184.633 71.3 177.699 71.3Z" fill="url(#paint0_linear_1204_14647)"/>
<path d="M121.233 78.6C120.653 78.6 120.063 78.71 119.463 78.93C120.303 79.65 120.723 80.54 120.723 81.6C120.723 82.64 120.413 83.58 119.793 84.42C119.193 85.26 118.443 85.68 117.543 85.68C116.643 85.68 115.923 85.4 115.383 84.84C114.863 84.28 114.603 83.54 114.603 82.62C114.603 81.7 114.883 80.84 115.443 80.04C114.703 80.24 114.093 80.71 113.613 81.45C113.133 82.17 112.893 83.08 112.893 84.18C112.893 85.28 113.053 86.21 113.373 86.97C114.073 86.87 114.803 86.82 115.563 86.82C116.343 86.82 117.053 87.02 117.693 87.42C118.353 87.8 118.683 88.34 118.683 89.04C118.683 89.74 118.393 90.34 117.813 90.84C117.233 91.32 116.463 91.56 115.503 91.56C114.543 91.56 113.413 91.18 112.113 90.42C111.433 91.32 111.093 92.24 111.093 93.18C111.093 94.1 111.363 94.82 111.903 95.34C112.443 95.86 113.153 96.12 114.033 96.12C115.853 96.12 117.623 95.18 119.343 93.3L120.633 94.38C120.233 95.02 119.703 95.66 119.043 96.3C118.403 96.94 117.783 97.46 117.183 97.86C116.583 98.26 115.813 98.61 114.873 98.91C113.953 99.21 113.003 99.36 112.023 99.36C110.163 99.36 108.583 98.9 107.283 97.98C105.983 97.04 105.333 95.6 105.333 93.66C105.333 92.52 105.703 91.49 106.443 90.57C107.203 89.63 108.203 88.85 109.443 88.23C108.343 86.97 107.793 85.56 107.793 84C107.793 82.02 108.563 80.48 110.103 79.38C111.643 78.26 113.423 77.7 115.443 77.7C116.203 77.7 116.893 77.79 117.513 77.97C118.893 77.05 120.363 76.59 121.923 76.59C123.503 76.59 124.633 77 125.313 77.82C125.273 78.52 125.053 79.1 124.653 79.56L124.443 79.8C123.703 79 122.633 78.6 121.233 78.6ZM118.353 82.08C118.353 81.2 118.053 80.58 117.453 80.22C116.873 80.9 116.583 81.66 116.583 82.5C116.583 83.32 116.853 83.73 117.393 83.73C117.673 83.73 117.903 83.58 118.083 83.28C118.263 82.96 118.353 82.56 118.353 82.08ZM115.623 88.41C115.223 88.41 114.813 88.49 114.393 88.65C114.833 89.25 115.343 89.55 115.923 89.55C116.503 89.55 116.793 89.37 116.793 89.01C116.793 88.61 116.403 88.41 115.623 88.41ZM130.176 97.32C129.536 97.88 128.696 98.36 127.656 98.76C126.616 99.16 125.666 99.36 124.806 99.36C123.966 99.36 123.276 99.12 122.736 98.64C122.196 98.14 121.926 97.43 121.926 96.51C121.926 95.59 122.426 93.03 123.426 88.83C124.446 84.61 124.956 81.48 124.956 79.44C124.956 79 124.896 78.44 124.776 77.76C126.656 77.24 128.476 76.98 130.236 76.98C130.416 77.3 130.506 77.82 130.506 78.54C130.506 79.9 129.996 82.87 128.976 87.45C127.976 92.01 127.476 94.64 127.476 95.34C127.476 96.04 127.596 96.39 127.836 96.39C128.036 96.39 128.466 96.26 129.126 96L129.456 95.85L130.176 97.32ZM138.152 87.75C138.152 88.63 137.902 90 137.402 91.86C136.902 93.7 136.652 94.9 136.652 95.46C136.652 96.02 136.762 96.3 136.982 96.3C137.202 96.3 137.602 96.2 138.182 96L138.452 95.88L138.992 97.38C138.312 97.9 137.462 98.36 136.442 98.76C135.442 99.16 134.532 99.36 133.712 99.36C132.892 99.36 132.242 99.13 131.762 98.67C131.302 98.21 131.072 97.55 131.072 96.69C131.072 95.81 131.312 94.48 131.792 92.7C132.292 90.9 132.542 89.76 132.542 89.28C132.542 88.54 132.282 87.84 131.762 87.18L131.522 86.85L131.612 86.34C132.652 86.02 134.672 85.86 137.672 85.86C137.992 86.22 138.152 86.85 138.152 87.75ZM135.902 83.52C135.002 83.52 134.292 83.28 133.772 82.8C133.272 82.32 133.022 81.71 133.022 80.97C133.022 80.21 133.332 79.58 133.952 79.08C134.592 78.56 135.362 78.3 136.262 78.3C137.162 78.3 137.862 78.51 138.362 78.93C138.862 79.35 139.112 79.94 139.112 80.7C139.112 81.46 138.802 82.12 138.182 82.68C137.582 83.24 136.822 83.52 135.902 83.52ZM150.236 88.38L147.656 88.17C146.856 91.75 146.416 93.83 146.336 94.41C146.276 94.99 146.246 95.47 146.246 95.85C146.246 96.21 146.366 96.39 146.606 96.39C146.886 96.39 147.416 96.21 148.196 95.85L148.916 97.29C148.276 97.87 147.466 98.36 146.486 98.76C145.506 99.16 144.556 99.36 143.636 99.36C142.736 99.36 142.016 99.13 141.476 98.67C140.936 98.19 140.666 97.52 140.666 96.66C140.666 95.8 140.916 94.42 141.416 92.52C141.916 90.62 142.246 89.21 142.406 88.29C141.926 88.33 141.216 88.4 140.276 88.5C140.196 88.08 140.156 87.69 140.156 87.33C140.156 86.95 140.206 86.53 140.306 86.07H142.706C142.726 85.81 142.736 84.94 142.736 83.46L142.676 82.23C144.616 81.59 146.466 81.27 148.226 81.27C148.366 81.59 148.436 82.15 148.436 82.95C148.436 83.73 148.306 84.77 148.046 86.07H150.746C150.746 86.89 150.576 87.66 150.236 88.38ZM149.813 93.57C149.813 91.09 150.563 89.16 152.063 87.78C153.583 86.4 155.453 85.71 157.673 85.71C159.213 85.71 160.443 86.05 161.363 86.73C162.303 87.39 162.773 88.28 162.773 89.4C162.773 90.22 162.523 90.95 162.023 91.59C161.523 92.23 160.913 92.72 160.193 93.06C158.673 93.74 157.353 94.15 156.233 94.29L155.483 94.38C155.703 95.7 156.363 96.36 157.463 96.36C157.943 96.36 158.473 96.26 159.053 96.06C159.633 95.84 160.093 95.62 160.433 95.4L160.943 95.1L161.903 96.39C161.903 96.39 161.793 96.5 161.573 96.72C161.453 96.84 161.163 97.08 160.703 97.44C160.263 97.78 159.793 98.08 159.293 98.34C158.813 98.6 158.193 98.83 157.433 99.03C156.673 99.25 155.913 99.36 155.153 99.36C153.453 99.36 152.133 98.87 151.193 97.89C150.273 96.89 149.813 95.45 149.813 93.57ZM155.363 92.4C155.943 92.32 156.523 91.85 157.103 90.99C157.683 90.11 157.973 89.38 157.973 88.8C157.973 88.2 157.803 87.9 157.463 87.9C156.963 87.9 156.503 88.29 156.083 89.07C155.663 89.85 155.423 90.96 155.363 92.4Z" fill="url(#paint1_linear_1204_14647)"/>
<defs>
<linearGradient id="paint0_linear_1204_14647" x1="-21.305" y1="95.705" x2="165.881" y2="169.465" gradientUnits="userSpaceOnUse">
<stop stop-color="#00C2C2"/>
<stop offset="0.710275" stop-color="#5831F7"/>
<stop offset="1" stop-color="#8942BC"/>
</linearGradient>
<linearGradient id="paint1_linear_1204_14647" x1="-21.305" y1="95.705" x2="165.881" y2="169.465" gradientUnits="userSpaceOnUse">
<stop offset="0.0769689" stop-color="#8942BC"/>
<stop offset="0.451876" stop-color="#5831F7"/>
<stop offset="0.451976" stop-color="#5731F8"/>
<stop offset="0.863441" stop-color="#00C2C2"/>
</linearGradient>
</defs>
</svg>
