<svg width="64" height="64" viewBox="0 0 64 64" fill="none" xmlns="http://www.w3.org/2000/svg">
<path d="M60.6959 37.2561L54.1759 38.9788C53.2234 39.2329 52.3331 39.6794 51.5599 40.2908L44.5812 36.2321C45.5627 33.4961 45.5627 30.5041 44.5812 27.7681L51.5599 23.7094C52.3331 24.3208 53.2234 24.7673 54.1759 25.0214C54.1759 25.0214 61.1545 26.8321 61.3759 26.8321C62.0157 26.8215 62.6303 26.5812 63.1076 26.155C63.585 25.7289 63.8932 25.1453 63.976 24.5108C64.0587 23.8763 63.9106 23.2332 63.5586 22.6988C63.2066 22.1645 62.6742 21.7745 62.0585 21.6001L55.5412 19.8748C55.0532 19.7452 54.6364 19.4273 54.3825 18.9909C54.1285 18.5544 54.058 18.0351 54.1865 17.5468L55.9119 11.0294C56.0015 10.6908 56.0236 10.3378 55.9768 9.99065C55.9301 9.64348 55.8154 9.30893 55.6393 9.00608C55.4633 8.70324 55.2293 8.43804 54.9507 8.22563C54.6722 8.01321 54.3545 7.85774 54.0159 7.76809C53.6772 7.67844 53.3243 7.65637 52.9771 7.70313C52.6299 7.7499 52.2954 7.86459 51.9925 8.04065C51.6897 8.21671 51.4245 8.45069 51.2121 8.72924C50.9997 9.00779 50.8442 9.32546 50.7545 9.66409L49.0319 16.1814C48.7783 17.138 48.7256 18.1368 48.8772 19.1148L41.9012 23.1574C40.0088 21.0054 37.4708 19.5236 34.6665 18.9334V10.9334C35.5852 10.5751 36.4196 10.0303 37.1172 9.33342L41.8852 4.56542C42.387 4.0654 42.6696 3.38653 42.6708 2.67814C42.6721 1.96975 42.3919 1.28988 41.8919 0.78809C41.3918 0.286301 40.713 0.00369582 40.0046 0.00244557C39.2962 0.00119532 38.6163 0.281402 38.1145 0.781424L33.3465 5.54942C32.9881 5.90411 32.5041 6.10305 31.9999 6.10305C31.4956 6.10305 31.0117 5.90411 30.6532 5.54942L25.8852 0.781424C25.3823 0.295669 24.7087 0.0268837 24.0095 0.0329595C23.3103 0.0390352 22.6414 0.319486 22.147 0.813907C21.6526 1.30833 21.3721 1.97716 21.3661 2.67635C21.36 3.37555 21.6288 4.04915 22.1145 4.55209L26.8825 9.33342C27.5802 10.0303 28.4146 10.5751 29.3332 10.9334V18.9334C26.5289 19.5236 23.9909 21.0054 22.0985 23.1574L15.1225 19.0988C15.2741 18.1208 15.2214 17.122 14.9679 16.1654L13.2452 9.65342C13.1555 9.31479 13.0001 8.99713 12.7877 8.71858C12.5752 8.44003 12.31 8.20604 12.0072 8.02998C11.7044 7.85392 11.3698 7.73923 11.0226 7.69247C10.6755 7.6457 10.3225 7.66777 9.98386 7.75742C9.64523 7.84707 9.32757 8.00254 9.04902 8.21496C8.77046 8.42737 8.53648 8.69257 8.36042 8.99542C8.18436 9.29826 8.06967 9.63281 8.02291 9.97998C7.97614 10.3271 7.99821 10.6801 8.08786 11.0188L9.8132 17.5361C9.94169 18.0244 9.87122 18.5438 9.61726 18.9802C9.36329 19.4167 8.94657 19.7345 8.45853 19.8641L1.9412 21.6001C1.31716 21.7671 0.774953 22.1549 0.415321 22.6916C0.0556885 23.2282 -0.096918 23.8771 -0.0141456 24.5178C0.0686268 25.1585 0.38115 25.7473 0.865359 26.1749C1.34957 26.6025 1.97254 26.8398 2.61853 26.8428C2.8452 26.8428 9.81853 25.0321 9.81853 25.0321C10.771 24.778 11.6613 24.3315 12.4345 23.7201L19.4132 27.7788C18.4317 30.5147 18.4317 33.5068 19.4132 36.2428L12.4399 40.2908C11.6666 39.6794 10.7763 39.2329 9.82386 38.9788L3.30386 37.2561C2.63989 37.1269 1.95165 37.2549 1.3785 37.6141C0.805348 37.9734 0.390127 38.537 0.216916 39.1908C0.0437048 39.8447 0.125448 40.54 0.445593 41.1358C0.765738 41.7317 1.30036 42.1836 1.9412 42.4001L8.45853 44.1254C8.94657 44.255 9.36329 44.5729 9.61726 45.0093C9.87122 45.4457 9.94169 45.9651 9.8132 46.4534L8.08786 52.9708C7.99821 53.3094 7.97614 53.6624 8.02291 54.0095C8.06967 54.3567 8.18436 54.6913 8.36042 54.9941C8.53648 55.2969 8.77046 55.5621 9.04902 55.7746C9.32757 55.987 9.64523 56.1424 9.98386 56.2321C10.3225 56.3217 10.6755 56.3438 11.0226 56.2971C11.3698 56.2503 11.7044 56.1356 12.0072 55.9595C12.31 55.7835 12.5752 55.5495 12.7877 55.2709C13.0001 54.9924 13.1555 54.6747 13.2452 54.3361L14.9679 47.8188C15.2214 46.8622 15.2741 45.8634 15.1225 44.8854L22.0985 40.8268C23.9886 42.9847 26.5269 44.4722 29.3332 45.0668V53.0668C28.4151 53.4261 27.5808 53.9707 26.8825 54.6668L22.1145 59.4481C21.6288 59.951 21.36 60.6246 21.3661 61.3238C21.3721 62.023 21.6526 62.6919 22.147 63.1863C22.6414 63.6807 23.3103 63.9612 24.0095 63.9672C24.7087 63.9733 25.3823 63.7045 25.8852 63.2188L30.6665 58.4508C31.025 58.0961 31.5089 57.8971 32.0132 57.8971C32.5175 57.8971 33.0014 58.0961 33.3599 58.4508L38.1279 63.2188C38.6308 63.7045 39.3044 63.9733 40.0036 63.9672C40.7028 63.9612 41.3716 63.6807 41.8661 63.1863C42.3605 62.6919 42.6409 62.023 42.647 61.3238C42.6531 60.6246 42.3843 59.951 41.8985 59.4481L37.1305 54.6801C36.4296 53.9777 35.5906 53.4284 34.6665 53.0668V45.0668C37.4705 44.4773 40.0084 42.9964 41.9012 40.8454L48.8772 44.9041C48.7256 45.8821 48.7783 46.8808 49.0319 47.8374L50.7545 54.3548C50.9356 55.0387 51.3809 55.6226 51.9925 55.9782C52.6041 56.3338 53.332 56.4318 54.0159 56.2508C54.6998 56.0697 55.2837 55.6244 55.6393 55.0128C55.9949 54.4011 56.0929 53.6733 55.9119 52.9894L54.1865 46.4721C54.058 45.9838 54.1285 45.4644 54.3825 45.028C54.6364 44.5915 55.0532 44.2737 55.5412 44.1441L62.0585 42.4188C62.4045 42.3363 62.7305 42.1854 63.0173 41.9751C63.3041 41.7647 63.546 41.4991 63.7286 41.1939C63.9112 40.8887 64.0309 40.55 64.0807 40.1978C64.1304 39.8457 64.1092 39.4871 64.0183 39.1432C63.9274 38.7994 63.7686 38.4772 63.5513 38.1956C63.334 37.914 63.0626 37.6787 62.753 37.5036C62.4434 37.3285 62.1019 37.2171 61.7486 37.176C61.3954 37.1349 61.0374 37.1648 60.6959 37.2641V37.2561ZM31.9999 40.0001C29.8781 40.0001 27.8433 39.1572 26.343 37.6569C24.8427 36.1567 23.9999 34.1218 23.9999 32.0001C23.9999 29.8784 24.8427 27.8435 26.343 26.3432C27.8433 24.8429 29.8781 24.0001 31.9999 24.0001C34.1216 24.0001 36.1564 24.8429 37.6567 26.3432C39.157 27.8435 39.9999 29.8784 39.9999 32.0001C39.9999 34.1218 39.157 36.1567 37.6567 37.6569C36.1564 39.1572 34.1216 40.0001 31.9999 40.0001Z" fill="white"/>
</svg>
